<svg xmlns="http://www.w3.org/2000/svg" width="19.252" height="21.62" viewBox="0 0 19.252 21.62">
  <path id="Path_798" data-name="Path 798" d="M45.718,1.575a5.392,5.392,0,0,0-7.616,0L30.083,9.595a.633.633,0,1,0,.9.9L39,2.471a4.218,4.218,0,0,1,5.825,0,4.123,4.123,0,0,1,0,5.824l-11.2,11.324a2.6,2.6,0,0,1-3.584,0,2.537,2.537,0,0,1,0-3.584L40.79,5.159a.973.973,0,0,1,1.344,0,.952.952,0,0,1,0,1.344l-10.3,10.428a.706.706,0,0,0,0,.9.633.633,0,0,0,.9,0L43.03,7.4a2.22,2.22,0,0,0,0-3.136,2.271,2.271,0,0,0-3.136,0L29.144,15.14a3.826,3.826,0,0,0,0,5.375,3.821,3.821,0,0,0,5.376,0l11.2-11.324A5.391,5.391,0,0,0,45.718,1.575Z" transform="translate(-28.042 0)" fill="#626467"/>
</svg>
