<svg xmlns="http://www.w3.org/2000/svg" width="29" height="31.835" viewBox="0 0 29 31.835">
  <g id="Group_4963" data-name="Group 4963" transform="translate(-675.793 -376.034)">
    <path id="Path_5469" data-name="Path 5469" d="M704.793,390.932a14.55,14.55,0,0,1-12.831,14.395,14.373,14.373,0,0,1-15.989-12.2c-.844-5.877,1.308-10.614,6.107-14.124a1.439,1.439,0,0,1,2.132.273,1.458,1.458,0,0,1-.476,2.1,11.274,11.274,0,0,0-4.907,7.771,11.578,11.578,0,0,0,22.8,4,11.324,11.324,0,0,0-4.83-11.775,1.481,1.481,0,0,1-.664-1.722,1.408,1.408,0,0,1,1.428-.983,1.8,1.8,0,0,1,.822.29,14.259,14.259,0,0,1,6.236,10.114C704.712,389.689,704.739,390.312,704.793,390.932Z" transform="translate(0 2.45)" fill="#76777b"/>
    <path id="Path_5470" data-name="Path 5470" d="M685.421,384.718c0,2.405.008,4.81,0,7.216a1.448,1.448,0,1,1-2.891-.089q.009-4.18,0-8.361c0-1.995,0-3.988,0-5.983a1.433,1.433,0,0,1,.987-1.391,1.373,1.373,0,0,1,1.61.528,2.058,2.058,0,0,1,.281.993C685.432,379.993,685.421,382.356,685.421,384.718Z" transform="translate(6.295 0)" fill="#76777b"/>
  </g>
</svg>
