<svg xmlns="http://www.w3.org/2000/svg" width="350.286" height="70.496" viewBox="0 0 350.286 70.496">
  <g id="Group_4956" data-name="Group 4956" transform="translate(14135 21550)">
    <path id="Path_5423" data-name="Path 5423" d="M28.751,200.3a8.679,8.679,0,0,0,4.339.981h8.352A8.868,8.868,0,0,0,45.8,200.3a6.422,6.422,0,0,0,2.63-2.586,7.288,7.288,0,0,0,.862-3.507V178.634l-1.545-.179a41.368,41.368,0,0,0-4.369-.208,13.988,13.988,0,0,0-4.726.625,4.193,4.193,0,0,0-2.422,2.3,16.491,16.491,0,0,0-.134,9.436,3.377,3.377,0,0,0,1.9,1.977,10.522,10.522,0,0,0,3.626.49h3.686v.713a4.2,4.2,0,0,1-.907,2.764,3.623,3.623,0,0,1-2.957,1.1H33.09a3.57,3.57,0,0,1-2.957-1.1,4.391,4.391,0,0,1-.877-2.823,20.461,20.461,0,0,1,.223-2.615q.224-1.635.64-4.251l.207-1.4-3.715-.624a64.87,64.87,0,0,0-1.218,9.3,7.771,7.771,0,0,0,.817,3.552,6.176,6.176,0,0,0,2.541,2.6M42.6,189.452a7.466,7.466,0,0,1-1.9-.178,1.459,1.459,0,0,1-.936-.907,6.364,6.364,0,0,1-.312-2.333,6.846,6.846,0,0,1,.386-2.615,2.159,2.159,0,0,1,1.234-1.219,7,7,0,0,1,2.421-.327q.922,0,1.814.06v7.519Z" transform="translate(-14159.857 -21714.752)" fill="#626467"/>
    <rect id="Rectangle_412" data-name="Rectangle 412" width="3.061" height="3.715" transform="translate(-14119.782 -21543.014)" fill="#626467"/>
    <rect id="Rectangle_413" data-name="Rectangle 413" width="3.061" height="3.715" transform="translate(-14115.266 -21543.014)" fill="#626467"/>
    <path id="Path_5424" data-name="Path 5424" d="M106.856,172.274h-3.983v17.178H96.1V172.274H92.114v17.178H85.962v-3.834a9.389,9.389,0,0,0-1.56-5.394q-1.56-2.3-5.305-2.3a8.12,8.12,0,0,0-3.358.654,8.89,8.89,0,0,0-2.541,1.694,28.624,28.624,0,0,0-2.423,2.7v-10.7H66.793v17.178h-7.4V178.218H55.41v15.365a4.483,4.483,0,0,1-.535,2.393,1.773,1.773,0,0,1-1.6.847l-1.01-.06v3.567q1.784.118,2.169.119a4.1,4.1,0,0,0,3.7-1.932,10.286,10.286,0,0,0,1.263-5.439h47.463ZM81.98,189.452H70.775v-.267a7.82,7.82,0,0,1,1.07-2.482,14.872,14.872,0,0,1,2.734-3.551,5.137,5.137,0,0,1,3.626-1.6,3.218,3.218,0,0,1,2.779,1.4,5.784,5.784,0,0,1,1,3.447Z" transform="translate(-14159.857 -21714.752)" fill="#626467"/>
    <rect id="Rectangle_414" data-name="Rectangle 414" width="3.061" height="3.715" transform="translate(-14038.231 -21543.014)" fill="#626467"/>
    <path id="Path_5425" data-name="Path 5425" d="M120.288,192.454a13.831,13.831,0,0,0,4.637.624H154.11v-7.43a13.083,13.083,0,0,0-.579-4.279,4.551,4.551,0,0,0-2.23-2.527,10.08,10.08,0,0,0-4.71-.891,18.994,18.994,0,0,0-3.507.3,10.013,10.013,0,0,0-2.378.684,27.392,27.392,0,0,0-.743,3.239,20.45,20.45,0,0,0-.327,3.507,20,20,0,0,0,.416,3.774h-7.727V178.307q-.951-.149-3.269-.267t-3.983-.119a14.472,14.472,0,0,0-4.844.639,4.336,4.336,0,0,0-2.5,2.229,10.815,10.815,0,0,0-.772,4.592,11.133,11.133,0,0,0,.817,4.8,4.425,4.425,0,0,0,2.511,2.273m23.628-10.7a10.967,10.967,0,0,1,2.259-.238q2.317,0,3.135.981a4.732,4.732,0,0,1,.817,3.061v3.893h-6.211q-.148-.652-.282-1.708a16.263,16.263,0,0,1-.134-2.066,21.653,21.653,0,0,1,.416-3.923m-22.558,1.263a2.3,2.3,0,0,1,1.323-1.144,7.778,7.778,0,0,1,2.541-.327q1.633,0,3.12.149v7.756h-3.209a7.3,7.3,0,0,1-2.437-.326,2.321,2.321,0,0,1-1.323-1.2,5.93,5.93,0,0,1-.431-2.541,5.335,5.335,0,0,1,.416-2.363" transform="translate(-14159.857 -21714.752)" fill="#626467"/>
    <rect id="Rectangle_415" data-name="Rectangle 415" width="3.061" height="3.715" transform="translate(-14033.714 -21543.014)" fill="#626467"/>
    <path id="Path_5426" data-name="Path 5426" d="M192.3,172.274h-3.982v17.178h-7.579a9.709,9.709,0,0,1-2.051-.238,26.915,26.915,0,0,0,3.2-3.358,4.968,4.968,0,0,0,1.084-3.061l.119-2.615a16.71,16.71,0,0,0-3.76-1.6,15.07,15.07,0,0,0-4.473-.713,14.733,14.733,0,0,0-4.458.713,15.533,15.533,0,0,0-3.655,1.6l.089,2.615a5.04,5.04,0,0,0,1.085,3.061,24.321,24.321,0,0,0,3.2,3.358,9.6,9.6,0,0,1-2.021.238h-7.133V172.274h-3.983v20.8h11.2a12.918,12.918,0,0,0,2.868-.342,15.253,15.253,0,0,0,2.838-.936,15.079,15.079,0,0,0,2.868.936,13.809,13.809,0,0,0,3.017.342H192.3Zm-17.386,15.4a10.065,10.065,0,0,1-3.15-2.7,4.8,4.8,0,0,1-1.07-2.735,12.733,12.733,0,0,1,4.19-.743,13.348,13.348,0,0,1,4.28.743,4.632,4.632,0,0,1-1.026,2.645,11.166,11.166,0,0,1-3.224,2.794" transform="translate(-14159.857 -21714.752)" fill="#626467"/>
    <rect id="Rectangle_416" data-name="Rectangle 416" width="3.982" height="20.804" transform="translate(-13962.802 -21542.479)" fill="#626467"/>
    <rect id="Rectangle_417" data-name="Rectangle 417" width="3.061" height="3.715" transform="translate(-13943.752 -21543.014)" fill="#626467"/>
    <path id="Path_5427" data-name="Path 5427" d="M214.768,192.454a13.828,13.828,0,0,0,4.636.624h68.714v-20.8h-3.983v17.178h-6.3v-2.823a12.571,12.571,0,0,0-1.189-5.6,8.761,8.761,0,0,0-3.492-3.775,10.773,10.773,0,0,0-5.544-1.352,22.064,22.064,0,0,0-3.833.357q-2.022.355-4.28.921l.327,3.18q2.556-.416,4.116-.639a19.97,19.97,0,0,1,2.779-.223,8.359,8.359,0,0,1,4.948,1.546q2.186,1.545,2.185,5.587v2.823h-2.794v-.594a6.079,6.079,0,0,0-.787-2.972,6.251,6.251,0,0,0-2.185-2.3,5.805,5.805,0,0,0-3.15-.877,5.954,5.954,0,0,0-3.18.877,6.248,6.248,0,0,0-3,5.305v.564h-7.579V178.218h-3.982v11.234h-8.887V178.218h-3.982v11.234H226.8V178.307q-.951-.149-3.269-.267t-3.983-.119a14.464,14.464,0,0,0-4.844.639,4.336,4.336,0,0,0-2.5,2.229,10.813,10.813,0,0,0-.773,4.592,11.116,11.116,0,0,0,.818,4.8,4.422,4.422,0,0,0,2.511,2.273m48-3.625a2.667,2.667,0,0,1,.609-1.769,1.915,1.915,0,0,1,1.531-.728,1.977,1.977,0,0,1,1.546.713,2.57,2.57,0,0,1,.624,1.754v.653h-4.31Zm-46.928-5.811a2.3,2.3,0,0,1,1.322-1.144,7.789,7.789,0,0,1,2.542-.327q1.634,0,3.12.149v7.756h-3.21a7.3,7.3,0,0,1-2.437-.326,2.322,2.322,0,0,1-1.322-1.2,5.93,5.93,0,0,1-.431-2.541,5.335,5.335,0,0,1,.416-2.363" transform="translate(-14159.857 -21714.752)" fill="#626467"/>
    <rect id="Rectangle_418" data-name="Rectangle 418" width="3.061" height="3.715" transform="translate(-13939.234 -21543.014)" fill="#626467"/>
    <path id="Path_5428" data-name="Path 5428" d="M233.046,174.8l6.508-1.278-.416-1.813-3.24.862a1.565,1.565,0,0,1-.712-1.337,1.5,1.5,0,0,1,1.544-1.516,1.939,1.939,0,0,1,.744.134,1.962,1.962,0,0,1,.505.282l.386-1.783a4.385,4.385,0,0,0-2.317-.714,3.009,3.009,0,0,0-2.245.892,2.909,2.909,0,0,0-.876,2.11,3.04,3.04,0,0,0,1.158,2.408l-1.366.356Z" transform="translate(-14159.857 -21714.752)" fill="#626467"/>
    <rect id="Rectangle_419" data-name="Rectangle 419" width="3.061" height="3.715" transform="translate(-13909.989 -21519.297)" fill="#626467"/>
    <rect id="Rectangle_420" data-name="Rectangle 420" width="3.061" height="3.715" transform="translate(-13914.508 -21519.297)" fill="#626467"/>
    <rect id="Rectangle_421" data-name="Rectangle 421" width="3.982" height="20.804" transform="translate(-13866.984 -21542.479)" fill="#626467"/>
    <path id="Path_5429" data-name="Path 5429" d="M38.55,213.828a6,6,0,0,0-1.629-4.571,6.818,6.818,0,0,0-4.806-1.517H24.857v19.085h3.358v-6.747h4.008l2.948,6.747h3.677l-3.33-7.477c2.012-.97,3.032-2.825,3.032-5.52m-4.165,2.447a2.912,2.912,0,0,1-2.243.79H28.215v-6.313h3.9a3.02,3.02,0,0,1,2.272.779,3.3,3.3,0,0,1,.752,2.351,3.388,3.388,0,0,1-.754,2.393" transform="translate(-14159.857 -21714.752)" fill="#626467"/>
    <path id="Path_5430" data-name="Path 5430" d="M46.3,212.443a5.831,5.831,0,0,0-4.747,1.82c-.978,1.184-1.474,3.058-1.474,5.571,0,2.458.486,4.3,1.445,5.475.98,1.2,2.587,1.809,4.776,1.809s3.8-.613,4.778-1.823a8.632,8.632,0,0,0,1.444-5.461c0-2.492-.491-4.361-1.459-5.555-.988-1.219-2.591-1.836-4.763-1.836m2.588,10.093a2.063,2.063,0,0,1-.826,1.235h0a3.287,3.287,0,0,1-1.761.388,3.35,3.35,0,0,1-1.777-.391,2.034,2.034,0,0,1-.837-1.242,10.325,10.325,0,0,1-.276-2.692,10.554,10.554,0,0,1,.29-2.8,2.075,2.075,0,0,1,.844-1.255A3.412,3.412,0,0,1,46.3,215.4a3.331,3.331,0,0,1,1.739.377,2.1,2.1,0,0,1,.836,1.245,10.59,10.59,0,0,1,.289,2.81,10.264,10.264,0,0,1-.276,2.7" transform="translate(-14159.857 -21714.752)" fill="#626467"/>
    <path id="Path_5431" data-name="Path 5431" d="M65.395,224.118a.787.787,0,0,1-.226-.512v-6.4a4.885,4.885,0,0,0-1.183-3.6,5.092,5.092,0,0,0-3.685-1.166,23.4,23.4,0,0,0-5.326.675l-.326.077.114,2.571.428-.046a47.784,47.784,0,0,1,5.11-.317,1.616,1.616,0,0,1,1.2.4,2.005,2.005,0,0,1,.39,1.4v.668l-3.407.312a5.834,5.834,0,0,0-3.447,1.232,4.1,4.1,0,0,0-1.142,3.182,4.743,4.743,0,0,0,1.089,3.329,4.114,4.114,0,0,0,3.166,1.192,11.109,11.109,0,0,0,4.454-.97,4.366,4.366,0,0,0,1.35.7,6.94,6.94,0,0,0,2.061.271H66.4l.111-2.659-.356-.057a1.458,1.458,0,0,1-.761-.284m-3.5-.458-.282.094a9.463,9.463,0,0,1-3.007.484c-.641,0-1.376-.2-1.376-1.722a1.768,1.768,0,0,1,.381-1.249,2,2,0,0,1,1.271-.5l3.013-.279Z" transform="translate(-14159.857 -21714.752)" fill="#626467"/>
    <path id="Path_5432" data-name="Path 5432" d="M76.21,212.723c-3.4-.654-5.927-.148-7.272,1.56-.952,1.209-1.415,3.077-1.415,5.71a9.461,9.461,0,0,0,1.184,5.286,4.513,4.513,0,0,0,4.028,1.839,8.364,8.364,0,0,0,3.475-.843v.551h3.279V207.1H76.21Zm0,10.687-.221.086a9.762,9.762,0,0,1-1.376.407c-1.638.37-2.66.16-3.159-.734a7.159,7.159,0,0,1-.573-3.308,6.7,6.7,0,0,1,.677-3.523,2.47,2.47,0,0,1,2.24-.936,14.075,14.075,0,0,1,2.412.25Z" transform="translate(-14159.857 -21714.752)" fill="#626467"/>
    <path id="Path_5433" data-name="Path 5433" d="M90.657,218.945a12.4,12.4,0,0,0-2.542-.7c-.381-.072-.635-.117-.748-.134a15.422,15.422,0,0,1-1.514-.336,1.711,1.711,0,0,1-.723-.394.858.858,0,0,1-.221-.652c0-.307,0-1.243,2.305-1.243a34.62,34.62,0,0,1,4.513.422l.449.063.074-2.864-1.116-.23a25.556,25.556,0,0,0-4.052-.4c-4.506,0-5.451,2.46-5.451,4.522a3.907,3.907,0,0,0,.546,2.191,3.375,3.375,0,0,0,1.548,1.236,11.161,11.161,0,0,0,2.5.638l.641.106a11.646,11.646,0,0,1,1.535.319,1.774,1.774,0,0,1,.752.431,1.038,1.038,0,0,1,.241.764,1.085,1.085,0,0,1-.52,1.035,3.906,3.906,0,0,1-1.92.368,38.034,38.034,0,0,1-4.54-.447l-.437-.062-.146,2.926,1.151.192a25.334,25.334,0,0,0,4.079.43,6.646,6.646,0,0,0,4.185-1.111,4.291,4.291,0,0,0,1.426-3.543,4.376,4.376,0,0,0-.5-2.225,3.167,3.167,0,0,0-1.515-1.294" transform="translate(-14159.857 -21714.752)" fill="#626467"/>
    <path id="Path_5434" data-name="Path 5434" d="M105.276,211.222a5.029,5.029,0,0,1,2.9-.682,38.834,38.834,0,0,1,5.493.475l.439.063.149-2.837-1.278-.255a28.73,28.73,0,0,0-5.281-.538,8.1,8.1,0,0,0-4.4,1.06,6,6,0,0,0-2.41,3.252,17.682,17.682,0,0,0-.711,5.5,18.075,18.075,0,0,0,.7,5.5,5.952,5.952,0,0,0,2.425,3.282,8.261,8.261,0,0,0,4.481,1.074,35.124,35.124,0,0,0,6.13-.644l.332-.06v-9.88h-5.962V219.6h2.63v4.25a19.3,19.3,0,0,1-2.891.2,4.881,4.881,0,0,1-2.7-.623,3.3,3.3,0,0,1-1.284-1.963,16,16,0,0,1-.4-4.024,18.655,18.655,0,0,1,.36-4.168,3.36,3.36,0,0,1,1.277-2.052" transform="translate(-14159.857 -21714.752)" fill="#626467"/>
    <path id="Path_5435" data-name="Path 5435" d="M122.416,212.442a5.534,5.534,0,0,0-4.636,1.95,9.3,9.3,0,0,0-1.479,5.734c0,2.37.468,4.141,1.392,5.264h0c.944,1.147,2.516,1.728,4.669,1.728a31.856,31.856,0,0,0,5.089-.537l.346-.059-.076-2.7-1.174.127c-.547.053-1.165.092-1.836.117a10.242,10.242,0,0,1-3.858-.269,1.734,1.734,0,0,1-.911-.924,4.916,4.916,0,0,1-.324-1.652h8.428l.192-2.211c0-4.358-1.959-6.567-5.823-6.567m-2.824,6.031a4.076,4.076,0,0,1,.693-2.356,2.576,2.576,0,0,1,2.131-.795,2.268,2.268,0,0,1,1.948.742,4.387,4.387,0,0,1,.591,2.409Z" transform="translate(-14159.857 -21714.752)" fill="#626467"/>
    <path id="Path_5436" data-name="Path 5436" d="M140.127,213.178a4.967,4.967,0,0,0-2.86-.736,7.568,7.568,0,0,0-2.078.282,9.181,9.181,0,0,0-1.557.621v-.61H130.38v14.091h3.279V216.157l.2-.093a7.642,7.642,0,0,1,2.8-.582,2.218,2.218,0,0,1,1.336.329,1.8,1.8,0,0,1,.594,1.093,12.616,12.616,0,0,1,.19,2.5v7.418h3.279v-7.471a14.721,14.721,0,0,0-.415-3.9,4,4,0,0,0-1.513-2.28" transform="translate(-14159.857 -21714.752)" fill="#626467"/>
    <path id="Path_5437" data-name="Path 5437" d="M150.285,212.442a5.532,5.532,0,0,0-4.636,1.95,9.3,9.3,0,0,0-1.48,5.734c0,2.37.469,4.14,1.393,5.264h0c.944,1.147,2.516,1.728,4.669,1.728a31.855,31.855,0,0,0,5.089-.537l.345-.059-.075-2.7-1.174.127c-.547.053-1.165.092-1.836.117a10.239,10.239,0,0,1-3.858-.269,1.739,1.739,0,0,1-.912-.924,4.949,4.949,0,0,1-.323-1.652h8.427l.193-2.211c0-4.358-1.959-6.567-5.823-6.567m-2.824,6.031a4.076,4.076,0,0,1,.693-2.356,2.576,2.576,0,0,1,2.131-.795,2.268,2.268,0,0,1,1.948.742,4.4,4.4,0,0,1,.591,2.409Z" transform="translate(-14159.857 -21714.752)" fill="#626467"/>
    <path id="Path_5438" data-name="Path 5438" d="M161.5,214.092v-1.358h-3.252v14.092h3.279V217.2l.4-.186a17.644,17.644,0,0,1,1.818-.7,18.059,18.059,0,0,1,2.1-.572l.323-.067v-3.317l-.481.1a13.5,13.5,0,0,0-4.195,1.642" transform="translate(-14159.857 -21714.752)" fill="#626467"/>
    <path id="Path_5439" data-name="Path 5439" d="M178.306,224.118a.787.787,0,0,1-.226-.512v-6.4a4.891,4.891,0,0,0-1.183-3.6,5.1,5.1,0,0,0-3.685-1.165,23.392,23.392,0,0,0-5.326.675l-.325.077.113,2.571.428-.046a47.783,47.783,0,0,1,5.11-.317,1.614,1.614,0,0,1,1.2.4,2.005,2.005,0,0,1,.39,1.4v.668l-3.407.312a5.84,5.84,0,0,0-3.447,1.231A4.107,4.107,0,0,0,166.8,222.6a4.744,4.744,0,0,0,1.089,3.329,4.119,4.119,0,0,0,3.166,1.192,11.109,11.109,0,0,0,4.454-.97,4.365,4.365,0,0,0,1.35.7,6.94,6.94,0,0,0,2.061.271h.387l.111-2.659-.356-.057a1.449,1.449,0,0,1-.761-.284m-3.505-.458-.282.094a9.463,9.463,0,0,1-3.007.484c-.641,0-1.376-.2-1.376-1.722a1.768,1.768,0,0,1,.381-1.249,2,2,0,0,1,1.271-.5l3.013-.279Z" transform="translate(-14159.857 -21714.752)" fill="#626467"/>
    <rect id="Rectangle_422" data-name="Rectangle 422" width="3.278" height="19.724" transform="translate(-13978.654 -21507.65)" fill="#626467"/>
    <path id="Path_5440" data-name="Path 5440" d="M196.915,207.741l-4.938,19.085h3.356l1.143-4.277h6.765l1.142,4.277h3.356L202.8,207.741Zm.3,11.741,2.264-8.783h.755l2.262,8.783Z" transform="translate(-14159.857 -21714.752)" fill="#626467"/>
    <path id="Path_5441" data-name="Path 5441" d="M217.387,223.393a11.263,11.263,0,0,1-1.389.487,5.977,5.977,0,0,1-1.554.2,2.361,2.361,0,0,1-1.345-.3,1.627,1.627,0,0,1-.544-1.041,14.767,14.767,0,0,1-.177-2.669v-7.338H209.1v7.338a16.684,16.684,0,0,0,.385,4.021,3.89,3.89,0,0,0,1.462,2.3,5,5,0,0,0,2.887.724,7.293,7.293,0,0,0,2.069-.282,9.132,9.132,0,0,0,1.486-.614v.6h3.279V212.734h-3.279Z" transform="translate(-14159.857 -21714.752)" fill="#626467"/>
    <path id="Path_5442" data-name="Path 5442" d="M228.684,224.1a.952.952,0,0,1-1.155-.943,13.533,13.533,0,0,1-.088-1.814v-5.68h3.9v-2.933h-3.9v-3.959h-3.279v3.959h-1.78v2.933h1.78V221.8a10.191,10.191,0,0,0,.365,3.074,2.973,2.973,0,0,0,1.312,1.74,4.774,4.774,0,0,0,2.394.5,18.713,18.713,0,0,0,2.937-.324l.364-.062-.221-2.782Z" transform="translate(-14159.857 -21714.752)" fill="#626467"/>
    <path id="Path_5443" data-name="Path 5443" d="M242.7,213.164a5.081,5.081,0,0,0-2.885-.722,8.091,8.091,0,0,0-2.012.252,11.305,11.305,0,0,0-1.568.541V207.1h-3.279v19.724h3.279v-10.8l.179-.063a8.28,8.28,0,0,1,2.685-.482,2.53,2.53,0,0,1,1.429.326,1.714,1.714,0,0,1,.622,1.062,12.059,12.059,0,0,1,.2,2.539v7.417h3.279v-7.471a14.827,14.827,0,0,0-.415-3.908,3.934,3.934,0,0,0-1.515-2.283" transform="translate(-14159.857 -21714.752)" fill="#626467"/>
    <path id="Path_5444" data-name="Path 5444" d="M252.965,212.443a5.831,5.831,0,0,0-4.747,1.82c-.978,1.184-1.474,3.058-1.474,5.571,0,2.458.486,4.3,1.445,5.475.98,1.2,2.586,1.809,4.776,1.809s3.8-.613,4.778-1.823c.958-1.184,1.444-3.022,1.444-5.461,0-2.492-.491-4.361-1.459-5.555-.988-1.219-2.591-1.836-4.763-1.836m2.588,10.093a2.066,2.066,0,0,1-.827,1.235,3.287,3.287,0,0,1-1.761.388,3.35,3.35,0,0,1-1.777-.391,2.034,2.034,0,0,1-.837-1.242,10.3,10.3,0,0,1-.276-2.692,10.522,10.522,0,0,1,.29-2.8,2.075,2.075,0,0,1,.844-1.255,3.412,3.412,0,0,1,1.756-.379,3.325,3.325,0,0,1,1.738.377,2.1,2.1,0,0,1,.837,1.245,10.6,10.6,0,0,1,.288,2.81,10.271,10.271,0,0,1-.275,2.7" transform="translate(-14159.857 -21714.752)" fill="#626467"/>
    <path id="Path_5445" data-name="Path 5445" d="M264.66,214.092v-1.358h-3.252v14.092h3.279V217.2l.4-.186a17.556,17.556,0,0,1,1.818-.7,18.06,18.06,0,0,1,2.1-.572l.323-.067v-3.317l-.481.1a13.524,13.524,0,0,0-4.2,1.642" transform="translate(-14159.857 -21714.752)" fill="#626467"/>
    <rect id="Rectangle_423" data-name="Rectangle 423" width="3.252" height="3.491" transform="translate(-13889.045 -21507.305)" fill="#626467"/>
    <rect id="Rectangle_424" data-name="Rectangle 424" width="3.279" height="14.091" transform="translate(-13889.045 -21502.018)" fill="#626467"/>
    <path id="Path_5446" data-name="Path 5446" d="M281.737,224.1a.952.952,0,0,1-1.155-.943,13.7,13.7,0,0,1-.088-1.814v-5.68h3.9v-2.933h-3.9v-3.959h-3.279v3.959h-1.78v2.933h1.78V221.8a10.15,10.15,0,0,0,.366,3.074,2.969,2.969,0,0,0,1.311,1.74,4.774,4.774,0,0,0,2.394.5,18.713,18.713,0,0,0,2.937-.324l.364-.062-.22-2.782Z" transform="translate(-14159.857 -21714.752)" fill="#626467"/>
    <path id="Path_5447" data-name="Path 5447" d="M291.154,223.892h-.181l-3.028-11.158h-3.309l3.833,14.091h1.926l-1.647,5.792h3.287l5.483-19.883h-3.309Z" transform="translate(-14159.857 -21714.752)" fill="#626467"/>
    <rect id="Rectangle_425" data-name="Rectangle 425" width="2.475" height="65.086" transform="translate(-13849.967 -21547.369)" fill="#626467"/>
    <path id="Path_5448" data-name="Path 5448" d="M324.928,196.734l14.5-9.374c-4.374,4.842-5.892,11.485-3.4,20.615l9.929-19.16s-.011,8.162-.058,17.934c-.044,9.259-.269,10.3-.269,10.3l2.857,2.166,2.407-1.969c-.04-3.065-.368-28.422-.368-28.426l9.929,19.16c2.491-9.13.977-15.773-3.4-20.615l14.5,9.374c-.771-9-8.359-16.369-14.956-17.476l18.54,1.685c-6.453-7.54-16.774-8.319-21.175-6.615l11.634-9.449c-6.424-.728-13.789,1.661-17.358,7.394-3.57-5.733-10.934-8.122-17.358-7.394l11.634,9.449c-4.4-1.7-14.723-.925-21.176,6.615l18.541-1.685c-6.6,1.107-14.185,8.477-14.957,17.476" transform="translate(-14159.857 -21714.752)" fill="#406c5d"/>
    <path id="Path_5449" data-name="Path 5449" d="M353.524,232.993c-.352.207-.7.4-1.042.57s-.677.323-1,.45a11.055,11.055,0,0,1-1.32.425,7.255,7.255,0,0,1-2.4.222,5.311,5.311,0,0,1-1.075-.205,9.513,9.513,0,0,1-1.535-.66,69.867,69.867,0,0,1-7.4-4.754q-.74-.523-1.5-1.077c-1.015-.736-2.058-1.505-3.11-2.294-2.1-1.576-4.244-3.227-6.277-4.83q-.762-.6-1.5-1.192l-.011.713c8.141,6.479,17.877,13.646,21.179,14.636a6.169,6.169,0,0,0,1.774.251,9.373,9.373,0,0,0,3.392-.709,13.767,13.767,0,0,0,2.4-1.331Z" transform="translate(-14159.857 -21714.752)" fill="#b18a00"/>
    <path id="Path_5450" data-name="Path 5450" d="M356.52,230.735l.291-.21c.425-.307.986-.717,1.546-1.127l.822-.6c.787-.576,1.415-1.038,1.42-1.038a9.243,9.243,0,0,1-3.365-.663c-.326-.128-.636-.267-.926-.411a13.693,13.693,0,0,1-1.494-.872c-.412-.276-.732-.519-.946-.677-6.312-4.652-21.848-16.437-28.516-21.5v6.2c1.36,1.076,3.254,2.566,5.137,4.008l-1.625,2.122c-1.338-1.025-2.537-1.946-3.512-2.7v6.381q.738.59,1.5,1.191c2.033,1.6,4.173,3.254,6.277,4.831,1.051.788,2.1,1.558,3.11,2.294q.762.552,1.5,1.076a69.706,69.706,0,0,0,7.4,4.754,9.531,9.531,0,0,0,1.535.661,5.379,5.379,0,0,0,1.075.2,7.254,7.254,0,0,0,2.4-.222,10.757,10.757,0,0,0,1.32-.425c.325-.127.66-.279,1-.45s.69-.363,1.042-.57h0a16.209,16.209,0,0,1-3.724-1.857l1.561-2.041a42.763,42.763,0,0,0,4.724,1.942.34.34,0,0,0,.059-.036c.071-.048.2-.141.375-.265m-13.78-4.241c-2.1-1.567-4.526-3.4-6.954-5.249l1.617-2.128c2.421,1.841,4.845,3.673,6.937,5.235Z" transform="translate(-14159.857 -21714.752)" fill="#626467"/>
    <path id="Path_5451" data-name="Path 5451" d="M359.16,225.94c2.778.637,4.347-.079,5.44-.954l7.325-5.429V212.7l-4.237,3.4-1.673-2.084,5.594-4.545.316-.256v-6.834l-21.807,17.48c.007.012,4.428,3.367,4.42,3.365l.084-.068,4.619-3.705,1.673,2.084-4.137,3.324a6.564,6.564,0,0,0,1.265.694,7.3,7.3,0,0,0,1.118.383" transform="translate(-14159.857 -21714.752)" fill="#626467"/>
    <path id="Path_5452" data-name="Path 5452" d="M371.924,219.557l-7.324,5.429c-1.093.875-2.662,1.59-5.44.954a7.214,7.214,0,0,1-1.118-.384,6.561,6.561,0,0,1-1.265-.693l.044-.036-.5.374a8.628,8.628,0,0,0,2.709,1.289,9.436,9.436,0,0,0,2.108.257,5.743,5.743,0,0,0,3.794-1.307l6.988-5.179Z" transform="translate(-14159.857 -21714.752)" fill="#b18a00"/>
    <path id="Path_5453" data-name="Path 5453" d="M371.924,212.692l-.277.231.277-.222Z" transform="translate(-14159.857 -21714.752)" fill="#b18a00"/>
    <path id="Path_5454" data-name="Path 5454" d="M350.118,219.862l21.806-17.479v-.664L349.27,219.876l.536.408c.588.447,3.556,2.684,4.334,3.269l.482-.394-.084.068c.008,0-4.413-3.352-4.42-3.365" transform="translate(-14159.857 -21714.752)" fill="#b18a00"/>
    <path id="Path_5455" data-name="Path 5455" d="M371.924,209.217l-.315.256.315-.246Z" transform="translate(-14159.857 -21714.752)" fill="#b18a00"/>
    <path id="Path_5456" data-name="Path 5456" d="M360.741,227.269a11.671,11.671,0,0,1-6.538-2.589c-6.022-4.44-20.447-15.373-28.509-21.5l-.353-.268.011.718c6.668,5.064,22.2,16.849,28.516,21.5.214.158.534.4.946.677a13.288,13.288,0,0,0,1.494.872c.29.144.6.284.926.411a9.222,9.222,0,0,0,3.365.664c-.005,0-.633.461-1.42,1.038l-.822.6c-.56.41-1.122.819-1.546,1.127l-.291.209c-.174.125-.3.218-.375.265a.467.467,0,0,1-.059.037l.665.242c.572-.428,5.56-4,5.56-4Z" transform="translate(-14159.857 -21714.752)" fill="#b18a00"/>
  </g>
</svg>
