<svg xmlns="http://www.w3.org/2000/svg" width="54.951" height="72.004" viewBox="0 0 54.951 72.004">
  <g id="Group_4959" data-name="Group 4959" transform="translate(13838.513 21550)">
    <path id="Path_5448" data-name="Path 5448" d="M325,197.419l14.815-9.575c-4.468,4.946-6.018,11.731-3.475,21.056l10.142-19.57s-.011,8.337-.059,18.318c-.045,9.457-.275,10.515-.275,10.515l2.918,2.212,2.459-2.011c-.041-3.131-.376-29.031-.376-29.035l10.142,19.57c2.544-9.326,1-16.111-3.473-21.056l14.813,9.575c-.787-9.192-8.538-16.72-15.276-17.85L376.3,181.29c-6.591-7.7-17.133-8.5-21.628-6.757l11.883-9.651c-6.562-.744-14.084,1.7-17.73,7.552-3.646-5.856-11.168-8.3-17.73-7.552l11.883,9.651c-4.5-1.74-15.038-.945-21.629,6.757l18.938-1.721c-6.739,1.131-14.489,8.659-15.277,17.85" transform="translate(-14159.857 -21714.752)" fill="#406c5d"/>
    <path id="Path_5449" data-name="Path 5449" d="M354.128,233.279c-.36.211-.716.407-1.064.582s-.691.33-1.023.46a11.3,11.3,0,0,1-1.348.434,7.411,7.411,0,0,1-2.453.227,5.425,5.425,0,0,1-1.1-.209,9.716,9.716,0,0,1-1.568-.674,71.357,71.357,0,0,1-7.564-4.856q-.755-.535-1.534-1.1c-1.037-.752-2.1-1.537-3.177-2.343-2.149-1.61-4.335-3.3-6.411-4.933q-.778-.614-1.534-1.218l-.011.728c8.315,6.618,18.26,13.938,21.633,14.949a6.3,6.3,0,0,0,1.812.256,9.574,9.574,0,0,0,3.465-.724,14.058,14.058,0,0,0,2.449-1.36Z" transform="translate(-14159.772 -21713.578)" fill="#b18a00"/>
    <path id="Path_5450" data-name="Path 5450" d="M357.187,231.315l.3-.215c.434-.314,1.007-.732,1.579-1.151l.84-.615c.8-.588,1.445-1.06,1.45-1.06a9.441,9.441,0,0,1-3.437-.677c-.333-.131-.65-.273-.946-.42a13.988,13.988,0,0,1-1.526-.891c-.421-.282-.748-.53-.966-.691-6.447-4.752-22.316-16.789-29.127-21.961v6.331c1.389,1.1,3.324,2.621,5.247,4.094l-1.66,2.167c-1.367-1.047-2.591-1.988-3.587-2.753v6.518q.754.6,1.534,1.217c2.077,1.637,4.262,3.324,6.411,4.934,1.073.8,2.14,1.591,3.177,2.343q.778.564,1.534,1.1a71.2,71.2,0,0,0,7.564,4.856,9.736,9.736,0,0,0,1.568.675,5.5,5.5,0,0,0,1.1.208,7.41,7.41,0,0,0,2.453-.227,10.986,10.986,0,0,0,1.348-.434c.332-.13.674-.285,1.023-.46s.7-.371,1.064-.582h0a16.555,16.555,0,0,1-3.8-1.9l1.594-2.085a43.676,43.676,0,0,0,4.825,1.984.347.347,0,0,0,.06-.037c.073-.049.206-.144.383-.271m-14.075-4.332c-2.142-1.6-4.623-3.477-7.1-5.361l1.652-2.174c2.473,1.88,4.949,3.752,7.086,5.347Z" transform="translate(-14159.771 -21713.918)" fill="#626467"/>
    <path id="Path_5451" data-name="Path 5451" d="M359.354,226.444c2.837.651,4.44-.081,5.557-.974l7.482-5.545v-7l-4.328,3.473-1.709-2.129,5.714-4.642.323-.261v-6.98l-22.274,17.854c.007.012,4.523,3.439,4.515,3.437l.086-.069,4.718-3.784,1.709,2.129-4.226,3.4a6.707,6.707,0,0,0,1.292.709,7.457,7.457,0,0,0,1.142.391" transform="translate(-14159.241 -21713.947)" fill="#626467"/>
    <path id="Path_5452" data-name="Path 5452" d="M372.258,219.557l-7.481,5.545c-1.116.894-2.719,1.624-5.557.974a7.364,7.364,0,0,1-1.142-.392,6.7,6.7,0,0,1-1.292-.708l.045-.037-.507.382a8.813,8.813,0,0,0,2.767,1.317,9.638,9.638,0,0,0,2.153.262,5.866,5.866,0,0,0,3.875-1.335l7.138-5.29Z" transform="translate(-14159.108 -21713.578)" fill="#b18a00"/>
    <path id="Path_5453" data-name="Path 5453" d="M371.93,212.692l-.283.236.283-.227Z" transform="translate(-14158.78 -21713.725)" fill="#b18a00"/>
    <path id="Path_5454" data-name="Path 5454" d="M350.136,220.251,372.409,202.4v-.678L349.27,220.265l.547.417c.6.457,3.632,2.741,4.427,3.339l.492-.4-.086.069c.008,0-4.508-3.424-4.515-3.437" transform="translate(-14159.26 -21713.961)" fill="#b18a00"/>
    <path id="Path_5455" data-name="Path 5455" d="M371.931,209.217l-.322.261.322-.251Z" transform="translate(-14158.78 -21713.801)" fill="#b18a00"/>
    <path id="Path_5456" data-name="Path 5456" d="M361.5,227.791a11.921,11.921,0,0,1-6.678-2.644c-6.151-4.535-20.885-15.7-29.12-21.956l-.361-.274.011.733c6.811,5.172,22.679,17.21,29.127,21.961.219.161.545.41.966.692a13.574,13.574,0,0,0,1.526.891c.3.147.613.29.946.42a9.42,9.42,0,0,0,3.437.678c-.005,0-.647.471-1.45,1.06l-.84.615c-.572.419-1.146.837-1.579,1.151l-.3.213c-.178.128-.31.223-.383.271a.474.474,0,0,1-.06.038l.679.247c.584-.437,5.679-4.085,5.679-4.085Z" transform="translate(-14159.772 -21713.936)" fill="#b18a00"/>
  </g>
</svg>
