<svg xmlns="http://www.w3.org/2000/svg" width="1243.093" height="894.725" viewBox="0 0 1243.093 894.725">
  <g id="Group_4958" data-name="Group 4958" transform="translate(-348.849 482.88)">
    <path id="Path_5465" data-name="Path 5465" d="M1077.4,575.76c-9.393,5.524-18.706,10.62-27.805,15.211-9.126,4.563-18.066,8.619-26.738,12.008a294.982,294.982,0,0,1-35.225,11.341c-22.789,5.711-44.217,7.685-64.1,5.924a141.66,141.66,0,0,1-28.686-5.47c-10.942-3.256-24.764-9.286-40.962-17.612-48.646-25.031-118.8-70.955-197.6-126.86q-19.735-13.97-40.082-28.74c-27.085-19.64-54.917-40.161-82.99-61.215-56.145-42.056-113.251-86.113-167.5-128.889q-20.333-16.051-40.082-31.809l-.293,19.026C542.583,411.567,802.388,602.818,890.5,629.236a164.621,164.621,0,0,0,47.339,6.7c27.939,0,58.2-6.3,90.516-18.92,16.945-6.591,44.991-22.229,63.991-35.518Z" transform="translate(23.508 -224.09)" fill="#fff" opacity="0.09"/>
    <path id="Path_5463" data-name="Path 5463" d="M1157.069,926.824c2.322-1.681,4.937-3.549,7.766-5.6,11.341-8.192,26.311-19.133,41.254-30.074,7.472-5.471,14.944-10.941,21.935-16.064,21-15.371,37.76-27.7,37.893-27.7-33.275,0-63.617-7.472-89.794-17.692-8.7-3.416-16.972-7.125-24.71-10.967a365.521,365.521,0,0,1-39.868-23.27c-10.993-7.365-19.533-13.85-25.244-18.066C917.865,653.25,503.287,338.767,325.352,203.634V369.028c36.292,28.713,86.833,68.474,137.082,106.953l-43.363,56.626c-35.705-27.352-67.7-51.929-93.719-71.916V630.968q19.694,15.731,40.082,31.782c54.251,42.776,111.357,86.833,167.5,128.915,28.045,21.027,55.9,41.575,82.99,61.215q20.333,14.73,40.082,28.713c78.8,55.9,148.956,101.856,197.6,126.861,16.2,8.352,30.02,14.356,40.962,17.638a143.537,143.537,0,0,0,28.686,5.444c19.88,1.762,41.308-.214,64.1-5.924a287.1,287.1,0,0,0,35.225-11.341c8.672-3.389,17.612-7.445,26.737-12.008,9.1-4.589,18.413-9.686,27.805-15.21h.027c-32.5-12.115-59.187-23.029-99.375-49.554l41.655-54.464c52.863,24.5,88.008,39.227,126.06,51.822a9.057,9.057,0,0,0,1.574-.96c1.895-1.281,5.39-3.763,10.007-7.071M789.351,813.653c-55.958-41.816-120.777-90.836-185.567-140.07l43.15-56.785c64.6,49.127,129.288,98.014,185.113,139.7Z" transform="translate(23.79 -635.412)" fill="#fff" opacity="0.09"/>
    <path id="Path_5458" data-name="Path 5458" d="M591.4,831c74.131,17,116-2.108,145.166-25.458L932.037,660.672V477.746L818.973,568.475l-44.644-55.611L923.6,391.58l8.432-6.832V202.383L350.118,668.838c.186.32,118.161,89.848,117.947,89.794l2.242-1.814L593.565,657.95l44.644,55.612-110.4,88.7c9.766,7.178,22.1,13.529,33.756,18.519A194.812,194.812,0,0,0,591.4,831" transform="translate(659.905 -667.543)" fill="#fff" opacity="0.09"/>
    <path id="Path_5459" data-name="Path 5459" d="M772.584,219.557,577.143,364.43c-29.167,23.35-71.035,42.429-145.166,25.458a192.462,192.462,0,0,1-29.834-10.247c-11.661-4.963-23.99-11.341-33.756-18.492l1.174-.961-13.236,9.98c21.428,16.731,57.4,31.008,72.289,34.4,21.082,4.83,39.708,6.858,56.252,6.858,50.488,0,81.309-18.893,101.243-34.877l186.475-138.2Z" transform="translate(819.332 -226.428)" fill="#fff" opacity="0.09"/>
    <path id="Path_5461" data-name="Path 5461" d="M371.9,685.865,953.792,219.438V201.719L349.27,686.239l14.3,10.887c15.691,11.928,94.892,71.623,115.654,87.234l12.862-10.514-2.242,1.815c.214.08-117.761-89.448-117.947-89.8" transform="translate(638.122 -684.6)" fill="#fff" opacity="0.09"/>
    <path id="Path_5464" data-name="Path 5464" d="M1269.989,852.776c-81.656-.534-150.423-51.315-174.466-69.088C934.825,665.207,549.9,373.46,334.761,210.068l-9.42-7.151.293,19.16C503.569,357.209,918.147,671.692,1086.583,795.83c5.711,4.216,14.25,10.7,25.244,18.066a354.681,354.681,0,0,0,39.868,23.27c7.738,3.842,16.01,7.578,24.71,10.967,26.177,10.247,56.519,17.719,89.794,17.719-.133,0-16.891,12.3-37.893,27.7-6.991,5.124-14.463,10.594-21.935,16.065-14.944,10.941-29.941,21.855-41.254,30.074-2.829,2.028-5.444,3.923-7.766,5.577-4.643,3.336-8.113,5.817-10.007,7.071a12.437,12.437,0,0,1-1.574.988l17.746,6.458c15.264-11.421,148.368-106.713,148.368-106.713Z" transform="translate(23.508 -653.852)" fill="#fff" opacity="0.09"/>
  </g>
</svg>
