<svg width="662" height="538" viewBox="0 0 662 538" fill="none" xmlns="http://www.w3.org/2000/svg">
<mask id="mask0_5_500" style="mask-type:luminance" maskUnits="userSpaceOnUse" x="474" y="202" width="18" height="18">
<path d="M474.62 219.785L485.762 203.371C486.165 202.776 489.166 202.933 491.125 202.704L479.983 219.118C478.025 219.347 475.025 219.191 474.62 219.785Z" fill="white"/>
</mask>
<g mask="url(#mask0_5_500)">
<path d="M491.126 202.704L479.984 219.118C478.025 219.347 475.024 219.191 474.621 219.785L485.763 203.371C486.167 202.776 489.167 202.933 491.126 202.704Z" fill="#C7A432"/>
</g>
<mask id="mask1_5_500" style="mask-type:luminance" maskUnits="userSpaceOnUse" x="71" y="19" width="38" height="51">
<path d="M71.6962 35.6978L82.8383 19.2836C81.4504 21.328 83.8139 24.4298 89.2484 30.6894C95.8301 38.2755 102.435 45.8629 108.477 52.8091L97.3338 69.222C91.2931 62.2758 84.688 54.6884 78.1049 47.1023C72.6717 40.8427 70.3083 37.7422 71.6962 35.6978Z" fill="white"/>
</mask>
<g mask="url(#mask1_5_500)">
<path d="M108.476 52.8079L97.3338 69.2221C91.2932 62.2758 84.688 54.6884 78.105 47.1024C72.6705 40.8428 70.3071 37.741 71.6949 35.6966L82.8371 19.2823C81.4492 21.3268 83.8126 24.4286 89.2471 30.6881C95.8302 38.2742 102.435 45.8616 108.476 52.8079Z" fill="#C7A432"/>
</g>
<mask id="mask2_5_500" style="mask-type:luminance" maskUnits="userSpaceOnUse" x="86" y="60" width="15" height="24">
<path d="M97.6434 67.4871L86.5012 83.9013C87.4794 82.4603 88.252 80.7097 88.8035 78.5859C88.9908 77.8797 89.3212 77.2139 89.7557 76.574L100.898 60.1598C100.463 60.7997 100.133 61.4642 99.9457 62.1717C99.3942 64.2955 98.6215 66.0461 97.6434 67.4871Z" fill="white"/>
</mask>
<g mask="url(#mask2_5_500)">
<path d="M97.6434 67.4871L86.5012 83.9013C87.4794 82.4603 88.252 80.7097 88.8035 78.5859C88.9908 77.8797 89.3212 77.2139 89.7557 76.574L100.898 60.1598C100.463 60.7997 100.133 61.4642 99.9457 62.1717C99.3942 64.2955 98.6215 66.0461 97.6434 67.4871Z" fill="#C7A432"/>
</g>
<mask id="mask3_5_500" style="mask-type:luminance" maskUnits="userSpaceOnUse" x="55" y="80" width="15" height="23">
<path d="M66.6976 85.9951L55.5554 102.409C56.462 101.074 57.2893 99.6079 58.0346 98.0174C58.1842 97.7013 58.3624 97.3931 58.5653 97.0927L69.7075 80.6785C69.5046 80.9789 69.3251 81.2871 69.1768 81.6032C68.4314 83.1937 67.6042 84.6594 66.6976 85.9951Z" fill="white"/>
</mask>
<g mask="url(#mask3_5_500)">
<path d="M66.6976 85.9951L55.5554 102.409C56.462 101.074 57.2893 99.6079 58.0346 98.0174C58.1842 97.7013 58.3624 97.3931 58.5653 97.0927L69.7075 80.6785C69.5046 80.9789 69.3251 81.2871 69.1768 81.6032C68.4314 83.1937 67.6042 84.6594 66.6976 85.9951Z" fill="#C7A432"/>
</g>
<mask id="mask4_5_500" style="mask-type:luminance" maskUnits="userSpaceOnUse" x="0" y="94" width="19" height="56">
<path d="M7.22378 111.002L18.3659 94.5879C17.7351 95.5178 17.2941 96.7273 17.0249 98.2164C15.1947 108.397 13.2488 118.554 11.2691 128.7C10.6473 131.924 12.3422 133.078 15.7306 133.015L4.58848 149.429C1.20006 149.492 -0.494808 148.338 0.126946 145.114C2.10797 134.969 4.05388 124.811 5.88272 114.631C6.15197 113.143 6.59162 111.932 7.22378 111.002Z" fill="white"/>
</mask>
<g mask="url(#mask4_5_500)">
<path d="M15.7306 133.015L4.58848 149.429C1.20006 149.492 -0.494808 148.338 0.126946 145.114C2.10797 134.969 4.05388 124.811 5.88272 114.631C6.15197 113.142 6.59162 111.932 7.22378 111.002L18.3659 94.5879C17.7351 95.5178 17.2941 96.7273 17.0249 98.2164C15.1947 108.397 13.2488 118.554 11.2691 128.7C10.646 131.924 12.3422 133.079 15.7306 133.015Z" fill="#C7A432"/>
</g>
<mask id="mask5_5_500" style="mask-type:luminance" maskUnits="userSpaceOnUse" x="4" y="132" width="69" height="85">
<path d="M72.6223 199.773L61.4801 216.188C53.5586 215.041 52.6117 207.819 49.7696 202.049C46.4813 195.38 43.6834 188.287 35.8478 184.989C34.6901 184.501 33.1032 182.662 33.2437 181.735C34.7304 172.275 27.3435 166.707 22.7844 159.946C18.9472 154.24 14.6262 149.298 7.42659 149.223C6.52648 149.213 5.58214 149.28 4.58838 149.431L15.7305 133.016C16.7243 132.866 17.6699 132.799 18.5687 132.808C25.7683 132.884 30.0894 137.826 33.9266 143.531C38.4857 150.293 45.8726 155.861 44.3858 165.321C44.2453 166.248 45.8309 168.087 46.9899 168.575C54.8269 171.873 57.6235 178.966 60.9117 185.635C63.7538 191.406 64.7008 198.626 72.6223 199.773Z" fill="white"/>
</mask>
<g mask="url(#mask5_5_500)">
<path d="M72.6223 199.773L61.4801 216.188C53.5586 215.041 52.6117 207.819 49.7696 202.049C46.4813 195.38 43.6834 188.287 35.8478 184.989C34.6901 184.501 33.1032 182.662 33.2437 181.735C34.7304 172.275 27.3435 166.707 22.7844 159.946C18.9472 154.24 14.6262 149.298 7.42659 149.223C6.52648 149.213 5.58214 149.28 4.58838 149.431L15.7305 133.016C16.7243 132.866 17.6699 132.799 18.5687 132.808C25.7683 132.884 30.0894 137.826 33.9266 143.531C38.4857 150.293 45.8726 155.861 44.3858 165.321C44.2453 166.248 45.8309 168.087 46.9899 168.575C54.8269 171.873 57.6235 178.966 60.9117 185.635C63.7538 191.406 64.7008 198.626 72.6223 199.773Z" fill="#C7A432"/>
</g>
<mask id="mask6_5_500" style="mask-type:luminance" maskUnits="userSpaceOnUse" x="422" y="405" width="224" height="84">
<path d="M645.219 405.294L634.076 421.708C632.891 423.455 631.081 425.024 629.334 425.623C605.552 433.817 581.811 442.138 557.685 449.38C530.31 457.606 502.255 463.854 473.158 464.431C455.679 464.768 441.965 472.865 428.866 481.75C426.444 483.392 424.501 485.7 422.753 488.275L433.895 471.861C435.643 469.286 437.587 466.978 440.009 465.335C453.107 456.45 466.821 448.352 484.3 448.016C513.396 447.438 541.452 441.19 568.827 432.964C592.953 425.723 616.695 417.403 640.476 409.207C642.223 408.61 644.034 407.039 645.219 405.294Z" fill="white"/>
</mask>
<g mask="url(#mask6_5_500)">
<path d="M645.219 405.294L634.076 421.708C632.891 423.455 631.081 425.024 629.334 425.623C605.552 433.817 581.811 442.138 557.685 449.38C530.31 457.606 502.255 463.854 473.158 464.431C455.679 464.768 441.965 472.865 428.866 481.75C426.444 483.392 424.501 485.7 422.753 488.275L433.895 471.861C435.643 469.286 437.587 466.977 440.009 465.336C453.107 456.451 466.821 448.354 484.3 448.017C513.396 447.439 541.452 441.192 568.827 432.966C592.953 425.724 616.695 417.405 640.476 409.208C642.223 408.61 644.034 407.039 645.219 405.294Z" fill="#C7A432"/>
</g>
<mask id="mask7_5_500" style="mask-type:luminance" maskUnits="userSpaceOnUse" x="414" y="482" width="14" height="19">
<path d="M427.148 482.823L416.006 499.238C415.936 499.34 415.867 499.443 415.795 499.544C415.487 499.992 415.181 500.442 414.876 500.891L426.018 484.476C426.324 484.026 426.629 483.578 426.937 483.13C427.009 483.028 427.078 482.926 427.148 482.823Z" fill="white"/>
</mask>
<g mask="url(#mask7_5_500)">
<path d="M427.148 482.823L416.006 499.238C415.936 499.34 415.867 499.443 415.795 499.544C415.487 499.992 415.181 500.442 414.876 500.891L426.018 484.476C426.324 484.026 426.629 483.578 426.937 483.13C427.009 483.028 427.078 482.926 427.148 482.823Z" fill="#C7A432"/>
</g>
<mask id="mask8_5_500" style="mask-type:luminance" maskUnits="userSpaceOnUse" x="306" y="488" width="111" height="33">
<path d="M416.641 498.565L405.499 514.979C402.858 518.851 399.973 520.664 396.81 520.63C393.949 520.6 390.861 519.062 387.52 516.171C384.489 513.534 379.614 512.204 375.472 511.753C372.443 511.433 369.403 511.333 366.358 511.3C364.975 511.286 363.59 511.285 362.205 511.285C360.794 511.287 359.38 511.288 357.966 511.274C356.552 511.26 355.139 511.227 353.732 511.162C351.008 511.043 347.811 510.896 345.631 509.492C340.108 505.965 334.396 505.124 328.635 505.063C326.255 505.038 323.868 505.146 321.48 505.253C319.089 505.362 316.7 505.472 314.323 505.448C311.714 505.42 309.119 505.23 306.55 504.7L317.692 488.286C320.261 488.816 322.856 489.006 325.465 489.033C327.842 489.058 330.231 488.949 332.622 488.838C335.01 488.732 337.397 488.622 339.777 488.648C345.538 488.71 351.25 489.551 356.773 493.078C358.954 494.483 362.151 494.63 364.874 494.748C366.281 494.814 367.694 494.846 369.108 494.86C370.522 494.874 371.936 494.873 373.347 494.87C374.732 494.87 376.118 494.872 377.5 494.886C380.545 494.918 383.584 495.019 386.614 495.338C390.756 495.79 395.63 497.12 398.662 499.756C402.004 502.646 405.092 504.185 407.952 504.216C411.115 504.25 414 502.437 416.641 498.565Z" fill="white"/>
</mask>
<g mask="url(#mask8_5_500)">
<path d="M416.641 498.565L405.499 514.979C402.858 518.851 399.973 520.664 396.81 520.63C393.949 520.6 390.861 519.062 387.52 516.171C384.489 513.534 379.614 512.204 375.472 511.753C372.443 511.433 369.403 511.333 366.358 511.3C364.975 511.286 363.59 511.285 362.205 511.285C360.794 511.287 359.38 511.288 357.966 511.274C356.552 511.26 355.139 511.227 353.732 511.162C351.008 511.043 347.811 510.896 345.631 509.492C340.108 505.965 334.396 505.124 328.635 505.063C326.255 505.038 323.868 505.146 321.48 505.253C319.089 505.362 316.7 505.472 314.323 505.448C311.714 505.42 309.119 505.23 306.55 504.7L317.692 488.286C320.261 488.816 322.856 489.006 325.465 489.033C327.842 489.058 330.231 488.949 332.622 488.838C335.01 488.732 337.397 488.622 339.777 488.648C345.538 488.71 351.25 489.551 356.773 493.078C358.954 494.483 362.151 494.63 364.874 494.748C366.281 494.814 367.694 494.846 369.108 494.86C370.522 494.874 371.936 494.873 373.347 494.87C374.732 494.87 376.118 494.872 377.5 494.886C380.545 494.918 383.584 495.019 386.614 495.338C390.756 495.79 395.63 497.12 398.662 499.756C402.004 502.646 405.092 504.185 407.952 504.216C411.115 504.25 414 502.437 416.641 498.565Z" fill="#C7A432"/>
</g>
<mask id="mask9_5_500" style="mask-type:luminance" maskUnits="userSpaceOnUse" x="279" y="484" width="39" height="25">
<path d="M317.692 488.287L306.55 504.701C303.478 507.428 301.103 508.352 298.774 508.327C294.37 508.28 290.127 504.849 285.797 503.034C283.831 502.209 281.803 501.532 279 500.494L290.142 484.08C292.944 485.116 294.973 485.795 296.939 486.62C301.269 488.435 305.512 491.867 309.916 491.913C312.245 491.937 314.62 491.014 317.692 488.287Z" fill="white"/>
</mask>
<g mask="url(#mask9_5_500)">
<path d="M317.692 488.287L306.55 504.701C303.478 507.428 301.103 508.352 298.774 508.327C294.37 508.28 290.127 504.849 285.797 503.034C283.831 502.209 281.803 501.532 279 500.494L290.142 484.08C292.944 485.116 294.973 485.795 296.939 486.62C301.269 488.435 305.512 491.867 309.916 491.913C312.245 491.937 314.62 491.014 317.692 488.287Z" fill="#C7A432"/>
</g>
<mask id="mask10_5_500" style="mask-type:luminance" maskUnits="userSpaceOnUse" x="61" y="199" width="215" height="340">
<path d="M275.002 521.586L263.86 538C263.138 536.792 262.036 535.615 261.724 534.299C259.907 526.57 254.651 520.617 250.955 513.865C243.812 500.827 230.087 493.923 222.629 481.744C218.556 475.089 215.67 467.723 212.707 460.515C210.299 454.648 210.189 446.959 206.117 442.932C200.792 437.645 196.094 432.501 192.294 426.077C190.003 422.203 185.718 419.294 182.029 416.322C179.573 414.338 176.756 412.202 173.828 411.504C166.484 409.751 161.809 405.276 157.908 399.235C154.667 394.22 150.554 389.692 147.493 384.577C145.754 381.672 145.097 378.065 144.414 374.707C143.713 371.167 144.482 367.168 142.99 364.051C139.741 357.213 139.609 350.532 141.422 343.816C143.234 337.053 142.09 331.369 137.087 325.769C134.579 322.957 132.653 318.963 132.097 315.335C130.336 303.633 123.842 294.927 114.214 288.542C102.887 281.019 91.0383 274.385 82.5796 263.281C80.0419 259.949 78.7606 257.251 79.835 253.086C82.5536 242.63 75.8834 230.583 65.9301 225.1C63.4158 223.715 62.3271 219.651 61.479 216.189L72.6211 199.775C73.4692 203.237 74.5579 207.301 77.0723 208.686C87.0255 214.168 93.6957 226.216 90.9772 236.671C89.9028 240.837 91.1853 243.534 93.7218 246.866C102.179 257.97 114.029 264.604 125.356 272.128C134.984 278.513 141.478 287.218 143.24 298.921C143.794 302.549 145.721 306.543 148.229 309.355C153.232 314.955 154.378 320.639 152.565 327.401C150.75 334.119 150.883 340.8 154.132 347.637C155.624 350.754 154.855 354.753 155.556 358.293C156.239 361.651 156.897 365.259 158.635 368.163C161.696 373.278 165.809 377.805 169.05 382.82C172.951 388.861 177.626 393.337 184.97 395.09C187.898 395.788 190.715 397.924 193.171 399.908C196.86 402.879 201.145 405.788 203.437 409.662C207.236 416.087 211.933 421.231 217.26 426.517C221.331 430.545 221.441 438.233 223.849 444.101C226.811 451.31 229.699 458.676 233.771 465.33C241.23 477.511 254.955 484.414 262.097 497.451C265.793 504.203 271.049 510.157 272.866 517.885C273.178 519.201 274.28 520.378 275.002 521.586Z" fill="white"/>
</mask>
<g mask="url(#mask10_5_500)">
<path d="M275.002 521.586L263.86 538C263.138 536.792 262.036 535.615 261.724 534.299C259.907 526.57 254.651 520.617 250.955 513.865C243.812 500.827 230.087 493.923 222.629 481.744C218.556 475.089 215.67 467.723 212.707 460.515C210.299 454.648 210.189 446.959 206.117 442.932C200.792 437.645 196.094 432.501 192.294 426.077C190.003 422.203 185.718 419.294 182.029 416.322C179.573 414.338 176.756 412.202 173.828 411.504C166.484 409.751 161.809 405.276 157.908 399.235C154.667 394.22 150.554 389.692 147.493 384.577C145.754 381.672 145.097 378.065 144.414 374.707C143.713 371.167 144.482 367.168 142.99 364.051C139.741 357.213 139.609 350.532 141.422 343.816C143.234 337.053 142.09 331.369 137.087 325.769C134.579 322.957 132.653 318.963 132.097 315.335C130.336 303.633 123.842 294.927 114.214 288.542C102.887 281.019 91.0383 274.385 82.5796 263.281C80.0419 259.949 78.7606 257.251 79.835 253.086C82.5536 242.63 75.8834 230.583 65.9301 225.1C63.4158 223.715 62.3271 219.651 61.479 216.189L72.6211 199.775C73.4692 203.237 74.5579 207.301 77.0723 208.686C87.0255 214.168 93.6957 226.216 90.9772 236.671C89.9028 240.837 91.1853 243.534 93.7218 246.866C102.179 257.97 114.029 264.604 125.356 272.128C134.984 278.513 141.478 287.218 143.24 298.921C143.794 302.549 145.721 306.543 148.229 309.355C153.232 314.955 154.378 320.639 152.565 327.401C150.75 334.119 150.883 340.8 154.132 347.637C155.624 350.754 154.855 354.753 155.556 358.293C156.239 361.651 156.897 365.259 158.635 368.163C161.696 373.278 165.809 377.805 169.05 382.82C172.951 388.861 177.626 393.337 184.97 395.09C187.898 395.788 190.715 397.924 193.171 399.908C196.86 402.879 201.145 405.788 203.437 409.662C207.236 416.087 211.933 421.231 217.26 426.517C221.331 430.545 221.441 438.233 223.849 444.101C226.811 451.31 229.699 458.676 233.771 465.33C241.23 477.511 254.955 484.414 262.097 497.451C265.793 504.203 271.049 510.157 272.866 517.885C273.178 519.201 274.28 520.378 275.002 521.586Z" fill="#C7A432"/>
</g>
<mask id="mask11_5_500" style="mask-type:luminance" maskUnits="userSpaceOnUse" x="263" y="514" width="22" height="25">
<path d="M284.318 514.581L273.176 530.996C271.213 533.887 268.198 536.212 263.86 538L275.002 521.586C279.34 519.798 282.355 517.473 284.318 514.581Z" fill="white"/>
</mask>
<g mask="url(#mask11_5_500)">
<path d="M284.318 514.581L273.176 530.996C271.213 533.887 268.198 536.212 263.86 538L275.002 521.586C279.34 519.798 282.355 517.473 284.318 514.581Z" fill="#C7A432"/>
</g>
<path d="M149.625 0.000302484C156.788 0.571243 163.346 1.94202 169.946 2.52076C177.621 3.19054 184.214 6.21432 191.005 9.91958C231.666 32.0952 268.735 59.5198 304.967 88.0669C314.71 95.7323 324.658 99.1306 336.71 99.7783C356.312 100.823 375.898 103.36 395.493 105.208C402.511 105.87 407.104 109.021 408.648 116.203C409.53 120.324 411.63 122.859 415.423 122.898C416.318 122.907 417.308 122.778 418.398 122.498C420.797 121.889 423.483 122.279 426.007 121.966C426.663 121.888 427.287 121.851 427.882 121.856C431.716 121.897 434.298 123.734 436.011 127.89C437.107 130.527 439.613 132.637 441.313 135.089C443.376 138.055 446.442 141.008 446.993 144.218C447.882 149.458 450.914 151.799 455.184 153.95C457.19 154.967 459.997 156.785 460.277 158.486C461.347 164.996 466.251 167.131 471.225 169.956C478.268 173.959 484.77 177.966 487.159 187.218C488.481 192.349 492.812 196.889 491.128 202.701C489.085 202.94 485.91 202.76 485.727 203.448C485.272 205.242 486.098 207.414 486.468 209.433C497.503 218.447 501.442 229.843 505.842 241.2C508.616 248.361 513.479 252.957 520.765 253.033C522.235 253.049 523.802 252.881 525.471 252.512C527.88 252.374 528.59 252.431 529.282 252.439C529.613 256.246 528.917 259.714 528.221 263.183C528.788 262.918 529.343 262.651 529.91 262.397C532.782 265.088 535.98 267.522 538.459 270.514C547.124 280.976 555.285 291.839 564.197 302.087C566.79 305.07 571.049 307.549 574.895 308.45C595.401 313.24 616.005 317.543 636.618 321.767C640.281 321.97 642.297 321.505 643.676 320.619C644.987 319.775 646.035 319.416 646.95 319.426C648.785 319.446 650.079 320.944 651.881 322.959C662.127 334.456 664.749 346.053 659.03 360.303C653.522 374.022 650.752 388.881 646.321 403.087C645.545 405.569 642.947 408.36 640.477 409.207C616.696 417.402 592.955 425.723 568.829 432.964C541.453 441.19 513.399 447.438 484.301 448.015C466.822 448.352 453.108 456.45 440.01 465.335C434.203 469.27 431.148 477.038 426.937 483.13C423.431 488.234 420.112 493.451 416.639 498.565C413.999 502.437 411.114 504.25 407.95 504.216C405.09 504.186 402.002 502.647 398.661 499.756C395.63 497.12 390.755 495.79 386.613 495.338C383.584 495.019 380.544 494.918 377.499 494.886C376.116 494.872 374.731 494.87 373.346 494.87C371.934 494.873 370.52 494.874 369.106 494.86C367.693 494.846 366.28 494.813 364.873 494.748C362.149 494.628 358.952 494.481 356.772 493.078C351.249 489.551 345.537 488.71 339.776 488.648C337.396 488.624 335.009 488.732 332.621 488.838C330.23 488.948 327.84 489.058 325.464 489.033C322.855 489.006 320.26 488.816 317.691 488.286C314.618 491.013 312.243 491.936 309.915 491.911C305.511 491.865 301.268 488.434 296.938 486.618C294.972 485.794 292.944 485.116 290.141 484.078C289.104 490.928 287.438 497.272 287.321 503.724C287.19 512.066 283.836 517.941 275.001 521.583C274.279 520.375 273.177 519.198 272.865 517.882C271.048 510.153 265.791 504.2 262.096 497.448C254.952 484.41 241.228 477.507 233.77 465.327C229.697 458.672 226.811 451.306 223.848 444.098C221.44 438.231 221.329 430.543 217.258 426.515C211.933 421.228 207.235 416.084 203.435 409.66C201.143 405.787 196.859 402.877 193.17 399.906C190.714 397.921 187.896 395.785 184.968 395.087C177.625 393.334 172.95 388.859 169.049 382.818C165.807 377.803 161.694 373.276 158.634 368.161C156.895 365.255 156.238 361.649 155.555 358.291C154.854 354.751 155.622 350.751 154.131 347.634C150.881 340.796 150.75 334.115 152.563 327.399C154.375 320.636 153.23 314.953 148.228 309.352C145.72 306.541 143.794 302.547 143.238 298.918C141.477 287.216 134.982 278.51 125.354 272.125C114.027 264.602 102.179 257.968 93.7203 246.864C91.1825 243.532 89.9013 240.834 90.9757 236.669C93.6943 226.214 87.0241 214.167 77.0708 208.683C74.5565 207.298 73.4677 203.234 72.6197 199.772C64.6982 198.625 63.7512 191.403 60.9091 185.634C57.6208 178.965 54.8229 171.872 46.9873 168.573C45.8296 168.086 44.2427 166.247 44.3832 165.319C45.8699 155.859 38.483 150.292 33.9239 143.53C30.0868 137.824 25.7657 132.882 18.5661 132.807C17.666 132.798 16.7217 132.864 15.7279 133.015C12.3395 133.078 10.6446 131.924 11.2664 128.7C13.2474 118.554 15.1933 108.397 17.0221 98.2163C17.744 94.2211 19.6977 92.2364 23.267 92.2741C23.9369 92.2806 24.664 92.36 25.4509 92.5095C31.1352 93.5877 36.8688 94.4291 42.5726 95.4293C44.3598 95.7401 46.0794 95.9027 47.7261 95.9209C57.4908 96.0236 64.7632 91.0204 69.174 81.6031C70.3421 79.1243 73.3143 77.141 75.9652 75.8664C78.7071 74.5373 81.9954 74.0275 85.1406 73.688C92.6472 72.8726 97.8644 70.1765 99.943 62.1717C100.859 58.7174 105.185 56.2607 108.473 52.8077C102.433 45.8615 95.8275 38.2741 89.2444 30.688C79.3354 19.2744 79.6371 18.3601 94.2744 15.2089C105.401 12.812 116.619 10.7233 127.615 7.88422C132.958 6.50304 137.835 3.61062 143.018 1.61558C145.106 0.823549 147.421 -0.0218068 149.625 0.000302484Z" fill="#3E7862" fill-opacity="0.7"/>
</svg>
