<svg width="662" height="538" viewBox="0 0 662 538" fill="none" xmlns="http://www.w3.org/2000/svg">
<g clip-path="url(#clip0_83_81)">
<rect width="662" height="538" fill="#F9F5E9"/>
<mask id="mask0_83_81" style="mask-type:luminance" maskUnits="userSpaceOnUse" x="474" y="202" width="18" height="18">
<path d="M474.62 219.785L485.762 203.371C486.165 202.776 489.166 202.933 491.125 202.704L479.983 219.118C478.025 219.347 475.025 219.191 474.62 219.785Z" fill="white"/>
</mask>
<g mask="url(#mask0_83_81)">
<path d="M491.126 202.704L479.984 219.118C478.025 219.347 475.024 219.191 474.621 219.785L485.763 203.371C486.167 202.776 489.167 202.933 491.126 202.704Z" fill="#C7A432"/>
</g>
<mask id="mask1_83_81" style="mask-type:luminance" maskUnits="userSpaceOnUse" x="71" y="19" width="38" height="51">
<path d="M71.6962 35.6978L82.8383 19.2836C81.4504 21.328 83.8139 24.4298 89.2484 30.6894C95.8301 38.2755 102.435 45.8629 108.477 52.8091L97.3338 69.222C91.2931 62.2758 84.688 54.6884 78.1049 47.1023C72.6717 40.8427 70.3083 37.7422 71.6962 35.6978Z" fill="white"/>
</mask>
<g mask="url(#mask1_83_81)">
<path d="M108.476 52.8079L97.3338 69.2221C91.2932 62.2758 84.688 54.6884 78.105 47.1024C72.6705 40.8428 70.3071 37.741 71.6949 35.6966L82.8371 19.2823C81.4492 21.3268 83.8126 24.4286 89.2471 30.6881C95.8302 38.2742 102.435 45.8616 108.476 52.8079Z" fill="#C7A432"/>
</g>
<mask id="mask2_83_81" style="mask-type:luminance" maskUnits="userSpaceOnUse" x="86" y="60" width="15" height="24">
<path d="M97.6434 67.4871L86.5012 83.9013C87.4794 82.4603 88.252 80.7097 88.8035 78.5859C88.9908 77.8797 89.3212 77.2139 89.7557 76.574L100.898 60.1598C100.463 60.7997 100.133 61.4642 99.9457 62.1717C99.3942 64.2955 98.6215 66.0461 97.6434 67.4871Z" fill="white"/>
</mask>
<g mask="url(#mask2_83_81)">
<path d="M97.6434 67.4871L86.5012 83.9013C87.4794 82.4603 88.252 80.7097 88.8035 78.5859C88.9908 77.8797 89.3212 77.2139 89.7557 76.574L100.898 60.1598C100.463 60.7997 100.133 61.4642 99.9457 62.1717C99.3942 64.2955 98.6215 66.0461 97.6434 67.4871Z" fill="#C7A432"/>
</g>
<mask id="mask3_83_81" style="mask-type:luminance" maskUnits="userSpaceOnUse" x="55" y="80" width="15" height="23">
<path d="M66.6976 85.9951L55.5554 102.409C56.462 101.074 57.2893 99.6079 58.0346 98.0174C58.1842 97.7013 58.3624 97.3931 58.5653 97.0927L69.7075 80.6785C69.5046 80.9789 69.3251 81.2871 69.1768 81.6032C68.4314 83.1937 67.6042 84.6594 66.6976 85.9951Z" fill="white"/>
</mask>
<g mask="url(#mask3_83_81)">
<path d="M66.6976 85.9951L55.5554 102.409C56.462 101.074 57.2893 99.6079 58.0346 98.0174C58.1842 97.7013 58.3624 97.3931 58.5653 97.0927L69.7075 80.6785C69.5046 80.9789 69.3251 81.2871 69.1768 81.6032C68.4314 83.1937 67.6042 84.6594 66.6976 85.9951Z" fill="#C7A432"/>
</g>
<mask id="mask4_83_81" style="mask-type:luminance" maskUnits="userSpaceOnUse" x="0" y="94" width="19" height="56">
<path d="M7.22378 111.002L18.3659 94.5879C17.7351 95.5178 17.2941 96.7273 17.0249 98.2164C15.1947 108.397 13.2488 118.554 11.2691 128.7C10.6473 131.924 12.3422 133.078 15.7306 133.015L4.58848 149.429C1.20006 149.492 -0.494808 148.338 0.126946 145.114C2.10797 134.969 4.05388 124.811 5.88272 114.631C6.15197 113.143 6.59162 111.932 7.22378 111.002Z" fill="white"/>
</mask>
<g mask="url(#mask4_83_81)">
<path d="M15.7306 133.015L4.58848 149.429C1.20006 149.492 -0.494808 148.338 0.126946 145.114C2.10797 134.969 4.05388 124.811 5.88272 114.631C6.15197 113.142 6.59162 111.932 7.22378 111.002L18.3659 94.5879C17.7351 95.5178 17.2941 96.7273 17.0249 98.2164C15.1947 108.397 13.2488 118.554 11.2691 128.7C10.646 131.924 12.3422 133.079 15.7306 133.015Z" fill="#C7A432"/>
</g>
<mask id="mask5_83_81" style="mask-type:luminance" maskUnits="userSpaceOnUse" x="4" y="132" width="69" height="85">
<path d="M72.6223 199.773L61.4801 216.188C53.5586 215.041 52.6117 207.819 49.7696 202.049C46.4813 195.38 43.6834 188.287 35.8478 184.989C34.6901 184.501 33.1032 182.662 33.2437 181.735C34.7304 172.275 27.3435 166.707 22.7844 159.946C18.9472 154.24 14.6262 149.298 7.42659 149.223C6.52648 149.213 5.58214 149.28 4.58838 149.431L15.7305 133.016C16.7243 132.866 17.6699 132.799 18.5687 132.808C25.7683 132.884 30.0894 137.826 33.9266 143.531C38.4857 150.293 45.8726 155.861 44.3858 165.321C44.2453 166.248 45.8309 168.087 46.9899 168.575C54.8269 171.873 57.6235 178.966 60.9117 185.635C63.7538 191.406 64.7008 198.626 72.6223 199.773Z" fill="white"/>
</mask>
<g mask="url(#mask5_83_81)">
<path d="M72.6223 199.773L61.4801 216.188C53.5586 215.041 52.6117 207.819 49.7696 202.049C46.4813 195.38 43.6834 188.287 35.8478 184.989C34.6901 184.501 33.1032 182.662 33.2437 181.735C34.7304 172.275 27.3435 166.707 22.7844 159.946C18.9472 154.24 14.6262 149.298 7.42659 149.223C6.52648 149.213 5.58214 149.28 4.58838 149.431L15.7305 133.016C16.7243 132.866 17.6699 132.799 18.5687 132.808C25.7683 132.884 30.0894 137.826 33.9266 143.531C38.4857 150.293 45.8726 155.861 44.3858 165.321C44.2453 166.248 45.8309 168.087 46.9899 168.575C54.8269 171.873 57.6235 178.966 60.9117 185.635C63.7538 191.406 64.7008 198.626 72.6223 199.773Z" fill="#C7A432"/>
</g>
<mask id="mask6_83_81" style="mask-type:luminance" maskUnits="userSpaceOnUse" x="422" y="405" width="224" height="84">
<path d="M645.219 405.294L634.076 421.708C632.891 423.455 631.081 425.024 629.334 425.623C605.552 433.817 581.811 442.138 557.685 449.38C530.31 457.606 502.255 463.854 473.158 464.431C455.679 464.768 441.965 472.865 428.866 481.75C426.444 483.392 424.501 485.7 422.753 488.275L433.895 471.861C435.643 469.286 437.587 466.978 440.009 465.335C453.107 456.45 466.821 448.352 484.3 448.016C513.396 447.438 541.452 441.19 568.827 432.964C592.953 425.723 616.695 417.403 640.476 409.207C642.223 408.61 644.034 407.039 645.219 405.294Z" fill="white"/>
</mask>
<g mask="url(#mask6_83_81)">
<path d="M645.219 405.294L634.076 421.708C632.891 423.455 631.081 425.024 629.334 425.623C605.552 433.817 581.811 442.138 557.685 449.38C530.31 457.606 502.255 463.854 473.158 464.431C455.679 464.768 441.965 472.865 428.866 481.75C426.444 483.392 424.501 485.7 422.753 488.275L433.895 471.861C435.643 469.286 437.587 466.977 440.009 465.336C453.107 456.451 466.821 448.354 484.3 448.017C513.396 447.439 541.452 441.192 568.827 432.966C592.953 425.724 616.695 417.405 640.476 409.208C642.223 408.61 644.034 407.039 645.219 405.294Z" fill="#C7A432"/>
</g>
<mask id="mask7_83_81" style="mask-type:luminance" maskUnits="userSpaceOnUse" x="414" y="482" width="14" height="19">
<path d="M427.148 482.823L416.006 499.238C415.936 499.34 415.867 499.443 415.795 499.544C415.487 499.992 415.181 500.442 414.876 500.891L426.018 484.476C426.324 484.026 426.629 483.578 426.937 483.13C427.009 483.028 427.078 482.926 427.148 482.823Z" fill="white"/>
</mask>
<g mask="url(#mask7_83_81)">
<path d="M427.148 482.823L416.006 499.238C415.936 499.34 415.867 499.443 415.795 499.544C415.487 499.992 415.181 500.442 414.876 500.891L426.018 484.476C426.324 484.026 426.629 483.578 426.937 483.13C427.009 483.028 427.078 482.926 427.148 482.823Z" fill="#C7A432"/>
</g>
<mask id="mask8_83_81" style="mask-type:luminance" maskUnits="userSpaceOnUse" x="306" y="488" width="111" height="33">
<path d="M416.641 498.565L405.499 514.979C402.858 518.851 399.973 520.664 396.81 520.63C393.949 520.6 390.861 519.062 387.52 516.171C384.489 513.534 379.614 512.204 375.472 511.753C372.443 511.433 369.403 511.333 366.358 511.3C364.975 511.286 363.59 511.285 362.205 511.285C360.794 511.287 359.38 511.288 357.966 511.274C356.552 511.26 355.139 511.227 353.732 511.162C351.008 511.043 347.811 510.896 345.631 509.492C340.108 505.965 334.396 505.124 328.635 505.063C326.255 505.038 323.868 505.146 321.48 505.253C319.089 505.362 316.7 505.472 314.323 505.448C311.714 505.42 309.119 505.23 306.55 504.7L317.692 488.286C320.261 488.816 322.856 489.006 325.465 489.033C327.842 489.058 330.231 488.949 332.622 488.838C335.01 488.732 337.397 488.622 339.777 488.648C345.538 488.71 351.25 489.551 356.773 493.078C358.954 494.483 362.151 494.63 364.874 494.748C366.281 494.814 367.694 494.846 369.108 494.86C370.522 494.874 371.936 494.873 373.347 494.87C374.732 494.87 376.118 494.872 377.5 494.886C380.545 494.918 383.584 495.019 386.614 495.338C390.756 495.79 395.63 497.12 398.662 499.756C402.004 502.646 405.092 504.185 407.952 504.216C411.115 504.25 414 502.437 416.641 498.565Z" fill="white"/>
</mask>
<g mask="url(#mask8_83_81)">
<path d="M416.641 498.565L405.499 514.979C402.858 518.851 399.973 520.664 396.81 520.63C393.949 520.6 390.861 519.062 387.52 516.171C384.489 513.534 379.614 512.204 375.472 511.753C372.443 511.433 369.403 511.333 366.358 511.3C364.975 511.286 363.59 511.285 362.205 511.285C360.794 511.287 359.38 511.288 357.966 511.274C356.552 511.26 355.139 511.227 353.732 511.162C351.008 511.043 347.811 510.896 345.631 509.492C340.108 505.965 334.396 505.124 328.635 505.063C326.255 505.038 323.868 505.146 321.48 505.253C319.089 505.362 316.7 505.472 314.323 505.448C311.714 505.42 309.119 505.23 306.55 504.7L317.692 488.286C320.261 488.816 322.856 489.006 325.465 489.033C327.842 489.058 330.231 488.949 332.622 488.838C335.01 488.732 337.397 488.622 339.777 488.648C345.538 488.71 351.25 489.551 356.773 493.078C358.954 494.483 362.151 494.63 364.874 494.748C366.281 494.814 367.694 494.846 369.108 494.86C370.522 494.874 371.936 494.873 373.347 494.87C374.732 494.87 376.118 494.872 377.5 494.886C380.545 494.918 383.584 495.019 386.614 495.338C390.756 495.79 395.63 497.12 398.662 499.756C402.004 502.646 405.092 504.185 407.952 504.216C411.115 504.25 414 502.437 416.641 498.565Z" fill="#C7A432"/>
</g>
<mask id="mask9_83_81" style="mask-type:luminance" maskUnits="userSpaceOnUse" x="279" y="484" width="39" height="25">
<path d="M317.692 488.287L306.55 504.701C303.478 507.428 301.103 508.352 298.774 508.327C294.37 508.28 290.127 504.849 285.797 503.034C283.831 502.209 281.803 501.532 279 500.494L290.142 484.08C292.944 485.116 294.973 485.795 296.939 486.62C301.269 488.435 305.512 491.867 309.916 491.913C312.245 491.937 314.62 491.014 317.692 488.287Z" fill="white"/>
</mask>
<g mask="url(#mask9_83_81)">
<path d="M317.692 488.287L306.55 504.701C303.478 507.428 301.103 508.352 298.774 508.327C294.37 508.28 290.127 504.849 285.797 503.034C283.831 502.209 281.803 501.532 279 500.494L290.142 484.08C292.944 485.116 294.973 485.795 296.939 486.62C301.269 488.435 305.512 491.867 309.916 491.913C312.245 491.937 314.62 491.014 317.692 488.287Z" fill="#C7A432"/>
</g>
<mask id="mask10_83_81" style="mask-type:luminance" maskUnits="userSpaceOnUse" x="61" y="199" width="215" height="340">
<path d="M275.002 521.586L263.86 538C263.138 536.792 262.036 535.615 261.724 534.299C259.907 526.57 254.651 520.617 250.955 513.865C243.812 500.827 230.087 493.923 222.629 481.744C218.556 475.089 215.67 467.723 212.707 460.515C210.299 454.648 210.189 446.959 206.117 442.932C200.792 437.645 196.094 432.501 192.294 426.077C190.003 422.203 185.718 419.294 182.029 416.322C179.573 414.338 176.756 412.202 173.828 411.504C166.484 409.751 161.809 405.276 157.908 399.235C154.667 394.22 150.554 389.692 147.493 384.577C145.754 381.672 145.097 378.065 144.414 374.707C143.713 371.167 144.482 367.168 142.99 364.051C139.741 357.213 139.609 350.532 141.422 343.816C143.234 337.053 142.09 331.369 137.087 325.769C134.579 322.957 132.653 318.963 132.097 315.335C130.336 303.633 123.842 294.927 114.214 288.542C102.887 281.019 91.0383 274.385 82.5796 263.281C80.0419 259.949 78.7606 257.251 79.835 253.086C82.5536 242.63 75.8834 230.583 65.9301 225.1C63.4158 223.715 62.3271 219.651 61.479 216.189L72.6211 199.775C73.4692 203.237 74.5579 207.301 77.0723 208.686C87.0255 214.168 93.6957 226.216 90.9772 236.671C89.9028 240.837 91.1853 243.534 93.7218 246.866C102.179 257.97 114.029 264.604 125.356 272.128C134.984 278.513 141.478 287.218 143.24 298.921C143.794 302.549 145.721 306.543 148.229 309.355C153.232 314.955 154.378 320.639 152.565 327.401C150.75 334.119 150.883 340.8 154.132 347.637C155.624 350.754 154.855 354.753 155.556 358.293C156.239 361.651 156.897 365.259 158.635 368.163C161.696 373.278 165.809 377.805 169.05 382.82C172.951 388.861 177.626 393.337 184.97 395.09C187.898 395.788 190.715 397.924 193.171 399.908C196.86 402.879 201.145 405.788 203.437 409.662C207.236 416.087 211.933 421.231 217.26 426.517C221.331 430.545 221.441 438.233 223.849 444.101C226.811 451.31 229.699 458.676 233.771 465.33C241.23 477.511 254.955 484.414 262.097 497.451C265.793 504.203 271.049 510.157 272.866 517.885C273.178 519.201 274.28 520.378 275.002 521.586Z" fill="white"/>
</mask>
<g mask="url(#mask10_83_81)">
<path d="M275.002 521.586L263.86 538C263.138 536.792 262.036 535.615 261.724 534.299C259.907 526.57 254.651 520.617 250.955 513.865C243.812 500.827 230.087 493.923 222.629 481.744C218.556 475.089 215.67 467.723 212.707 460.515C210.299 454.648 210.189 446.959 206.117 442.932C200.792 437.645 196.094 432.501 192.294 426.077C190.003 422.203 185.718 419.294 182.029 416.322C179.573 414.338 176.756 412.202 173.828 411.504C166.484 409.751 161.809 405.276 157.908 399.235C154.667 394.22 150.554 389.692 147.493 384.577C145.754 381.672 145.097 378.065 144.414 374.707C143.713 371.167 144.482 367.168 142.99 364.051C139.741 357.213 139.609 350.532 141.422 343.816C143.234 337.053 142.09 331.369 137.087 325.769C134.579 322.957 132.653 318.963 132.097 315.335C130.336 303.633 123.842 294.927 114.214 288.542C102.887 281.019 91.0383 274.385 82.5796 263.281C80.0419 259.949 78.7606 257.251 79.835 253.086C82.5536 242.63 75.8834 230.583 65.9301 225.1C63.4158 223.715 62.3271 219.651 61.479 216.189L72.6211 199.775C73.4692 203.237 74.5579 207.301 77.0723 208.686C87.0255 214.168 93.6957 226.216 90.9772 236.671C89.9028 240.837 91.1853 243.534 93.7218 246.866C102.179 257.97 114.029 264.604 125.356 272.128C134.984 278.513 141.478 287.218 143.24 298.921C143.794 302.549 145.721 306.543 148.229 309.355C153.232 314.955 154.378 320.639 152.565 327.401C150.75 334.119 150.883 340.8 154.132 347.637C155.624 350.754 154.855 354.753 155.556 358.293C156.239 361.651 156.897 365.259 158.635 368.163C161.696 373.278 165.809 377.805 169.05 382.82C172.951 388.861 177.626 393.337 184.97 395.09C187.898 395.788 190.715 397.924 193.171 399.908C196.86 402.879 201.145 405.788 203.437 409.662C207.236 416.087 211.933 421.231 217.26 426.517C221.331 430.545 221.441 438.233 223.849 444.101C226.811 451.31 229.699 458.676 233.771 465.33C241.23 477.511 254.955 484.414 262.097 497.451C265.793 504.203 271.049 510.157 272.866 517.885C273.178 519.201 274.28 520.378 275.002 521.586Z" fill="#C7A432"/>
</g>
<mask id="mask11_83_81" style="mask-type:luminance" maskUnits="userSpaceOnUse" x="263" y="514" width="22" height="25">
<path d="M284.318 514.581L273.176 530.996C271.213 533.887 268.198 536.212 263.86 538L275.002 521.586C279.34 519.798 282.355 517.473 284.318 514.581Z" fill="white"/>
</mask>
<g mask="url(#mask11_83_81)">
<path d="M284.318 514.581L273.176 530.996C271.213 533.887 268.198 536.212 263.86 538L275.002 521.586C279.34 519.798 282.355 517.473 284.318 514.581Z" fill="#C7A432"/>
</g>
</g>
<defs>
<clipPath id="clip0_83_81">
<rect width="662" height="538" fill="white"/>
</clipPath>
</defs>
</svg>
