<svg width="361" height="395" viewBox="0 0 361 395" fill="none" xmlns="http://www.w3.org/2000/svg">
<g opacity="0.21" clip-path="url(#clip0_52_155)">
<path fill-rule="evenodd" clip-rule="evenodd" d="M204.688 0L220.252 14.9434H220.586L305.852 96.804L360.994 43.8621V49.0328L305.852 101.975L219.085 18.6718H218.751L199.303 0H204.688ZM118.245 0L170.327 50.003H170.658L305.852 179.795L360.994 126.854V132.024L305.852 184.966L169.159 53.7313H168.826L112.859 0H118.245ZM54.2645 0L-1.70184 53.7313H-15.9999V50.003H-3.20297L48.8789 0H54.2645ZM271.07 0L305.854 33.3963L340.639 0H346.017L305.854 38.5589L265.692 0H271.07ZM170.666 196.408H170.331L83.5698 113.107L-3.19507 196.408H-15.9919V200.133H-1.69592L83.5698 118.272L168.832 200.133H169.167L305.856 331.365L361 278.422V273.259L305.856 326.203L170.666 196.408ZM220.594 161.349H220.258L83.5698 30.116L-15.9919 125.703V130.865L83.5698 35.2786L218.759 165.073H219.093L305.856 248.374L361 195.43V190.267L305.856 243.209L220.594 161.349ZM170.331 342.809H170.664L225.027 395H219.641L169.163 346.538H168.83L83.5678 264.677L-1.69791 346.538H-15.994V342.809H-3.19907L83.5678 259.507L170.331 342.809ZM220.258 307.75H220.592L305.856 389.608L360.998 336.669V341.837L305.856 394.779L219.091 311.478H218.757L83.5678 181.686L-15.994 277.272V272.102L83.5678 176.515L220.258 307.75ZM153.265 395H158.643L83.5678 322.922L8.49255 395H13.8701L83.5678 328.085L153.265 395Z" fill="url(#paint0_linear_52_155)"/>
</g>
<defs>
<linearGradient id="paint0_linear_52_155" x1="-16" y1="231.5" x2="485" y2="243" gradientUnits="userSpaceOnUse">
<stop offset="0.00145873" stop-color="#B99C16"/>
<stop offset="1" stop-color="#B99C16" stop-opacity="0"/>
</linearGradient>
<clipPath id="clip0_52_155">
<rect width="377" height="395" fill="white" transform="matrix(-1 0 0 1 361 0)"/>
</clipPath>
</defs>
</svg>
