<svg width="27" height="19" viewBox="0 0 27 19" fill="none" xmlns="http://www.w3.org/2000/svg">
<path d="M13.4433 0C16.2134 0.108482 18.9836 0.207641 21.7528 0.333072C22.4075 0.366937 23.059 0.445371 23.7031 0.567833C24.4362 0.683538 25.1116 1.03708 25.6261 1.5745C26.1406 2.11193 26.4659 2.80371 26.5525 3.5443C26.9316 5.80659 27.0705 8.10297 26.9667 10.3947C26.9144 11.9974 26.7592 13.5983 26.6056 15.1951C26.5808 15.7668 26.4204 16.3244 26.1378 16.8213C25.8552 17.3182 25.4586 17.7402 24.981 18.052C24.3519 18.4106 23.6471 18.614 22.9245 18.6453C20.1358 18.9154 17.3345 19.0314 14.5331 18.9928C11.7242 18.9783 8.91443 18.8936 6.10635 18.8021C5.18964 18.7611 4.27601 18.6675 3.36996 18.5215C2.64151 18.4337 1.96284 18.1049 1.44085 17.5869C0.918869 17.0688 0.583228 16.3911 0.4868 15.6603C0.283511 14.4509 0.168792 13.2212 0.0844397 11.9965C-0.0456906 10.0172 -0.0253872 8.03083 0.145173 6.05463C0.210609 5.12792 0.334007 4.20627 0.514636 3.29513C0.647232 2.54677 1.02486 1.86437 1.58756 1.35628C2.15026 0.848196 2.86577 0.543547 3.62049 0.49071C6.24791 0.213094 8.88829 0.0775793 11.5302 0.0847512C12.1671 0.0737336 12.8039 0.0847512 13.4408 0.0847512V0M10.8259 13.5873L17.8338 9.53875L10.8267 5.49103L10.8259 13.5873Z" fill="#3E7862"/>
</svg>
