<svg width="29" height="37" viewBox="0 0 29 37" fill="none" xmlns="http://www.w3.org/2000/svg">
<path d="M5.31899 0.861886L7.53091 0.215614C8.74261 -0.139331 10.0459 -0.0538865 11.1975 0.456005C12.3491 0.965896 13.2704 1.8654 13.7895 2.98667L15.4991 6.68017C15.9454 7.64461 16.0697 8.72058 15.8545 9.75712C15.6393 10.7937 15.0955 11.7388 14.2993 12.4598L11.4657 15.0246C11.383 15.0996 11.3305 15.2008 11.3179 15.31C11.2345 16.041 11.7443 17.4643 12.9214 19.4436C13.7743 20.8816 14.5495 21.8924 15.2072 22.4577C15.6678 22.8535 15.9199 22.9382 16.0279 22.9088L19.8376 21.7764C20.878 21.4673 21.9919 21.4821 23.0232 21.8189C24.0545 22.1557 24.9514 22.7976 25.5882 23.6545L28.0143 26.9245C28.7529 27.9187 29.0951 29.1395 28.9772 30.3602C28.8594 31.5809 28.2896 32.7186 27.3737 33.5621L25.6925 35.1088C24.8012 35.9287 23.7065 36.5104 22.5151 36.7972C21.3236 37.0841 20.076 37.0663 18.8937 36.7456C13.6739 35.3297 8.99414 31.0507 4.80155 23.9969C0.60517 16.934 -0.869439 10.8506 0.491448 5.74483C0.796937 4.59652 1.40177 3.54401 2.24766 2.68875C3.09355 1.83349 4.15007 1.20432 5.31899 0.861886ZM6.14159 3.50773C5.44009 3.71268 4.80475 4.0897 4.29682 4.60246C3.78889 5.11523 3.42549 5.74645 3.24165 6.43529C2.10063 10.729 3.40655 16.122 7.26555 22.616C11.1208 29.1008 15.2698 32.8956 19.6614 34.0869C20.3708 34.2791 21.1193 34.2895 21.8341 34.1172C22.5489 33.9449 23.2056 33.5957 23.7402 33.1037L25.4196 31.557C25.8362 31.1737 26.0954 30.6564 26.1491 30.1014C26.2028 29.5464 26.0473 28.9913 25.7114 28.5393L23.2853 25.2711C22.9958 24.8811 22.5879 24.589 22.1188 24.4358C21.6497 24.2826 21.1429 24.2759 20.6697 24.4167L16.8505 25.5528C14.6329 26.1935 12.6219 24.4609 10.4612 20.8245C9.00173 18.3757 8.32318 16.4792 8.49376 15.0044C8.58095 14.2384 8.94866 13.5314 9.52675 13.0048L12.3603 10.44C12.7221 10.112 12.9691 9.68231 13.0666 9.2111C13.1642 8.73988 13.1074 8.25082 12.9043 7.81253L11.1966 4.11902C10.9606 3.60935 10.5418 3.20049 10.0183 2.96876C9.4948 2.73702 8.90238 2.69822 8.35161 2.85962L6.14159 3.50773Z" fill="#3E7862"/>
</svg>
