<svg width="27" height="28" viewBox="0 0 27 28" fill="none" xmlns="http://www.w3.org/2000/svg">
<path d="M7.9075 0.0980673C6.78792 0.122811 5.68058 0.344967 4.63288 0.755022C3.73295 1.10766 2.91821 1.65999 2.24566 2.37335C1.56027 3.07392 1.03058 3.92117 0.693552 4.85596C0.302725 5.94425 0.0925209 7.09334 0.0718633 8.25445C0.00859785 9.74769 -0.00574231 10.2236 0.00184954 14.028C0.00944139 17.8323 0.0246251 18.3056 0.0937953 19.8015C0.11824 20.9621 0.332447 22.1101 0.727293 23.1965C1.06774 24.1297 1.60062 24.9746 2.28868 25.6721C2.96432 26.3827 3.7813 26.932 4.68265 27.2816C5.73182 27.6867 6.83961 27.9044 7.95896 27.9255C9.39888 27.9911 9.85776 28.006 13.5263 27.9981C17.1949 27.9902 17.6521 27.9745 19.0937 27.9036C20.2129 27.8777 21.3197 27.6556 22.3674 27.2467C23.2634 26.8855 24.0767 26.3342 24.7551 25.6279C25.4334 24.9217 25.962 24.0762 26.3068 23.1457C26.6977 22.0581 26.9076 20.9095 26.9276 19.749C26.9909 18.2549 27.0052 17.7781 26.9985 13.9755C26.9917 10.1728 26.9749 9.6987 26.9065 8.20197C26.8821 7.041 26.6679 5.89274 26.273 4.8061C25.9325 3.87313 25.3999 3.02833 24.7125 2.33049C24.0352 1.61865 23.2157 1.06925 22.3118 0.720906C21.2628 0.314837 20.1549 0.0968231 19.0355 0.0761979C17.5955 0.0105899 17.1358 -0.0042812 13.4706 0.000967443C9.80546 0.00621608 9.34658 0.0245863 7.90328 0.0963177M8.0644 25.4C7.20892 25.3911 6.36126 25.2301 5.55824 24.9241C4.97185 24.7009 4.44078 24.345 4.0036 23.8823C3.555 23.4315 3.20916 22.8825 2.99135 22.2753C2.69275 21.4435 2.53411 20.5647 2.52234 19.6772C2.45571 18.2024 2.43799 17.7597 2.43377 14.0218C2.42956 10.2839 2.43968 9.84304 2.5021 8.36642C2.51017 7.47837 2.66539 6.59836 2.96099 5.76485C3.17557 5.15685 3.51854 4.60631 3.9648 4.15352C4.39947 3.68785 4.92926 3.32915 5.51522 3.10379C6.31782 2.7938 7.16584 2.62928 8.02222 2.61741C9.44527 2.54743 9.8721 2.52994 13.4749 2.52556C17.0776 2.52119 17.5053 2.53169 18.9292 2.59642C19.7844 2.60484 20.6319 2.76582 21.4345 3.0723C22.0212 3.29413 22.5524 3.64955 22.9891 4.1124C23.4382 4.56311 23.7841 5.11254 24.0014 5.72023C24.3003 6.55134 24.4589 7.42961 24.4704 8.31656C24.5379 9.7923 24.5547 10.2349 24.5598 13.972C24.5649 17.709 24.5539 18.1516 24.4915 19.6274C24.4831 20.5151 24.3279 21.3948 24.0326 22.2281C23.809 22.8322 23.4659 23.381 23.0254 23.8393C22.5849 24.2976 22.0568 24.6552 21.475 24.8891C20.6734 25.1986 19.8266 25.3631 18.9714 25.3755C17.5483 25.4446 17.1215 25.463 13.517 25.4674C9.91259 25.4717 9.48745 25.4604 8.0644 25.3965M19.0641 6.51628C19.0646 6.84835 19.1601 7.17282 19.3383 7.44868C19.5166 7.72453 19.7697 7.9394 20.0657 8.06612C20.3617 8.19284 20.6873 8.22573 21.0013 8.16063C21.3153 8.09552 21.6036 7.93535 21.8299 7.70036C22.0561 7.46536 22.2101 7.16609 22.2724 6.84036C22.3347 6.51462 22.3025 6.17705 22.1798 5.87031C22.0572 5.56356 21.8496 5.3014 21.5833 5.11696C21.317 4.93253 21.004 4.83409 20.6837 4.83409C20.4708 4.83409 20.26 4.87762 20.0634 4.96219C19.8667 5.04676 19.688 5.17071 19.5376 5.32695C19.3872 5.48319 19.268 5.66865 19.1867 5.87273C19.1055 6.07681 19.0638 6.29549 19.0641 6.51628ZM6.56712 14.0113C6.56962 15.4328 6.97856 16.8217 7.74221 18.0022C8.50586 19.1827 9.58993 20.1018 10.8573 20.6433C12.1247 21.1849 13.5185 21.3245 14.8624 21.0446C16.2063 20.7647 17.44 20.0777 18.4075 19.0707C19.3749 18.0636 20.0327 16.7817 20.2975 15.3869C20.5624 13.9922 20.4225 12.5473 19.8955 11.2351C19.3685 9.92282 18.4781 8.80208 17.3369 8.01461C16.1957 7.22715 14.8549 6.80831 13.4841 6.81108C12.574 6.8128 11.6732 7.00041 10.833 7.3632C9.99286 7.72599 9.22984 8.25685 8.58752 8.92547C7.9452 9.59408 7.43618 10.3874 7.08952 11.26C6.74285 12.1326 6.56534 13.0675 6.56712 14.0113ZM8.9982 14.0061C8.99653 13.0834 9.25874 12.1809 9.75166 11.4128C10.2446 10.6447 10.9461 10.0453 11.7675 9.69065C12.5888 9.33596 13.4932 9.24181 14.3661 9.42012C15.2391 9.59843 16.0415 10.0412 16.6718 10.6924C17.3021 11.3436 17.7321 12.174 17.9073 13.0786C18.0825 13.9832 17.9951 14.9214 17.6562 15.7745C17.3172 16.6276 16.7419 17.3574 16.0031 17.8714C15.2642 18.3855 14.395 18.6608 13.5052 18.6625C12.9145 18.6637 12.3293 18.5441 11.783 18.3107C11.2368 18.0774 10.7403 17.7347 10.3218 17.3023C9.90325 16.8699 9.57096 16.3563 9.34386 15.7907C9.11676 15.2251 8.9993 14.6187 8.9982 14.0061Z" fill="#3E7862"/>
</svg>
