<svg width="27" height="27" viewBox="0 0 27 27" fill="none" xmlns="http://www.w3.org/2000/svg">
<path d="M27 13.5015C26.9844 10.9091 26.2319 8.37543 24.8314 6.19954C23.4308 4.02364 21.4407 2.29644 19.096 1.22189C16.7513 0.147334 14.1499 -0.229687 11.5991 0.135345C9.04836 0.500378 6.65465 1.59222 4.70069 3.28193C2.74673 4.97165 1.31413 7.18866 0.572065 9.67118C-0.170002 12.1537 -0.190543 14.798 0.512867 17.2919C1.21628 19.7858 2.61426 22.0251 4.54173 23.7453C6.4692 25.4655 8.84566 26.5949 11.3905 27V17.45H7.96313V13.5015H11.3905V10.4876C11.3905 7.06291 13.4054 5.17057 16.4901 5.17057C17.5027 5.18501 18.5129 5.27439 19.5125 5.438V8.80159H17.8081C17.5171 8.7638 17.2215 8.79232 16.9429 8.88504C16.6644 8.97776 16.4102 9.1323 16.1991 9.33724C15.9879 9.54217 15.8253 9.79226 15.7232 10.069C15.6211 10.3457 15.5822 10.642 15.6093 10.9359V13.5015H19.353L18.7548 17.4517H15.6093V27C18.7933 26.481 21.6892 24.8368 23.7769 22.3628C25.8646 19.8888 27.0074 16.747 27 13.5015Z" fill="#3E7862"/>
</svg>
