<svg width="24" height="24" viewBox="0 0 24 24" fill="none" xmlns="http://www.w3.org/2000/svg">
<path d="M23 20.5877V12.4668C23 11.8124 22.8651 11.1648 22.6035 10.5635C22.3419 9.9622 21.9591 9.41968 21.4783 8.96897L13.6842 1.66338C13.2299 1.23747 12.6272 1 12.0006 1C11.374 1 10.7713 1.23747 10.317 1.66338L2.52167 8.96897C2.04091 9.41968 1.65809 9.9622 1.39649 10.5635C1.1349 11.1648 0.999999 11.8124 1 12.4668V20.5877C1 21.2275 1.25754 21.8411 1.71596 22.2935C2.17438 22.7458 2.79614 23 3.44444 23H20.5556C21.2039 23 21.8256 22.7458 22.284 22.2935C22.7425 21.8411 23 21.2275 23 20.5877Z" stroke="white" stroke-width="2" stroke-linecap="round" stroke-linejoin="round"/>
</svg>
