<svg width="52" height="24" viewBox="0 0 52 24" fill="none" xmlns="http://www.w3.org/2000/svg">
<path d="M13.1637 0.935471C13.3118 0.960827 13.4598 0.986097 13.6079 1.01129C13.9152 1.06385 14.2224 1.11731 14.5294 1.17146C14.9199 1.24027 15.3107 1.30701 15.7016 1.37312C16.0063 1.42485 16.3109 1.47756 16.6154 1.53058C16.7594 1.55555 16.9034 1.58024 17.0474 1.60464C18.6435 1.87636 19.9241 2.2642 20.9081 3.61549C21.1776 4.0306 21.4297 4.45636 21.6839 4.88093C21.9885 5.3877 22.3078 5.88412 22.6309 6.37922C22.6806 6.45546 22.7302 6.5317 22.7814 6.61026C22.8789 6.75945 22.9777 6.90786 23.0777 7.05536C23.2457 7.31669 23.2457 7.31669 23.3934 7.59985C23.8317 8.38236 24.2899 8.68076 25.1229 8.91977C25.2655 8.9577 25.408 8.99556 25.5506 9.03337C25.6989 9.07621 25.8471 9.11948 25.9951 9.16313C26.3823 9.27626 26.7708 9.38435 27.1598 9.49121C27.7832 9.66353 28.4042 9.8442 29.0256 10.0236C29.2416 10.0853 29.4581 10.1453 29.6747 10.2049C29.808 10.2424 29.9413 10.2799 30.0746 10.3174C30.2482 10.3654 30.2482 10.3654 30.4254 10.4143C31.0496 10.6416 31.517 11.0023 31.8169 11.6023C31.8983 12.4985 31.6605 13.2968 31.4222 14.152C31.3543 14.3965 31.2887 14.6415 31.2234 14.8867C31.1804 15.0443 31.1373 15.2019 31.094 15.3594C31.0748 15.4317 31.0555 15.5039 31.0356 15.5784C30.8648 16.1831 30.6595 16.6978 30.1551 17.0993C29.5429 17.408 28.7633 17.2941 28.1157 17.1541C28.1057 17.2247 28.0957 17.2952 28.0853 17.3679C27.8803 18.2041 27.1692 18.8579 26.4599 19.2969C25.5134 19.765 24.4383 19.822 23.4405 19.4917C22.4355 19.0277 21.7506 18.3914 21.316 17.3611C21.1518 16.8839 21.1329 16.388 21.1029 15.8879C21.0153 15.878 20.9277 15.868 20.8374 15.8578C19.6849 15.7211 18.5436 15.5326 17.3998 15.3366C17.1975 15.3021 16.9952 15.2677 16.7928 15.2333C16.3723 15.1617 15.9518 15.0899 15.5313 15.0179C14.9921 14.9256 14.4528 14.8338 13.9134 14.7422C13.4972 14.6714 13.081 14.6004 12.6649 14.5293C12.4658 14.4954 12.2668 14.4615 12.0678 14.4276C11.7911 14.3806 11.5145 14.3332 11.2378 14.2857C11.1557 14.2718 11.0736 14.2579 10.989 14.2435C10.6828 14.1907 10.392 14.1357 10.0967 14.0373C10.0767 14.1156 10.0566 14.194 10.0359 14.2747C9.67619 15.2066 9.07792 15.8432 8.19782 16.3087C7.29174 16.6937 6.27217 16.7203 5.33632 16.4175C4.36987 16.0068 3.71062 15.354 3.2757 14.4018C3.07916 13.8795 3.05751 13.4237 3.08394 12.8685C2.99932 12.8589 2.9147 12.8494 2.82751 12.8396C2.04899 12.7386 1.54891 12.6338 1.00811 12.0345C0.706429 11.5987 0.74237 11.2204 0.770694 10.7135C0.775238 10.6311 0.779781 10.5486 0.784463 10.4636C0.802512 10.1613 0.822783 9.85909 0.843744 9.55689C0.848117 9.4937 0.85249 9.43051 0.856995 9.36541C0.886766 8.94079 0.919213 8.51646 0.95414 8.09224C0.965684 7.94961 0.976701 7.80695 0.987169 7.66424C1.09469 6.21784 1.09469 6.21785 1.52554 5.56349C2.10445 5.10273 2.56521 5.03311 3.27874 5.07649C3.44432 5.10281 3.60948 5.13192 3.77411 5.16362C4.65673 5.35686 4.65673 5.35686 5.5082 5.17351C5.83623 4.89286 6.06259 4.54345 6.28654 4.17768C6.44734 3.92308 6.63939 3.69886 6.83384 3.46939C6.9039 3.38364 6.97396 3.29789 7.04614 3.20953C7.15801 3.07299 7.15801 3.07299 7.27214 2.93369C7.31537 2.88088 7.35859 2.82807 7.40312 2.77366C9.11842 0.685549 10.5709 0.476121 13.1637 0.935471ZM9.84233 3.17536C9.67965 3.34897 9.52846 3.52826 9.37842 3.71289C9.32428 3.77758 9.27014 3.84226 9.21437 3.90891C9.10499 4.03997 8.99617 4.1715 8.88795 4.30352C8.74562 4.47689 8.60155 4.64855 8.45654 4.81968C8.04073 5.2392 8.04073 5.2392 7.85654 5.75829C8.50297 5.87205 9.14958 5.98469 9.79634 6.09655C10.0164 6.13475 10.2365 6.17321 10.4565 6.21193C10.7723 6.26748 11.0883 6.32211 11.4044 6.37655C11.503 6.3941 11.6017 6.41165 11.7033 6.42973C11.7949 6.44533 11.8865 6.46094 11.9809 6.47702C12.0616 6.49108 12.1423 6.50514 12.2254 6.51962C12.4523 6.55292 12.4523 6.55292 12.7265 6.44009C12.7964 6.06071 12.8658 5.68124 12.9346 5.30166C12.9696 5.10943 13.005 4.91728 13.0404 4.72513C13.0734 4.54292 13.0734 4.54292 13.107 4.35703C13.1274 4.24532 13.1478 4.13362 13.1688 4.01853C13.2084 3.74819 13.2225 3.49838 13.2135 3.22589C12.7039 3.03592 12.196 2.94032 11.6612 2.85456C11.5767 2.83905 11.4921 2.82354 11.405 2.80757C10.7873 2.70906 10.3307 2.72661 9.84233 3.17536ZM15.3563 3.51809C15.2728 3.95656 15.1896 4.39509 15.1067 4.83368C15.0784 4.98288 15.0501 5.13205 15.0216 5.28121C14.9808 5.49561 14.9402 5.71008 14.8998 5.92456C14.887 5.99123 14.8742 6.05789 14.861 6.12658C14.81 6.39873 14.7719 6.64941 14.7719 6.92709C15.5127 7.05456 16.2536 7.18159 16.9945 7.30807C17.3386 7.36682 17.6826 7.42572 18.0266 7.48495C18.3587 7.54215 18.6909 7.59894 19.0231 7.65547C19.2112 7.68757 19.3992 7.72008 19.5872 7.75259C19.7022 7.77209 19.8172 7.79159 19.9357 7.81168C20.0872 7.83764 20.0872 7.83764 20.2418 7.86412C20.5005 7.89869 20.745 7.90812 21.0055 7.90109C20.5776 7.08939 20.0788 6.32662 19.5737 5.5615C19.4644 5.39495 19.357 5.22709 19.2501 5.05899C19.1946 4.97437 19.1391 4.88974 19.0819 4.80256C19.0362 4.73162 18.9905 4.66068 18.9434 4.58759C18.425 4.02597 17.7834 3.91314 17.0608 3.79203C16.9721 3.77602 16.8833 3.76001 16.7919 3.74352C16.3146 3.65846 15.8365 3.58561 15.3563 3.51809ZM5.39111 11.6266C4.99023 12.0368 4.85747 12.3933 4.79453 12.9598C4.81743 13.4736 5.01747 13.9082 5.36561 14.285C5.76308 14.6352 6.10392 14.7985 6.62687 14.8469C7.41646 14.7789 7.83055 14.4103 8.32528 13.8303C8.54873 13.2893 8.51429 12.7076 8.33746 12.1563C7.95843 11.6305 7.52708 11.2585 6.88254 11.1153C6.31643 11.1153 5.84495 11.2837 5.39111 11.6266ZM23.2579 14.8774C22.9497 15.3669 22.8166 15.8333 22.8828 16.4137C23.0433 17.0244 23.4127 17.3897 23.9275 17.7385C24.4396 17.9092 25.0109 17.9435 25.5209 17.7476C26.0082 17.4619 26.3261 17.1102 26.533 16.5758C26.6129 15.9169 26.5472 15.4588 26.1677 14.9139C25.7544 14.4798 25.3998 14.2223 24.7859 14.2017C24.1442 14.211 23.7247 14.4512 23.2579 14.8774Z" fill="#4D7F72"/>
<path d="M37.7921 2.43261C37.9096 2.43212 37.9096 2.43212 38.0295 2.43162C38.2867 2.4307 38.5439 2.4305 38.8012 2.4304C38.9813 2.43008 39.1614 2.42975 39.3415 2.42941C39.7186 2.42883 40.0956 2.42865 40.4726 2.42871C40.9537 2.42872 41.4347 2.42739 41.9158 2.42571C42.2877 2.42462 42.6597 2.42443 43.0316 2.42448C43.2088 2.42437 43.3861 2.42394 43.5634 2.42318C45.0257 2.41752 46.3822 2.43221 47.4983 3.51816C48.0935 4.23639 48.3385 5.07217 48.6062 5.94707C48.6504 6.08693 48.6946 6.22675 48.739 6.36653C49.0567 7.37623 49.0567 7.37623 49.0567 7.60895C49.2364 7.60048 49.2364 7.60048 49.4197 7.59183C49.5787 7.58726 49.7377 7.58283 49.8968 7.57852C49.9755 7.57444 50.0542 7.57036 50.1353 7.56615C50.5522 7.55768 50.8224 7.57311 51.1531 7.84218C51.516 8.22397 51.5149 8.49678 51.5221 9.00299C51.5276 9.19528 51.5276 9.19528 51.5332 9.39145C51.486 9.80104 51.3894 9.95091 51.1021 10.2388C50.7807 10.4637 50.5119 10.4393 50.1281 10.4336C50.141 10.5055 50.154 10.5774 50.1673 10.6516C50.1931 10.7998 50.1931 10.7998 50.2194 10.951C50.2364 11.047 50.2533 11.1431 50.2708 11.2421C50.4087 12.1955 50.437 13.141 50.4401 14.1036C50.4405 14.2027 50.4405 14.2027 50.4409 14.3039C50.4424 14.6524 50.4433 15.001 50.4437 15.3495C50.4442 15.7081 50.4466 16.0667 50.4493 16.4253C50.4512 16.7029 50.4517 16.9804 50.4518 17.258C50.4523 17.4543 50.4541 17.6505 50.4559 17.8467C50.4556 17.9661 50.4553 18.0854 50.455 18.2084C50.4556 18.3654 50.4556 18.3654 50.4561 18.5256C50.4002 18.9698 50.1777 19.3043 49.8359 19.5892C49.3641 19.7464 48.8811 19.7086 48.3871 19.7109C48.2279 19.7139 48.2279 19.7139 48.0656 19.717C47.963 19.7175 47.8604 19.718 47.7547 19.7185C47.6612 19.7194 47.5677 19.7203 47.4713 19.7213C47.0441 19.6653 46.6953 19.4377 46.4269 19.1022C46.2535 18.4085 46.3295 17.6744 46.3295 16.9594C42.826 16.9594 39.3225 16.9594 35.7129 16.9594C35.7129 17.6022 35.7129 18.245 35.7129 18.9074C35.2646 19.5797 35.2646 19.5797 34.8363 19.6866C34.4657 19.726 34.0948 19.7182 33.7223 19.717C33.6225 19.7186 33.5228 19.7201 33.42 19.7217C32.7798 19.7222 32.3347 19.6743 31.8344 19.2406C31.111 17.7556 31.9579 15.614 32.4097 14.1581C32.7447 13.0644 33.0693 11.9785 32.59 10.8719C32.0969 10.034 31.4604 9.7392 30.5507 9.45955C30.4897 8.50796 30.4897 8.50796 30.7272 8.04117C30.9402 7.80385 31.103 7.62968 31.4266 7.5779C31.4985 7.57484 31.5705 7.57178 31.6446 7.56863C31.7227 7.56486 31.8009 7.56109 31.8814 7.55721C31.9626 7.5542 32.0437 7.55118 32.1274 7.54808C32.2508 7.54243 32.2508 7.54243 32.3768 7.53667C32.5797 7.52749 32.7827 7.51942 32.9857 7.51156C33.0151 7.41827 33.0445 7.32498 33.0748 7.22887C33.1854 6.87911 33.2981 6.53003 33.4114 6.1811C33.4599 6.03071 33.5078 5.88014 33.5553 5.72939C33.9117 4.59806 34.2922 3.61777 35.3233 2.93376C36.1267 2.52817 36.8976 2.43206 37.7921 2.43261ZM36.173 5.19773C35.9776 5.51006 35.8665 5.80623 35.754 6.15709C35.7329 6.22226 35.7119 6.28744 35.6902 6.35459C35.6461 6.49162 35.6026 6.62882 35.5596 6.76617C35.4938 6.97564 35.4262 7.18444 35.3583 7.39323C35.1084 8.16601 35.1084 8.16601 35.0311 8.97255C38.9846 8.97255 42.938 8.97255 47.0113 8.97255C47.1403 8.58542 47.026 8.32247 46.9078 7.94795C46.8855 7.87625 46.8632 7.80454 46.8402 7.73066C46.7926 7.57881 46.7444 7.4271 46.6958 7.27555C46.6225 7.04534 46.5526 6.81429 46.4828 6.58302C46.1572 5.51924 46.1572 5.51924 45.3555 4.78436C45.0016 4.66637 44.6763 4.67181 44.3078 4.67126C44.2309 4.67078 44.1541 4.67029 44.0749 4.6698C43.8205 4.66837 43.5661 4.66771 43.3116 4.66717C43.1346 4.66661 42.9576 4.66605 42.7806 4.66549C42.4092 4.66447 42.0378 4.6639 41.6664 4.66356C41.1914 4.66302 40.7164 4.66068 40.2414 4.65791C39.8756 4.65609 39.5098 4.65559 39.1439 4.65544C38.9689 4.65515 38.7938 4.65437 38.6188 4.65308C38.3733 4.65142 38.1279 4.65161 37.8824 4.65224C37.8107 4.65134 37.7389 4.65044 37.6649 4.64952C37.0707 4.65428 36.6039 4.77297 36.173 5.19773ZM34.5525 11.7972C34.3836 12.1082 34.4047 12.4265 34.4102 12.7712C34.409 12.8417 34.4079 12.9123 34.4068 12.985C34.4071 13.3877 34.4071 13.3877 34.5829 13.7391C35.0419 14.0436 35.5555 13.9579 36.0903 13.9582C36.1977 13.9594 36.305 13.9606 36.4156 13.9618C36.519 13.962 36.6223 13.9622 36.7288 13.9624C36.8234 13.9628 36.9181 13.9632 37.0156 13.9636C37.281 13.9391 37.4383 13.8893 37.6609 13.7452C37.8307 13.4055 37.8083 13.0404 37.7031 12.6791C37.5684 12.342 37.4811 12.1967 37.1739 11.992C36.9884 11.9393 36.9884 11.9393 36.7858 11.909C36.7107 11.8965 36.6357 11.8839 36.5583 11.871C36.4802 11.8587 36.4021 11.8464 36.3217 11.8337C36.2451 11.8206 36.1685 11.8076 36.0896 11.7941C35.3044 11.6352 35.3044 11.6352 34.5525 11.7972ZM45.7268 11.8276C45.6496 11.8391 45.5723 11.8506 45.4927 11.8624C44.9296 11.9515 44.9296 11.9515 44.4789 12.2842C44.3152 12.6532 44.2072 13.1549 44.2841 13.5504C44.5046 13.8163 44.6892 13.9277 45.0316 13.9791C45.3515 13.996 45.6683 13.9979 45.9886 13.9947C46.0985 13.9971 46.2083 13.9994 46.3215 14.0018C46.9585 14.0018 46.9585 14.0018 47.5223 13.7326C47.7249 13.401 47.7556 13.2067 47.7479 12.8199C47.748 12.7124 47.7481 12.6049 47.7483 12.4942C47.6804 12.1161 47.5934 11.9524 47.3035 11.6998C46.7771 11.6344 46.2478 11.7413 45.7268 11.8276Z" fill="#4D7F72"/>
<path d="M1.75014 21.5244C1.83524 21.5242 1.92033 21.524 2.00801 21.5238C2.29633 21.5233 2.58464 21.5234 2.87295 21.5236C3.08048 21.5233 3.28801 21.523 3.49554 21.5227C4.06829 21.5219 4.64105 21.5217 5.2138 21.5217C5.83055 21.5215 6.44729 21.5207 7.06404 21.5201C8.48415 21.5187 9.90426 21.5181 11.3244 21.5177C12.0258 21.5175 12.7272 21.5171 13.4286 21.5167C15.8286 21.5155 18.2286 21.5144 20.6286 21.5141C20.7793 21.5141 20.93 21.5141 21.0808 21.514C21.2318 21.514 21.3829 21.514 21.534 21.514C21.8371 21.5139 22.1402 21.5139 22.4434 21.5138C22.5185 21.5138 22.5937 21.5138 22.6711 21.5138C25.1087 21.5135 27.5464 21.5119 29.984 21.5096C32.5599 21.5072 35.1358 21.5059 37.7116 21.5058C37.9942 21.5058 38.2768 21.5058 38.5595 21.5057C38.6638 21.5057 38.6638 21.5057 38.7703 21.5057C39.8916 21.5056 41.0129 21.5045 42.1342 21.5031C43.2606 21.5017 44.387 21.5014 45.5134 21.5022C46.124 21.5026 46.7346 21.5025 47.3452 21.5011C47.9036 21.4999 48.462 21.5 49.0205 21.5012C49.223 21.5014 49.4255 21.501 49.6281 21.5002C49.9024 21.4991 50.1767 21.4998 50.4511 21.501C50.5305 21.5003 50.61 21.4995 50.6919 21.4988C51.1382 21.5029 51.4286 21.5525 51.7839 21.8294C52.0103 22.142 52.025 22.4251 51.9787 22.8034C51.8034 23.0664 51.6783 23.2458 51.3943 23.3878C51.1228 23.3977 50.8537 23.4016 50.5822 23.4012C50.4968 23.4015 50.4114 23.4017 50.3234 23.402C50.0339 23.4027 49.7445 23.4028 49.4551 23.4028C49.2467 23.4032 49.0384 23.4037 48.8301 23.4041C48.2551 23.4053 47.6801 23.4058 47.1051 23.4063C46.486 23.4069 45.8669 23.408 45.2477 23.409C43.8221 23.4113 42.3965 23.4127 40.9709 23.4139C40.4778 23.4144 39.9847 23.4148 39.4916 23.4153C36.8713 23.4177 34.2509 23.4199 31.6306 23.4211C31.0233 23.4214 30.4161 23.4217 29.8088 23.4219C29.7334 23.422 29.6579 23.422 29.5802 23.4221C27.1331 23.4232 24.686 23.4263 22.2389 23.4303C19.7243 23.4345 17.2097 23.4371 14.6951 23.4376C14.3401 23.4377 13.9852 23.4377 13.6303 23.4378C13.5255 23.4379 13.5255 23.4379 13.4186 23.4379C12.293 23.4382 11.1673 23.4402 10.0417 23.4428C8.91092 23.4453 7.78015 23.4461 6.64936 23.445C6.0364 23.4445 5.42347 23.4448 4.81051 23.4472C4.2499 23.4494 3.68933 23.4493 3.12872 23.4475C2.92539 23.4472 2.72207 23.4478 2.51875 23.4492C2.24329 23.4511 1.968 23.4499 1.69255 23.448C1.5729 23.4499 1.5729 23.4499 1.45084 23.4518C1.0513 23.4458 0.867628 23.4069 0.550979 23.1547C0.293885 22.8188 0.29208 22.6356 0.314471 22.2278C0.375434 21.934 0.504937 21.805 0.746303 21.6346C1.06078 21.4774 1.40466 21.5237 1.75014 21.5244Z" fill="#B89C17"/>
<path d="M28.0183 0.10916C28.3425 0.523046 28.5375 0.962892 28.7244 1.44841C28.7505 1.51382 28.7766 1.57924 28.8036 1.64663C28.9923 2.12708 28.9923 2.12708 28.9923 2.34936C29.0718 2.30434 29.0718 2.30434 29.1529 2.2584C29.3947 2.12268 29.6378 1.98947 29.881 1.85627C30.0061 1.78537 30.0061 1.78537 30.1337 1.71303C30.7565 1.37526 30.7565 1.37526 31.183 1.37574C31.4273 1.47276 31.4273 1.47276 31.6221 1.76496C31.5925 2.38539 31.4546 2.95849 31.293 3.55697C31.2212 3.81431 31.2212 3.81431 31.2325 4.10256C31.3134 4.11913 31.3944 4.13571 31.4779 4.15278C31.5837 4.17639 31.6896 4.19999 31.7986 4.22431C31.9037 4.24691 32.0088 4.26951 32.1171 4.29279C32.4373 4.40767 32.5475 4.47838 32.6935 4.78436C32.6859 5.0899 32.6379 5.22541 32.4317 5.4517C32.165 5.65623 31.897 5.85734 31.6221 6.05056C31.5565 6.09673 31.4909 6.1429 31.4233 6.19048C31.2069 6.34087 30.9888 6.48836 30.7698 6.63496C30.6996 6.683 30.6294 6.73104 30.5571 6.78054C30.1544 7.0436 29.8797 7.19596 29.3819 7.12196C29.1454 6.97219 29.1015 6.87357 29.0288 6.60452C29.1572 6.05232 29.7494 5.76499 30.2037 5.47833C30.319 5.40875 30.4345 5.33954 30.5507 5.27136C30.4562 5.22716 30.3618 5.18297 30.2646 5.13743C29.9663 4.97916 29.9663 4.97916 29.8689 4.78436C29.8825 4.21099 29.9838 3.67211 30.1611 3.12856C30.0916 3.17075 30.0222 3.21293 29.9507 3.2564C29.0241 3.79512 29.0241 3.79512 28.4079 3.71296C28.2472 3.39154 28.0864 3.07012 27.9209 2.73896C27.8787 2.87355 27.8365 3.00815 27.793 3.14682C27.5644 3.82199 27.5644 3.82199 27.3365 4.10256C26.8998 4.28972 26.5068 4.13094 26.0703 4.00516C26.1054 4.06166 26.1406 4.11816 26.1768 4.17637C26.3781 4.51524 26.5413 4.81244 26.6303 5.19831C26.5573 5.46616 26.5573 5.46616 25.8755 5.95316C26.3897 6.2103 26.904 6.46743 27.4339 6.73236C27.4339 6.95735 27.4339 7.18235 27.4339 7.41416C27.2391 7.60896 27.2391 7.60896 26.9257 7.63669C26.5351 7.60729 26.2776 7.52109 25.9223 7.36013C25.7489 7.28235 25.7489 7.28235 25.572 7.203C25.4834 7.16206 25.4834 7.16206 25.393 7.12029C25.2113 7.03643 25.0288 6.95445 24.8461 6.87275C23.957 6.46973 23.957 6.46973 23.7327 6.24536C23.7327 6.02037 23.7327 5.79537 23.7327 5.56356C24.1827 5.33857 24.6326 5.11357 25.0963 4.88176C24.8487 4.45048 24.8487 4.45048 24.6009 4.01933C24.0649 3.08336 24.0649 3.08336 24.1223 2.54416C24.2197 2.35545 24.2197 2.35545 24.4145 2.25196C25.1886 2.25196 25.9328 2.58162 26.6547 2.83636C26.6658 2.7108 26.677 2.58525 26.6885 2.45589C26.743 1.96692 26.8553 1.50697 26.9895 1.03446C27.0212 0.916187 27.0212 0.916187 27.0536 0.795526C27.109 0.597289 27.1733 0.401598 27.2391 0.20656C27.5226 0.0648162 27.7047 0.0652647 28.0183 0.10916Z" fill="#B89C17"/>
</svg>
