<svg width="45" height="39" viewBox="0 0 45 39" fill="none" xmlns="http://www.w3.org/2000/svg">
<path d="M14.669 0.696121C14.7947 0.69586 14.9204 0.695588 15.046 0.695304C15.3088 0.694821 15.5716 0.694669 15.8344 0.694717C16.1686 0.694725 16.5029 0.69362 16.8371 0.692224C17.0966 0.691317 17.3561 0.69116 17.6155 0.691202C17.7386 0.691108 17.8617 0.690755 17.9848 0.690122C19.4509 0.683294 20.6634 0.865945 21.7805 1.87916C21.8423 1.94765 21.9041 2.01615 21.9678 2.08672C22.0262 2.14608 22.0262 2.14608 22.0858 2.20663C22.7418 2.90578 23.05 3.84058 23.0366 4.78723C23.0363 4.88041 23.0363 4.88041 23.0359 4.97548C23.035 5.17188 23.033 5.36824 23.0309 5.56463C23.0301 5.69863 23.0294 5.83263 23.0287 5.96662C23.0269 6.29332 23.0241 6.62 23.0208 6.94668C23.1012 6.94632 23.1816 6.94597 23.2644 6.94559C24.0247 6.9423 24.7849 6.93988 25.5452 6.93829C25.9359 6.93745 26.3267 6.93631 26.7175 6.93446C27.0951 6.93269 27.4727 6.93173 27.8503 6.93131C27.9939 6.93102 28.1375 6.93044 28.2811 6.92956C29.5269 6.92224 30.5818 6.95666 31.5403 7.84559C32.3154 8.65557 32.3732 9.7066 32.368 10.7783C32.3682 10.8866 32.3684 10.9948 32.3687 11.103C32.3691 11.3278 32.3686 11.5525 32.3674 11.7773C32.366 12.0644 32.3668 12.3514 32.3683 12.6384C32.3694 12.9144 32.3686 13.1905 32.368 13.4665C32.3685 13.569 32.369 13.6715 32.3695 13.7772C32.3687 13.8729 32.368 13.9687 32.3672 14.0673C32.367 14.1511 32.3668 14.2348 32.3666 14.3212C32.3296 14.608 32.2439 14.8009 32.0927 15.0466C31.7305 15.2451 31.3745 15.3345 30.9698 15.4054C30.917 15.4148 30.8642 15.4241 30.8098 15.4338C30.6352 15.4643 30.4603 15.4935 30.2854 15.5225C30.1935 15.538 30.1935 15.538 30.0997 15.5538C27.9221 15.9186 25.7282 16.1604 23.527 16.3274C23.4602 16.3326 23.3933 16.3377 23.3244 16.343C22.5194 16.4038 21.7225 16.4376 20.9148 16.4236C20.9037 16.3173 20.9037 16.3173 20.8923 16.2089C20.7952 15.342 20.495 14.5311 19.8618 13.9126C19.034 13.2711 18.2611 13.0102 17.2259 13.0052C17.151 13.0047 17.0762 13.0043 16.9991 13.0038C16.841 13.003 16.6828 13.0025 16.5247 13.0022C16.2849 13.0014 16.0451 12.9989 15.8054 12.9963C15.6511 12.9958 15.4969 12.9954 15.3426 12.9951C15.2719 12.9941 15.2012 12.9931 15.1283 12.992C14.2072 12.9953 13.3052 13.3267 12.6102 13.9424C11.9766 14.6449 11.6985 15.4222 11.5999 16.3426C11.4629 16.4796 11.2966 16.4365 11.1082 16.4372C10.2473 16.4301 9.38976 16.3551 8.53202 16.2869C8.44115 16.2798 8.35029 16.2726 8.25667 16.2653C6.5549 16.1299 4.86445 15.9456 3.17593 15.6946C3.11734 15.686 3.05876 15.6774 2.99839 15.6685C2.60987 15.611 2.22204 15.5501 1.83438 15.4871C1.73849 15.472 1.6426 15.457 1.5438 15.4415C1.06949 15.3599 0.704655 15.2906 0.340951 14.9656C0.16282 14.6909 0.157636 14.4591 0.15542 14.1357C0.154386 14.0332 0.153353 13.9307 0.152288 13.8251C0.15204 13.7132 0.15186 13.6014 0.151742 13.4896C0.151221 13.3742 0.150676 13.2587 0.150108 13.1433C0.149138 12.9011 0.148838 12.6589 0.148934 12.4167C0.14895 12.1086 0.146747 11.8005 0.143949 11.4925C0.142133 11.2537 0.14182 11.015 0.141905 10.7763C0.141715 10.6629 0.141008 10.5494 0.139744 10.436C0.129767 9.44755 0.277288 8.57643 0.981037 7.838C1.74693 7.1044 2.55011 6.93231 3.59214 6.93749C3.65543 6.93748 3.71871 6.93747 3.78392 6.93745C3.99121 6.93751 4.1985 6.93814 4.4058 6.93877C4.55027 6.93893 4.69474 6.93904 4.83921 6.93912C5.21805 6.93943 5.59689 6.94022 5.97573 6.94112C6.36287 6.94195 6.75001 6.94232 7.13715 6.94273C7.89573 6.9436 8.65431 6.94498 9.41289 6.94668C9.41162 6.87326 9.41035 6.79983 9.40903 6.72417C9.40485 6.447 9.40182 6.16986 9.39954 5.89266C9.39833 5.77358 9.39669 5.65451 9.39456 5.53544C9.36948 4.0934 9.65373 2.93808 10.6703 1.86713C11.8292 0.795987 13.1697 0.696855 14.669 0.696121ZM13.0579 4.6787C13.0579 5.34695 13.0579 6.01519 13.0579 6.70369C15.1695 6.70369 17.2812 6.70369 19.4568 6.70369C19.4568 6.06217 19.4568 5.42065 19.4568 4.7597C19.0353 4.32206 19.0353 4.32206 18.4992 4.30358C18.4453 4.303 18.3914 4.30242 18.3358 4.30183C18.1585 4.30046 17.9813 4.30203 17.8039 4.30376C17.6802 4.30369 17.5564 4.30349 17.4327 4.30317C17.1736 4.30294 16.9147 4.30413 16.6557 4.30635C16.3242 4.30911 15.9928 4.30862 15.6613 4.30711C15.4058 4.30625 15.1504 4.30698 14.895 4.30819C14.7728 4.30861 14.6506 4.30857 14.5284 4.30807C14.3573 4.30762 14.1865 4.30928 14.0155 4.31149C13.8697 4.31225 13.8697 4.31225 13.721 4.31301C13.4116 4.34126 13.4116 4.34126 13.0579 4.6787Z" fill="#4D7F72"/>
<path d="M2.285 18.0439C2.48826 18.0693 2.69151 18.0947 2.89477 18.1201C2.95146 18.1271 3.00814 18.1342 3.06655 18.1415C3.44198 18.1884 3.81731 18.236 4.1926 18.2841C6.65497 18.595 9.12281 18.7879 11.5999 18.9349C11.6152 19.0116 11.6306 19.0883 11.6463 19.1673C11.6671 19.2686 11.688 19.3698 11.7094 19.4741C11.7297 19.5742 11.7501 19.6743 11.771 19.7774C11.9811 20.6289 12.4437 21.2687 13.1813 21.7386C13.695 22.0262 14.2562 22.2632 14.8508 22.269C14.9487 22.2701 14.9487 22.2701 15.0485 22.2713C15.1534 22.2718 15.1534 22.2718 15.2604 22.2724C15.3334 22.2728 15.4063 22.2733 15.4814 22.2738C15.6359 22.2745 15.7904 22.2751 15.9449 22.2754C16.1787 22.2762 16.4124 22.2787 16.6461 22.2812C17.9481 22.2888 18.9775 22.1415 19.9682 21.2232C20.4526 20.7056 20.6635 20.1639 20.8044 19.4747C20.8359 19.3227 20.8359 19.3227 20.8679 19.1677C20.8834 19.0909 20.8989 19.0141 20.9149 18.9349C20.9642 18.9316 21.0135 18.9283 21.0644 18.9248C25.3574 18.6398 25.3574 18.6398 29.6223 18.0857C29.9058 18.0439 29.9058 18.0439 30.2298 18.0439C30.2298 20.316 30.2298 22.588 30.2298 24.9289C29.9022 24.6481 29.5858 24.3726 29.273 24.0784C28.3747 23.271 27.3039 22.7861 26.0849 22.8061C24.7527 22.9037 23.7704 23.529 22.869 24.4783C22.7974 24.5515 22.7257 24.6246 22.6519 24.7C22.2925 25.0693 21.9462 25.4471 21.6097 25.8373C21.4149 26.0577 21.2064 26.2627 20.9959 26.4679C20.7313 26.7288 20.4719 26.9892 20.2314 27.2728C19.9331 27.6239 19.6043 27.9426 19.2769 28.2663C18.9852 28.5559 18.706 28.8515 18.4415 29.1665C18.4024 29.2115 18.3632 29.2565 18.3229 29.3029C18.278 29.3583 18.2331 29.4137 18.1868 29.4708C17.9365 29.6787 17.7888 29.6676 17.4658 29.668C17.4123 29.6685 17.3589 29.669 17.3038 29.6695C17.1248 29.6708 16.9459 29.6698 16.7668 29.6688C16.6384 29.6692 16.51 29.6698 16.3816 29.6705C16.0326 29.672 15.6837 29.6714 15.3347 29.6704C14.9688 29.6696 14.6029 29.6703 14.2371 29.6708C13.6218 29.6714 13.0066 29.6706 12.3914 29.6691C11.6822 29.6673 10.973 29.6679 10.2638 29.6697C9.65384 29.6712 9.04387 29.6714 8.4339 29.6705C8.07011 29.67 7.70633 29.6699 7.34254 29.671C6.99966 29.672 6.65683 29.6713 6.31396 29.6694C6.18888 29.669 6.0638 29.6691 5.93872 29.6698C4.92989 29.6751 3.96393 29.5778 3.17061 28.8966C2.46759 28.1751 2.24728 27.4132 2.25741 26.4302C2.25738 26.3393 2.25734 26.2483 2.2573 26.1546C2.25747 25.8557 2.25936 25.5569 2.26127 25.258C2.26172 25.05 2.26207 24.8421 2.26231 24.6342C2.26314 24.144 2.26505 23.6537 2.2675 23.1635C2.27022 22.605 2.27155 22.0465 2.27277 21.4881C2.2753 20.34 2.27957 19.192 2.285 18.0439Z" fill="#4D7F72"/>
<path d="M44.516 18.1806C44.7813 18.4143 44.9505 18.6207 45.0001 18.9774C44.9843 19.6899 44.9169 20.3937 44.8384 21.1014C44.8245 21.2298 44.8105 21.3581 44.7966 21.4865C44.7675 21.7536 44.738 22.0207 44.7081 22.2877C44.6701 22.6293 44.6334 22.971 44.5971 23.3128C44.5688 23.5772 44.5396 23.8414 44.5101 24.1056C44.4962 24.2316 44.4826 24.3577 44.4694 24.4837C44.4507 24.6596 44.4309 24.8353 44.4107 25.011C44.3998 25.1108 44.3888 25.2105 44.3775 25.3133C44.3007 25.6894 44.1333 25.9785 43.8377 26.2249C43.4457 26.3555 43.0397 26.3763 42.653 26.2198C42.4362 26.0429 42.243 25.8516 42.0478 25.6513C41.8858 25.488 41.72 25.3312 41.5494 25.177C41.4972 25.1295 41.445 25.0819 41.3912 25.033C41.2426 24.9053 41.2426 24.9053 41.0027 24.9289C40.8613 25.0441 40.8613 25.0441 40.7239 25.2016C40.6704 25.2597 40.6168 25.3177 40.5616 25.3774C40.505 25.4399 40.4484 25.5024 40.3901 25.5668C40.2729 25.694 40.1557 25.821 40.0383 25.948C39.9814 26.0098 39.9245 26.0716 39.8658 26.1352C39.6676 26.3479 39.4635 26.5526 39.2561 26.7565C39.0355 26.9742 38.8245 27.194 38.6233 27.4298C38.3771 27.7179 38.1131 27.9837 37.8437 28.2499C37.5793 28.511 37.3198 28.7711 37.0793 29.0548C36.8231 29.3563 36.5453 29.6324 36.2642 29.9104C35.9848 30.1866 35.7085 30.4609 35.4542 30.7609C35.1575 31.1109 34.8296 31.428 34.5036 31.7504C34.2665 31.9859 34.0362 32.2227 33.819 32.477C32.6927 33.7837 32.6927 33.7837 31.7643 33.9496C31.2489 33.9848 30.7375 33.8217 30.3443 33.4863C30.064 33.2227 29.8005 32.9434 29.5365 32.6636C29.3953 32.5176 29.2461 32.3849 29.0907 32.2543C28.7611 31.9749 28.4618 31.6681 28.1584 31.361C27.8859 31.0864 27.6051 30.8281 27.3103 30.5773C27.0001 30.3025 26.7126 30.0038 26.4228 29.7079C25.9395 29.9248 25.6172 30.3339 25.2787 30.7305C25.013 31.0395 24.7278 31.3251 24.4383 31.6114C24.1589 31.8876 23.8825 32.1618 23.6283 32.4619C23.3315 32.8121 23.0034 33.1294 22.6772 33.4519C22.4452 33.6822 22.2198 33.9133 22.0083 34.1628C21.7115 34.513 21.3835 34.8302 21.0574 35.1527C20.7768 35.4313 20.5121 35.7169 20.2564 36.0185C20.0128 36.2907 19.7506 36.544 19.4905 36.8002C19.2551 37.0333 19.0321 37.2704 18.8189 37.5243C18.4344 37.9709 18.0178 38.2242 17.4318 38.2938C16.8553 38.3029 16.3422 38.1513 15.9121 37.7585C15.4719 37.2767 15.3643 36.8161 15.3834 36.1707C15.4683 35.3517 16.0246 34.8918 16.5904 34.3536C16.7297 34.2177 16.8562 34.0738 16.9813 33.9249C17.28 33.5733 17.6094 33.2542 17.9372 32.93C18.2178 32.6514 18.4825 32.3658 18.7383 32.0641C18.9823 31.7915 19.2452 31.5379 19.5054 31.2808C19.7261 31.0618 19.939 30.8413 20.1403 30.6039C20.3964 30.3024 20.6742 30.0263 20.9553 29.7484C21.2347 29.4721 21.5111 29.1979 21.7653 28.8979C22.0621 28.5477 22.3901 28.2305 22.7162 27.908C22.9965 27.6297 23.261 27.3446 23.5163 27.0431C23.764 26.7666 24.03 26.5083 24.2956 26.2491C24.4801 26.0677 24.6508 25.8879 24.8094 25.6832C25.1194 25.3094 25.541 25.1293 26.0152 25.0514C26.6949 25.0207 27.2245 25.2165 27.748 25.6567C27.9359 25.8382 28.1168 26.0244 28.2959 26.2148C28.4174 26.3413 28.5391 26.4677 28.661 26.5938C28.72 26.6549 28.779 26.716 28.8397 26.779C29.0543 26.9934 29.2805 27.1905 29.5108 27.3877C29.7487 27.5962 29.9683 27.8213 30.1892 28.0474C30.8562 28.7241 30.8562 28.7241 31.6067 29.3029C31.6481 29.2557 31.6894 29.2085 31.732 29.1599C32.0874 28.7592 32.4509 28.3729 32.8319 27.9968C33.0926 27.7393 33.3489 27.4815 33.5862 27.2019C33.8849 26.8503 34.2143 26.5312 34.5421 26.2071C34.8227 25.9284 35.0874 25.6429 35.3432 25.3412C35.5872 25.0686 35.8501 24.8149 36.1103 24.5579C36.378 24.2922 36.6289 24.0186 36.8723 23.7304C37.0096 23.5786 37.1501 23.4355 37.2963 23.2925C37.3438 23.246 37.3912 23.1995 37.4401 23.1516C37.5352 23.0592 37.6308 22.9672 37.7269 22.8759C37.793 22.8116 37.793 22.8116 37.8605 22.746C37.9001 22.7082 37.9398 22.6703 37.9806 22.6313C38.1139 22.465 38.1773 22.2936 38.2487 22.0939C38.1874 22.0345 38.1874 22.0345 38.1249 21.9739C37.9394 21.7935 37.7548 21.6121 37.5703 21.4307C37.4738 21.3373 37.4738 21.3373 37.3754 21.242C37.283 21.1508 37.283 21.1508 37.1887 21.0577C37.1035 20.9743 37.1035 20.9743 37.0165 20.8893C36.8193 20.6545 36.716 20.4344 36.7002 20.1272C36.7443 19.7237 36.7916 19.4526 37.1147 19.1779C37.7652 18.918 38.4412 18.8225 39.1296 18.7163C39.2539 18.6967 39.3782 18.6771 39.5026 18.6574C39.762 18.6165 40.0215 18.5761 40.2811 18.5359C40.6121 18.4847 40.943 18.4325 41.2737 18.3799C41.5301 18.3392 41.7865 18.2991 42.043 18.2592C42.165 18.2401 42.2869 18.2209 42.4088 18.2015C44.0406 17.9429 44.0406 17.9429 44.516 18.1806Z" fill="#B89C17"/>
<path d="M15.4211 15.4326C15.5186 15.4316 15.5186 15.4316 15.6181 15.4306C15.7557 15.4295 15.8933 15.4286 16.0309 15.428C16.2405 15.4266 16.4501 15.423 16.6596 15.4194C16.7935 15.4186 16.9274 15.4179 17.0613 15.4174C17.1547 15.4153 17.1547 15.4153 17.2501 15.4131C17.6709 15.4148 17.9084 15.4976 18.2418 15.7759C18.4531 16.0928 18.4315 16.3661 18.4339 16.7343C18.435 16.8399 18.435 16.8399 18.4361 16.9476C18.4373 17.0967 18.438 17.2457 18.4383 17.3948C18.4393 17.622 18.4432 17.8491 18.4473 18.0763C18.4481 18.2213 18.4487 18.3662 18.4491 18.5112C18.4507 18.5788 18.4522 18.6464 18.4539 18.716C18.4513 19.0535 18.4272 19.2741 18.2137 19.5435C17.7545 19.9738 17.0506 19.8532 16.4536 19.8586C16.3098 19.8604 16.1661 19.8632 16.0223 19.867C15.8142 19.8724 15.6062 19.8746 15.398 19.8762C15.3343 19.8784 15.2707 19.8807 15.2051 19.883C14.7681 19.8814 14.5406 19.7684 14.2175 19.476C13.9735 19.1644 14.0157 18.7776 14.0134 18.3989C14.0129 18.3393 14.0125 18.2798 14.012 18.2185C14.0112 18.0928 14.0107 17.9672 14.0104 17.8415C14.0096 17.6502 14.0071 17.459 14.0045 17.2677C14.004 17.1453 14.0036 17.0228 14.0033 16.9004C14.0018 16.8153 14.0018 16.8153 14.0002 16.7285C14.0022 16.2869 14.1128 15.9693 14.3944 15.6291C14.6935 15.3922 15.0594 15.436 15.4211 15.4326Z" fill="#4D7F72"/>
</svg>
