<svg width="32" height="36" viewBox="0 0 32 36" fill="none" xmlns="http://www.w3.org/2000/svg">
<path d="M13.769 0C17.3451 0 20.9212 0 24.6056 0C24.6056 11.8799 24.6056 23.7597 24.6056 35.9996C21.0296 35.9996 17.4535 35.9996 13.769 35.9996C13.752 34.9862 13.7349 33.9729 13.7174 32.9288C13.7099 32.6122 13.7023 32.2956 13.6946 31.9694C13.6597 29.4305 13.6597 29.4305 14.3902 28.399C14.742 27.8896 14.8921 27.3185 15.0547 26.7242C15.0772 26.642 15.0997 26.5599 15.1229 26.4752C15.5086 24.7581 15.2014 22.8969 14.5037 21.3059C14.3787 21.1189 14.2526 20.9327 14.1254 20.7472C13.6054 19.8957 13.6713 19.0043 13.6856 18.0364C13.6858 17.839 13.6857 17.6416 13.6853 17.4441C13.6851 16.9118 13.6894 16.3795 13.6945 15.8472C13.6992 15.2895 13.6996 14.7318 13.7004 14.1741C13.7027 13.1197 13.7087 12.0653 13.7161 11.0109C13.7259 9.58499 13.7298 8.15903 13.7341 6.73305C13.741 4.48866 13.7557 2.24439 13.769 0ZM17.718 2.29589C17.718 4.9931 17.718 7.69032 17.718 10.4693C18.3847 10.4693 19.0514 10.4693 19.7384 10.4693C19.7384 7.77205 19.7384 5.07484 19.7384 2.29589C19.0716 2.29589 18.4049 2.29589 17.718 2.29589ZM17.718 13.959C17.718 16.6259 17.718 19.2928 17.718 22.0406C18.3847 22.0406 19.0514 22.0406 19.7384 22.0406C19.7384 19.3736 19.7384 16.7067 19.7384 13.959C19.0716 13.959 18.4049 13.959 17.718 13.959ZM17.718 25.5303C17.718 28.2275 17.718 30.9247 17.718 33.7037C18.3847 33.7037 19.0514 33.7037 19.7384 33.7037C19.7384 31.0065 19.7384 28.3093 19.7384 25.5303C19.0716 25.5303 18.4049 25.5303 17.718 25.5303Z" fill="#4D7F72"/>
<path d="M26.626 0C28.1413 0 29.6566 0 31.2178 0C31.2178 11.8799 31.2178 23.7597 31.2178 35.9996C29.7025 35.9996 28.1872 35.9996 26.626 35.9996C26.626 24.1197 26.626 12.2399 26.626 0Z" fill="#4D7F72"/>
<path d="M10.6261 19.4583C12.0364 20.5339 12.9153 21.944 13.2711 23.677C13.6351 26.4238 12.3685 28.5235 10.7653 30.6368C10.616 30.8311 10.4652 31.024 10.314 31.2169C10.0885 31.5091 9.87248 31.807 9.65934 32.1083C9.13431 32.8497 8.59534 33.5806 8.05428 34.3103C7.89243 34.5292 7.73155 34.7488 7.5708 34.9685C7.4711 35.1038 7.37137 35.239 7.27162 35.3742C7.22558 35.4375 7.17954 35.5009 7.13211 35.5661C7.02234 35.7141 6.90648 35.8575 6.78948 35.9998C6.72887 35.9998 6.66825 35.9998 6.60581 35.9998C6.49577 35.8758 6.49577 35.8758 6.37191 35.6996C6.32528 35.634 6.27864 35.5684 6.23059 35.5009C6.18016 35.4288 6.12972 35.3567 6.07775 35.2824C5.96914 35.1295 5.86044 34.9767 5.75166 34.8239C5.69548 34.7448 5.63929 34.6656 5.5814 34.584C5.31646 34.2131 5.04585 33.8466 4.77483 33.4801C4.7216 33.408 4.66836 33.3359 4.61352 33.2615C4.45117 33.0416 4.28872 32.8218 4.12624 32.6019C3.74979 32.0926 3.37379 31.5829 2.99893 31.0724C2.89331 30.9288 2.78749 30.7853 2.68145 30.642C1.196 28.6335 -0.196862 26.6168 0.128166 23.992C0.402368 22.1981 1.26857 20.733 2.65687 19.5613C5.06766 17.8515 8.18242 17.8051 10.6261 19.4583ZM3.91961 22.4311C3.2773 23.2394 2.9188 24.2209 3.02422 25.2551C3.19765 26.249 3.66822 27.2157 4.49359 27.8265C5.44286 28.3792 6.33877 28.7313 7.44309 28.5016C8.5201 28.2051 9.31408 27.6768 9.91189 26.7244C10.4265 25.747 10.551 24.7331 10.2218 23.6594C9.87446 22.7448 9.21447 22.0087 8.34494 21.553C6.80017 20.8594 5.07884 21.1775 3.91961 22.4311Z" fill="#B89C17"/>
<path d="M7.15686 0C8.67215 0 10.1874 0 11.7486 0C11.7486 5.87932 11.7486 11.7586 11.7486 17.8161C11.4134 17.682 11.102 17.5394 10.7828 17.3737C9.57886 16.7512 8.53441 16.498 7.15686 16.2549C7.15686 10.8908 7.15686 5.52667 7.15686 0Z" fill="#4D7F72"/>
<path d="M7.45131 23.3004C7.89555 23.5404 8.19175 23.8597 8.35065 24.3364C8.3952 24.8425 8.42112 25.2893 8.20142 25.7541C7.51225 26.4977 7.51225 26.4977 6.97491 26.5623C6.43431 26.5805 6.04207 26.4849 5.59558 26.1731C5.21417 25.7817 5.05965 25.4417 5.01587 24.8989C5.03148 24.4374 5.14559 24.0565 5.47505 23.7179C6.0589 23.2071 6.68064 23.0494 7.45131 23.3004Z" fill="#4D7F72"/>
<path d="M11.5651 32.6934C11.6257 32.6934 11.6863 32.6934 11.7487 32.6934C11.7487 33.7844 11.7487 34.8754 11.7487 35.9994C10.9305 35.9994 10.1122 35.9994 9.26917 35.9994C9.68191 35.2771 9.68191 35.2771 9.88439 35.0144C9.92874 34.9562 9.97309 34.898 10.0188 34.838C10.065 34.7781 10.1112 34.7181 10.1588 34.6563C10.5952 34.0845 11.0078 33.5024 11.4051 32.9029C11.4579 32.8337 11.5107 32.7646 11.5651 32.6934Z" fill="#4D7F72"/>
</svg>
