<svg width="38" height="38" viewBox="0 0 38 38" fill="none" xmlns="http://www.w3.org/2000/svg">
<path d="M1.82577 17.064C1.91818 17.0632 1.91818 17.0632 2.01247 17.0625C2.21995 17.0613 2.42735 17.0626 2.63483 17.0639C2.78466 17.0636 2.9345 17.0631 3.08433 17.0624C3.49687 17.0611 3.90938 17.062 4.32192 17.0633C4.7665 17.0643 5.21108 17.0632 5.65567 17.0624C6.52693 17.0612 7.39818 17.0619 8.26944 17.0632C9.28339 17.0647 10.2973 17.0644 11.3113 17.0641C13.12 17.0635 14.9288 17.0648 16.7375 17.067C18.4939 17.0691 20.2503 17.0697 22.0066 17.0688C23.9178 17.0678 25.8289 17.0676 27.74 17.0689C27.9437 17.069 28.1474 17.0692 28.351 17.0693C28.4512 17.0694 28.5515 17.0695 28.6547 17.0695C29.362 17.0699 30.0693 17.0698 30.7766 17.0694C31.6382 17.069 32.4998 17.0695 33.3614 17.0713C33.8012 17.0721 34.2411 17.0726 34.681 17.0719C35.0833 17.0713 35.4855 17.0719 35.8878 17.0735C36.0337 17.0738 36.1796 17.0737 36.3255 17.0731C36.5232 17.0724 36.7207 17.0733 36.9184 17.0747C37.0284 17.0747 37.1383 17.0748 37.2516 17.0749C37.5512 17.1112 37.6737 17.1613 37.8833 17.3748C38.0017 17.73 37.9919 18.0571 37.9943 18.4291C37.997 18.536 37.997 18.536 37.9998 18.6451C38.0026 19.0659 37.9777 19.3404 37.7057 19.6831C37.5363 19.8024 37.3877 19.8531 37.1855 19.8947C36.7322 19.9884 36.4947 20.105 36.1964 20.4822C36.0097 20.8533 35.992 21.1784 35.9821 21.5909C35.9804 21.6533 35.9787 21.7158 35.9769 21.7801C35.9716 21.9782 35.9675 22.1763 35.9634 22.3744C35.96 22.5092 35.9565 22.6441 35.953 22.7789C35.9443 23.1083 35.9373 23.4377 35.9301 23.7671C35.4027 23.7671 34.8753 23.7671 34.332 23.7671C34.2147 23.4192 34.2147 23.4192 34.0951 23.0642C34.0182 22.8387 33.9407 22.6133 33.8633 22.388C33.8098 22.2319 33.7569 22.0756 33.7044 21.9191C33.6287 21.6937 33.5514 21.4689 33.4736 21.2441C33.4507 21.1745 33.4277 21.105 33.4041 21.0333C33.2368 20.5567 33.029 20.1858 32.5563 19.9495C32.4129 19.9408 32.2692 19.9378 32.1256 19.9376C32.034 19.9372 31.9424 19.9368 31.8481 19.9364C31.7467 19.9364 31.6453 19.9364 31.5409 19.9364C31.4338 19.9361 31.3267 19.9358 31.2164 19.9354C30.9182 19.9346 30.62 19.9342 30.3218 19.934C30.0005 19.9336 29.6793 19.9328 29.358 19.932C28.5817 19.9302 27.8054 19.9293 27.0291 19.9286C26.6637 19.9282 26.2983 19.9277 25.933 19.9272C24.7186 19.9257 23.5043 19.9244 22.29 19.9238C21.9748 19.9236 21.6595 19.9234 21.3443 19.9233C21.2659 19.9232 21.1876 19.9232 21.1069 19.9231C19.8373 19.9224 18.5677 19.9201 17.2981 19.9173C15.9953 19.9143 14.6924 19.9127 13.3896 19.9124C12.6579 19.9123 11.9261 19.9115 11.1944 19.9092C10.5713 19.9073 9.94814 19.9066 9.32501 19.9074C9.00703 19.9078 8.68908 19.9077 8.3711 19.9059C8.02644 19.9041 7.68181 19.905 7.33713 19.9062C7.18626 19.9047 7.18626 19.9047 7.03234 19.9032C6.48801 19.9077 6.15294 19.9311 5.74389 20.3046C5.34821 20.9384 5.15641 21.678 4.9282 22.3855C4.86838 22.5698 4.8084 22.7541 4.74811 22.9384C4.69401 23.1038 4.64043 23.2694 4.58687 23.435C4.50093 23.6784 4.50093 23.6784 4.41215 23.7671C4.29294 23.7748 4.17334 23.7766 4.05389 23.7758C3.98208 23.7755 3.91026 23.7752 3.83627 23.7749C3.76079 23.7742 3.68531 23.7735 3.60755 23.7727C3.53173 23.7723 3.45591 23.7719 3.37779 23.7715C3.18987 23.7704 3.00196 23.7688 2.81405 23.7671C2.81281 23.6342 2.81281 23.6342 2.81154 23.4985C2.80798 23.1679 2.80214 22.8373 2.79563 22.5067C2.79313 22.3639 2.79124 22.2212 2.78999 22.0784C2.78808 21.8725 2.78393 21.6667 2.77937 21.4609C2.77926 21.3976 2.77915 21.3343 2.77904 21.2691C2.76602 20.82 2.64995 20.5635 2.37014 20.2158C2.04315 19.9542 1.71705 19.8961 1.31237 19.8361C1.06314 19.7497 0.997993 19.6398 0.860827 19.4168C0.806576 19.0932 0.819656 18.7678 0.821985 18.4402C0.820211 18.3516 0.818437 18.263 0.816609 18.1717C0.816667 18.0864 0.816724 18.001 0.816783 17.913C0.816618 17.8353 0.816454 17.7576 0.816284 17.6775C0.93166 17.1233 1.32154 17.064 1.82577 17.064Z" fill="#B89C17"/>
<path d="M12.0474 21.0149C13.8346 21.0149 15.6218 21.0149 17.4632 21.0149C17.4672 23.1156 17.4704 25.2162 17.4724 27.3169C17.4733 28.2923 17.4745 29.2676 17.4766 30.2429C17.4783 31.0929 17.4795 31.9429 17.4799 32.7928C17.4801 33.243 17.4807 33.6932 17.4819 34.1434C17.4831 34.5669 17.4835 34.9904 17.4833 35.4139C17.4833 35.5696 17.4837 35.7252 17.4843 35.8808C17.4852 36.0929 17.485 36.3051 17.4845 36.5172C17.485 36.5791 17.4856 36.6409 17.4861 36.7046C17.4841 37.022 17.4693 37.2636 17.2856 37.5285C17.0145 37.6641 16.7309 37.6327 16.4334 37.6344C16.3638 37.6352 16.2942 37.6359 16.2225 37.6366C15.9917 37.6388 15.7609 37.6403 15.5301 37.6416C15.4513 37.6421 15.3726 37.6425 15.2915 37.643C14.8749 37.6454 14.4583 37.6471 14.0416 37.6484C13.6109 37.6499 13.1802 37.6538 12.7495 37.6584C12.4187 37.6613 12.0878 37.6624 11.7569 37.6629C11.5981 37.6635 11.4393 37.6648 11.2806 37.667C11.0584 37.6698 10.8364 37.6698 10.6143 37.6691C10.5486 37.6706 10.4829 37.672 10.4152 37.6735C10.1137 37.6699 9.93837 37.6325 9.6899 37.4587C9.48434 37.002 9.57907 36.5941 9.65027 36.108C9.67314 35.9433 9.67314 35.9433 9.69647 35.7753C9.75094 35.3931 9.81086 35.0117 9.87084 34.6302C9.89348 34.4844 9.91609 34.3386 9.93867 34.1928C9.9996 33.8001 10.061 33.4074 10.1225 33.0148C10.1869 32.603 10.2509 32.1911 10.315 31.7792C10.4225 31.0886 10.5303 30.3981 10.6383 29.7076C10.7632 28.9091 10.8877 28.1105 11.0119 27.3119C11.1315 26.5426 11.2515 25.7733 11.3715 25.0041C11.4226 24.677 11.4736 24.3498 11.5245 24.0227C11.5843 23.6382 11.6444 23.2538 11.7046 22.8695C11.7267 22.7283 11.7487 22.5871 11.7706 22.4459C11.8005 22.2535 11.8307 22.0613 11.8609 21.869C11.8777 21.7613 11.8946 21.6536 11.9119 21.5426C11.9586 21.2812 11.9586 21.2812 12.0474 21.0149Z" fill="#4D7F72"/>
<path d="M21.3696 21.0149C23.1568 21.0149 24.944 21.0149 26.7854 21.0149C26.9415 21.8473 27.0964 22.6761 27.2267 23.5124C27.2414 23.6064 27.2414 23.6064 27.2564 23.7024C27.2716 23.7997 27.2716 23.7997 27.2872 23.899C27.3092 24.039 27.3312 24.179 27.3533 24.3191C27.4247 24.7724 27.4956 25.2257 27.5664 25.6791C27.591 25.8363 27.6156 25.9935 27.6402 26.1507C27.7556 26.888 27.8708 27.6254 27.9857 28.3628C28.1179 29.2112 28.2508 30.0595 28.3844 30.9077C28.488 31.5661 28.591 32.2246 28.6934 32.8832C28.7544 33.2755 28.8157 33.6678 28.8778 34.06C28.936 34.428 28.9934 34.7961 29.0501 35.1643C29.071 35.2991 29.0922 35.4338 29.1138 35.5685C29.1432 35.7528 29.1715 35.9372 29.1995 36.1216C29.2237 36.2761 29.2237 36.2761 29.2483 36.4337C29.2777 36.8108 29.2758 37.1847 29.0872 37.5208C28.8127 37.6757 28.5287 37.6542 28.2219 37.6518C28.116 37.6525 28.116 37.6525 28.0079 37.6532C27.7742 37.6544 27.5407 37.6536 27.307 37.6527C27.1448 37.6529 26.9826 37.6531 26.8204 37.6535C26.4804 37.6538 26.1403 37.6533 25.8003 37.652C25.3641 37.6505 24.9279 37.6514 24.4917 37.653C24.1568 37.6539 23.8218 37.6536 23.4868 37.6529C23.326 37.6528 23.1651 37.653 23.0043 37.6536C22.7796 37.6543 22.555 37.6533 22.3303 37.6518C22.2636 37.6523 22.1969 37.6528 22.1282 37.6534C21.6848 37.648 21.6848 37.648 21.4857 37.5228C21.31 37.2627 21.3339 37.0018 21.3376 36.6987C21.3374 36.6318 21.3372 36.5649 21.3369 36.4959C21.3365 36.271 21.338 36.0461 21.3394 35.8211C21.3395 35.6601 21.3394 35.4992 21.3393 35.3382C21.3392 34.9005 21.3408 34.4629 21.3426 34.0252C21.3443 33.5681 21.3445 33.1109 21.3448 32.6538C21.3456 31.7879 21.3478 30.9219 21.3505 30.056C21.3534 29.0703 21.3549 28.0845 21.3562 27.0988C21.359 25.0708 21.3639 23.0429 21.3696 21.0149Z" fill="#4D7F72"/>
<path d="M33.295 0.55065C33.3995 0.550521 33.504 0.550391 33.6116 0.550258C33.8318 0.550405 34.0519 0.551428 34.272 0.553273C34.6089 0.555848 34.9457 0.555101 35.2826 0.553945C35.4968 0.554498 35.711 0.555243 35.9252 0.556199C36.0258 0.555938 36.1265 0.555678 36.2301 0.555409C36.3241 0.556535 36.418 0.557661 36.5148 0.558822C36.5971 0.559301 36.6795 0.559781 36.7643 0.560275C37.1531 0.618155 37.4379 0.82119 37.6835 1.12184C37.961 1.4995 37.9832 1.7649 37.9828 2.22638C37.9829 2.37166 37.9829 2.37166 37.9831 2.51988C37.9826 2.67861 37.9826 2.67861 37.9822 2.84054C37.9822 2.9523 37.9822 3.06406 37.9822 3.1792C37.9822 3.48533 37.9817 3.79145 37.9811 4.09757C37.9805 4.41762 37.9805 4.73767 37.9804 5.05771C37.9801 5.66361 37.9794 6.26951 37.9785 6.87542C37.9773 7.69428 37.9768 8.51314 37.9763 9.332C37.9755 10.622 37.9737 11.9119 37.9721 13.2019C35.7454 13.2019 33.5187 13.2019 31.2246 13.2019C31.2246 12.7624 31.2246 12.3229 31.2246 11.8701C31.0378 11.8775 30.851 11.8848 30.6586 11.8923C29.855 11.8891 29.2979 11.7354 28.7054 11.1821C28.0963 10.5226 27.925 9.88667 27.9309 9.00549C27.9311 8.93505 27.9312 8.86461 27.9313 8.79204C27.9318 8.5677 27.9329 8.34338 27.9341 8.11905C27.9345 7.96668 27.9349 7.81432 27.9353 7.66196C27.9362 7.28902 27.9379 6.91609 27.9396 6.54315C28.4084 6.54315 28.8772 6.54315 29.3601 6.54315C29.3624 6.75488 29.3647 6.96661 29.3671 7.18475C29.3705 7.39104 29.3745 7.59731 29.3786 7.80358C29.3811 7.94634 29.3829 8.08912 29.3842 8.23189C29.3861 8.4378 29.3902 8.64356 29.3948 8.84943C29.3949 8.91271 29.395 8.97599 29.3951 9.04118C29.4082 9.49044 29.5251 9.74606 29.804 10.0945C30.1028 10.357 30.3682 10.381 30.7526 10.4118C30.8409 10.4191 30.9291 10.4264 31.0201 10.4339C31.0876 10.4391 31.1551 10.4443 31.2246 10.4496C31.2238 10.3411 31.223 10.2325 31.2222 10.1207C31.215 9.09659 31.2097 8.07249 31.2062 7.04837C31.2043 6.52189 31.2018 5.99543 31.1978 5.46896C31.1939 4.96065 31.1918 4.45236 31.1909 3.94403C31.1902 3.75034 31.1889 3.55665 31.187 3.36297C31.1844 3.09115 31.1841 2.8194 31.1843 2.54757C31.1823 2.42812 31.1823 2.42812 31.1804 2.30625C31.1838 1.78631 31.2775 1.38069 31.5797 0.949826C32.1065 0.513375 32.6321 0.544055 33.295 0.55065ZM32.8393 2.55347C32.5785 2.97895 32.6255 3.42521 32.6229 3.90741C32.6211 3.99067 32.6192 4.07393 32.6174 4.15971C32.6147 4.6372 32.6389 4.97852 32.9114 5.38897C33.4602 5.88419 33.861 5.85435 34.5761 5.86063C34.6725 5.86321 34.7689 5.86578 34.8681 5.86844C35.2832 5.87173 35.5917 5.86402 35.9758 5.69798C36.4323 5.24224 36.596 4.78078 36.6001 4.14012C36.5987 4.06882 36.5974 3.99752 36.5959 3.92405C36.5973 3.85275 36.5987 3.78145 36.6001 3.70799C36.596 3.06776 36.4335 2.60446 35.9745 2.15117C35.5161 1.95065 35.0931 1.96366 34.5983 1.97083C34.5036 1.96946 34.4088 1.96808 34.3112 1.96667C33.6472 1.96997 33.2874 2.04359 32.8393 2.55347ZM32.6451 7.69733C32.6451 7.97637 32.6772 8.14274 32.8293 8.37694C33.0965 8.56363 33.3791 8.53434 33.6935 8.53175C33.7951 8.53213 33.7951 8.53213 33.8988 8.53252C34.042 8.5327 34.1852 8.53221 34.3284 8.5311C34.5473 8.52968 34.766 8.53109 34.9848 8.53279C35.1241 8.53262 35.2633 8.53227 35.4026 8.53175C35.4679 8.53229 35.5332 8.53283 35.6005 8.53338C35.881 8.52954 36.0776 8.51328 36.3244 8.37452C36.5094 8.18137 36.5386 8.05155 36.5515 7.78611C36.482 7.56476 36.423 7.46404 36.2304 7.3342C35.9416 7.2239 35.664 7.22286 35.3589 7.22047C35.2954 7.21967 35.2319 7.21887 35.1665 7.21804C35.0326 7.21675 34.8986 7.21596 34.7647 7.21564C34.5604 7.21458 34.3564 7.21021 34.1522 7.20573C34.0217 7.20489 33.8912 7.20425 33.7608 7.20382C33.7001 7.20209 33.6394 7.20035 33.5769 7.19857C33.1184 7.20287 32.9197 7.33688 32.6451 7.69733Z" fill="#B89C17"/>
<path d="M16.2979 0.56148C16.3703 0.558161 16.4428 0.554842 16.5174 0.551422C16.5876 0.550392 16.6577 0.549362 16.73 0.548301C16.794 0.546541 16.8579 0.544782 16.9238 0.542969C17.2126 0.624173 17.3014 0.792072 17.4631 1.03869C17.5068 1.32487 17.5068 1.32487 17.5059 1.65495C17.5062 1.71588 17.5065 1.7768 17.5068 1.83957C17.5074 2.04313 17.5054 2.24658 17.5035 2.45013C17.5034 2.59627 17.5034 2.74241 17.5036 2.88855C17.5037 3.28493 17.5016 3.68128 17.4992 4.07765C17.4969 4.49201 17.4967 4.90638 17.4963 5.32075C17.4952 6.10525 17.4923 6.88974 17.4887 7.67424C17.4848 8.56742 17.4828 9.46061 17.481 10.3538C17.4773 12.191 17.4708 14.0282 17.4631 15.8654C15.9396 15.8654 14.4161 15.8654 12.8464 15.8654C12.9598 14.9019 13.0792 13.9449 13.2274 12.987C13.2471 12.8582 13.2668 12.7294 13.2865 12.6006C13.3393 12.2561 13.3924 11.9117 13.4456 11.5673C13.4789 11.3516 13.5122 11.1358 13.5454 10.92C13.6498 10.2431 13.7544 9.56613 13.8593 8.88924C13.9799 8.11095 14.0998 7.33255 14.219 6.55404C14.3116 5.94928 14.405 5.34462 14.4988 4.74005C14.5547 4.38006 14.6102 4.02004 14.6651 3.65989C14.7166 3.32214 14.7689 2.98452 14.8219 2.647C14.8411 2.52343 14.86 2.39981 14.8786 2.27615C14.9041 2.10697 14.9309 1.93798 14.9577 1.769C14.9722 1.67455 14.9868 1.5801 15.0018 1.4828C15.0733 1.18576 15.1794 0.947581 15.3324 0.683556C15.6341 0.532684 15.9652 0.567206 16.2979 0.56148Z" fill="#4D7F72"/>
<path d="M22.0965 0.54753C22.2006 0.546843 22.2006 0.546843 22.3067 0.546143C22.3783 0.547516 22.45 0.548889 22.5238 0.550304C22.5954 0.548931 22.6671 0.547558 22.7409 0.546143C22.8103 0.5466 22.8796 0.547058 22.9511 0.54753C23.0453 0.548131 23.0453 0.548131 23.1415 0.548744C23.4084 0.616358 23.5046 0.736827 23.678 0.949828C23.7633 1.24737 23.7633 1.24737 23.8197 1.59717C23.8303 1.65997 23.8408 1.72277 23.8517 1.78747C23.8839 1.98157 23.9142 2.17592 23.9443 2.37035C23.9627 2.48208 23.9812 2.5938 24.0001 2.70891C24.0559 3.04974 24.1092 3.39089 24.162 3.73218C24.1822 3.86128 24.2023 3.99036 24.2225 4.11945C24.2764 4.46494 24.3301 4.81047 24.3837 5.15602C24.4286 5.44557 24.4737 5.7351 24.5188 6.02463C24.625 6.70704 24.731 7.3895 24.8369 8.07197C24.946 8.77526 25.0554 9.4785 25.165 10.1817C25.2595 10.7876 25.3537 11.3936 25.4478 11.9995C25.5039 12.3606 25.56 12.7216 25.6163 13.0827C25.6691 13.421 25.7216 13.7595 25.7739 14.0979C25.7932 14.2221 25.8125 14.3462 25.8319 14.4703C25.8584 14.6396 25.8845 14.8089 25.9106 14.9782C25.9253 15.073 25.94 15.1677 25.9552 15.2653C25.9863 15.5102 25.9863 15.5102 25.9863 15.8654C24.4628 15.8654 22.9393 15.8654 21.3696 15.8654C21.3616 13.9268 21.3551 11.9882 21.3512 10.0495C21.3494 9.14942 21.3469 8.24932 21.3428 7.34922C21.3393 6.56482 21.337 5.78042 21.3362 4.99601C21.3357 4.58056 21.3347 4.16512 21.3321 3.74967C21.3297 3.35878 21.3289 2.96793 21.3295 2.57703C21.3294 2.43344 21.3287 2.28984 21.3273 2.14626C21.3255 1.95039 21.3259 1.75465 21.3269 1.55879C21.3266 1.44912 21.3263 1.33946 21.3259 1.22647C21.3971 0.775732 21.6412 0.550433 22.0965 0.54753Z" fill="#4D7F72"/>
<path d="M32.5563 14.4448C33.904 14.4448 35.2517 14.4448 36.6403 14.4448C36.6403 14.9136 36.6403 15.3824 36.6403 15.8654C35.2926 15.8654 33.9448 15.8654 32.5563 15.8654C32.5563 15.3966 32.5563 14.9278 32.5563 14.4448Z" fill="#B89C17"/>
<path d="M27.9396 2.54785C28.6134 2.54785 29.2873 2.54785 29.9816 2.54785C29.9816 3.4561 29.9816 4.36435 29.9816 5.30012C29.3077 5.30012 28.6339 5.30012 27.9396 5.30012C27.9396 4.39187 27.9396 3.48362 27.9396 2.54785Z" fill="#B89C17"/>
<path d="M33.8881 3.2583C34.3568 3.2583 34.8256 3.2583 35.3086 3.2583C35.3086 3.69778 35.3086 4.13725 35.3086 4.59004C34.8398 4.59004 34.371 4.59004 33.8881 4.59004C33.8881 4.15057 33.8881 3.71109 33.8881 3.2583Z" fill="#4D7F72"/>
</svg>
