<svg width="39" height="39" viewBox="0 0 39 39" fill="none" xmlns="http://www.w3.org/2000/svg">
<path d="M11.1169 18C11.1899 18.0004 11.2628 18.0007 11.3379 18.0011C11.4143 18.0011 11.4907 18.0011 11.5695 18.0011C11.8233 18.0011 12.0771 18.0019 12.331 18.0027C12.5065 18.0029 12.682 18.003 12.8575 18.0031C13.3204 18.0035 13.7833 18.0045 14.2462 18.0056C14.7181 18.0066 15.1901 18.0071 15.662 18.0076C16.5888 18.0087 17.5155 18.0104 18.4422 18.0125C18.447 18.1169 18.4518 18.2213 18.4568 18.3289C18.4641 18.4668 18.4715 18.6048 18.479 18.7428C18.482 18.8114 18.485 18.8801 18.4882 18.9509C18.5174 19.4698 18.5174 19.4698 18.736 19.9262C19.1274 20.163 19.3362 20.2416 19.7888 20.1717C20.115 20.0233 20.233 19.9407 20.4009 19.6241C20.5674 19.1105 20.5564 18.5523 20.5968 18.0125C23.1822 18.0125 25.7677 18.0125 28.4315 18.0125C29.039 21.3218 29.6461 24.6311 30.252 27.9407C30.2645 28.0094 30.2771 28.078 30.29 28.1487C30.3399 28.421 30.3897 28.6932 30.4395 28.9655C30.598 29.8314 30.7567 30.6972 30.9156 31.563C31.0575 32.3363 31.199 33.1096 31.3398 33.883C31.4067 34.2506 31.4738 34.6181 31.5415 34.9855C31.6142 35.3808 31.6861 35.7762 31.7578 36.1717C31.7888 36.3391 31.7888 36.3391 31.8205 36.5098C32.0574 37.8289 32.0574 37.8289 31.8347 38.3329C31.5824 38.6665 31.3672 38.8289 30.9777 38.9624C30.8348 38.9713 30.6915 38.9747 30.5483 38.9745C30.4167 38.9747 30.4167 38.9747 30.2824 38.9749C30.1864 38.9746 30.0904 38.9742 29.9915 38.9738C29.8902 38.9739 29.7889 38.9739 29.6845 38.9739C29.3491 38.9738 29.0136 38.973 28.6782 38.9722C28.4459 38.9721 28.2136 38.9719 27.9812 38.9718C27.3693 38.9714 26.7573 38.9704 26.1454 38.9693C25.5211 38.9683 24.8968 38.9678 24.2725 38.9673C23.0473 38.9662 21.822 38.9645 20.5968 38.9624C20.5912 38.8728 20.5856 38.7832 20.5799 38.6908C20.568 38.5142 20.568 38.5142 20.5559 38.3341C20.5483 38.2174 20.5407 38.1008 20.5328 37.9806C20.4842 37.5118 20.4036 37.1157 20.0337 36.8032C19.7138 36.721 19.4565 36.711 19.1278 36.7466C18.8581 36.9274 18.6845 37.054 18.5402 37.3509C18.5174 37.6241 18.4991 37.8955 18.4851 38.1692C18.4788 38.2832 18.4788 38.2832 18.4723 38.3994C18.4619 38.587 18.452 38.7747 18.4422 38.9624C17.0861 38.9695 15.73 38.9748 14.3739 38.9781C13.7442 38.9796 13.1145 38.9818 12.4848 38.9852C11.8771 38.9885 11.2694 38.9903 10.6617 38.9911C10.4298 38.9916 10.198 38.9927 9.96613 38.9944C9.64141 38.9965 9.31673 38.9968 8.99199 38.9967C8.89612 38.9978 8.80025 38.9989 8.70147 39C8.10059 38.9972 7.64994 38.9325 7.19825 38.484C6.90789 37.9182 6.99094 37.3342 7.10543 36.7302C7.11968 36.6503 7.13392 36.5704 7.1486 36.4881C7.19636 36.2216 7.24567 35.9556 7.29499 35.6894C7.32964 35.498 7.3642 35.3065 7.39867 35.1151C7.49239 34.5961 7.58745 34.0775 7.68279 33.5588C7.78229 33.0164 7.88062 32.4736 7.97909 31.931C8.14452 31.0203 8.31076 30.1098 8.47756 29.1994C8.69192 28.0293 8.90491 26.859 9.11747 25.6886C9.30001 24.6835 9.48321 23.6786 9.66651 22.6736C9.72552 22.3499 9.78445 22.0261 9.84335 21.7024C9.93574 21.1949 10.0285 20.6875 10.1216 20.1801C10.1558 19.9934 10.1899 19.8066 10.2238 19.6199C10.27 19.366 10.3166 19.1123 10.3633 18.8586C10.3768 18.7837 10.3903 18.7089 10.4043 18.6317C10.5136 18.0434 10.5305 18.0012 11.1169 18ZM18.6381 23.0486C18.3185 23.5486 18.4021 24.1637 18.4006 24.7396C18.3994 24.9484 18.3946 25.1568 18.3896 25.3655C18.3581 26.166 18.3581 26.166 18.6775 26.8641C19.074 27.1965 19.3001 27.2221 19.8133 27.1781C20.1416 27.0061 20.3454 26.8881 20.5135 26.5464C20.6691 26.0331 20.6288 25.5019 20.6274 24.9685C20.629 24.851 20.6305 24.7334 20.6322 24.6123C20.6326 23.9135 20.6109 23.4004 20.1377 22.8597C19.6126 22.597 19.0806 22.6738 18.6381 23.0486ZM18.736 29.8976C18.3216 30.4559 18.3946 31.0769 18.3986 31.7455C18.3994 31.9617 18.3966 32.1777 18.3935 32.3939C18.3933 32.5323 18.3934 32.6707 18.3937 32.809C18.3935 32.934 18.3933 33.0589 18.3931 33.1877C18.4509 33.5825 18.5638 33.7459 18.834 34.0271C19.1214 34.1983 19.285 34.2302 19.6175 34.216C19.9637 34.1121 20.1463 33.9868 20.4009 33.7249C20.6806 33.1435 20.6291 32.5533 20.6274 31.9183C20.629 31.8007 20.6305 31.6831 20.6322 31.562C20.6399 30.7346 20.6399 30.7346 20.303 29.9983C19.73 29.5219 19.3633 29.4995 18.736 29.8976Z" fill="#4D7F72"/>
<path d="M8.10751 11.0397C8.23125 11.039 8.23125 11.039 8.35749 11.0383C8.49342 11.0383 8.49342 11.0383 8.6321 11.0384C8.72837 11.038 8.82465 11.0376 8.92384 11.0372C9.24791 11.0361 9.57197 11.0357 9.89604 11.0353C10.1278 11.0347 10.3596 11.034 10.5913 11.0333C11.222 11.0315 11.8526 11.0304 12.4833 11.0295C12.8771 11.029 13.2708 11.0284 13.6646 11.0277C14.7548 11.026 15.845 11.0245 16.9352 11.0238C17.2181 11.0236 17.501 11.0234 17.7838 11.0232C17.8893 11.0231 17.8893 11.0231 17.9969 11.023C19.1361 11.0222 20.2753 11.0196 21.4145 11.0162C22.5841 11.0128 23.7536 11.011 24.9232 11.0107C25.5799 11.0104 26.2366 11.0095 26.8933 11.0069C27.5109 11.0045 28.1285 11.0041 28.7461 11.0052C28.9729 11.0052 29.1998 11.0046 29.4266 11.0032C29.736 11.0013 30.0453 11.0021 30.3547 11.0034C30.4897 11.0017 30.4897 11.0017 30.6273 11C31.1853 11.0059 31.4871 11.088 31.9163 11.4639C32.0932 11.7382 32.1148 11.8474 32.1148 12.1822C32.2372 12.1786 32.2372 12.1786 32.3621 12.175C33.5836 12.1546 34.6978 12.2777 35.6433 13.1542C36.5439 14.141 36.7275 15.2808 36.7085 16.5957C36.7081 16.708 36.7077 16.8202 36.7073 16.9359C36.7056 17.2903 36.7019 17.6446 36.6981 17.999C36.6966 18.241 36.6952 18.483 36.694 18.7251C36.6907 19.3146 36.6858 19.9042 36.6795 20.4937C36.7883 20.489 36.8972 20.4842 37.0093 20.4793C37.1537 20.4754 37.298 20.4717 37.4423 20.4681C37.5139 20.4646 37.5855 20.4612 37.6592 20.4576C38.0325 20.4506 38.2253 20.4682 38.5544 20.6685C38.9577 21.1234 38.9869 21.5487 38.9891 22.1517C38.9898 22.2597 38.9898 22.2597 38.9906 22.3698C38.992 22.6068 38.9919 22.8437 38.9917 23.0807C38.992 23.2461 38.9925 23.4116 38.9929 23.5771C38.9937 23.9237 38.9937 24.2702 38.9931 24.6168C38.9926 25.0597 38.9942 25.5026 38.9965 25.9455C38.998 26.2872 38.9981 26.6289 38.9978 26.9707C38.9978 27.1339 38.9983 27.2971 38.9993 27.4604C39.0006 27.6892 38.9999 27.918 38.9988 28.1468C38.9988 28.2768 38.9989 28.4067 38.9989 28.5406C38.9455 29.0691 38.8389 29.4786 38.4317 29.8223C38.1417 29.9451 37.9328 29.9742 37.6201 29.9771C37.5128 29.9787 37.4054 29.9803 37.2949 29.982C37.1225 29.982 37.1225 29.982 36.9465 29.9821C36.8275 29.9829 36.7085 29.9836 36.5858 29.9844C36.3344 29.9856 36.0829 29.9858 35.8314 29.9854C35.447 29.9853 35.0628 29.9896 34.6784 29.9941C34.4338 29.9946 34.1893 29.9949 33.9448 29.9949C33.83 29.9966 33.7153 29.9983 33.597 30C32.7076 29.9921 32.7076 29.9921 32.3415 29.6929C31.9874 29.2681 31.9996 28.8972 31.9964 28.3626C31.9956 28.2865 31.9948 28.2104 31.994 28.1319C31.9915 27.8801 31.9899 27.6282 31.9884 27.3763C31.9879 27.2902 31.9874 27.2041 31.9868 27.1153C31.9842 26.6596 31.9823 26.2038 31.9808 25.748C31.9795 25.371 31.9767 24.9942 31.9727 24.6172C31.9678 24.1618 31.9653 23.7064 31.9646 23.2509C31.964 23.0776 31.9624 22.9043 31.9601 22.7309C31.9569 22.488 31.9569 22.2453 31.9577 22.0023C31.956 21.9311 31.9544 21.8599 31.9527 21.7866C31.9598 21.216 32.1362 20.9835 32.5117 20.5963C32.8281 20.4328 33.1695 20.4833 33.5164 20.4873C33.5913 20.4878 33.6661 20.4882 33.7432 20.4887C33.9281 20.4899 34.113 20.4918 34.2979 20.4937C34.2912 19.8016 34.2823 19.1096 34.2719 18.4176C34.2686 18.1822 34.2658 17.9468 34.2635 17.7114C34.2602 17.3729 34.255 17.0344 34.2494 16.6959C34.2485 16.5383 34.2485 16.5383 34.2475 16.3774C34.2377 15.6644 34.2377 15.6644 33.901 15.0553C33.3674 14.6592 32.7493 14.6757 32.1148 14.6449C32.1087 14.7359 32.1025 14.8269 32.0962 14.9206C31.9963 15.3419 31.8381 15.499 31.5194 15.7736C31.2505 15.8663 31.0955 15.8893 30.8194 15.89C30.7373 15.8904 30.6552 15.8909 30.5705 15.8914C30.4803 15.8913 30.39 15.8913 30.2971 15.8913C30.2012 15.8917 30.1053 15.8921 30.0066 15.8924C29.6839 15.8936 29.3612 15.894 29.0385 15.8944C28.8077 15.895 28.5769 15.8957 28.3461 15.8964C27.7181 15.8982 27.0902 15.8993 26.4622 15.9001C26.07 15.9006 25.6779 15.9013 25.2858 15.9019C24.2002 15.9036 23.1146 15.9052 22.029 15.9059C21.7473 15.9061 21.4657 15.9063 21.184 15.9065C21.079 15.9066 21.079 15.9066 20.9718 15.9066C19.8374 15.9075 18.703 15.9101 17.5686 15.9134C16.404 15.9168 15.2394 15.9187 14.0747 15.919C13.4208 15.9192 12.7669 15.9202 12.113 15.9227C11.498 15.9251 10.883 15.9256 10.268 15.9245C10.0421 15.9245 9.81624 15.9251 9.59039 15.9265C9.28227 15.9283 8.97425 15.9276 8.66613 15.9262C8.57656 15.9274 8.48699 15.9285 8.39471 15.9297C7.85266 15.9239 7.53457 15.8458 7.10831 15.4658C6.81062 14.9527 6.81062 14.9527 6.81062 14.6449C5.87034 14.6723 5.87034 14.6723 5.02444 15.0553C4.81043 15.3873 4.79995 15.4851 4.79433 15.8691C4.79236 15.9718 4.79039 16.0745 4.78836 16.1803C4.78664 16.3462 4.78664 16.3462 4.78489 16.5155C4.78296 16.629 4.78104 16.7424 4.77906 16.8593C4.77312 17.2221 4.76852 17.5849 4.76395 17.9477C4.76017 18.1934 4.75629 18.4392 4.75233 18.685C4.74279 19.2879 4.73435 19.8908 4.72674 20.4937C4.87928 20.4884 4.87928 20.4884 5.0349 20.4829C5.16992 20.48 5.30495 20.4772 5.43997 20.4745C5.50681 20.4719 5.57365 20.4693 5.64251 20.4667C6.08602 20.46 6.3649 20.5101 6.71138 20.8016C6.95461 21.1714 6.93986 21.552 6.94025 21.9835C6.94108 22.0607 6.9419 22.1378 6.94275 22.2173C6.94514 22.4719 6.94602 22.7266 6.94667 22.9812C6.94756 23.1586 6.94847 23.336 6.94939 23.5134C6.95102 23.8852 6.95179 24.2569 6.95207 24.6287C6.95261 25.1044 6.95635 25.58 6.96088 26.0557C6.96384 26.4221 6.96455 26.7885 6.96465 27.1549C6.96507 27.3302 6.9663 27.5056 6.96837 27.6809C6.97105 27.9265 6.97056 28.172 6.96932 28.4176C6.9708 28.4896 6.97227 28.5616 6.97378 28.6357C6.96557 29.2089 6.79131 29.4426 6.41369 29.8314C6.16224 29.9614 5.98263 29.9498 5.70114 29.9538C5.5938 29.9554 5.48647 29.9571 5.37589 29.9588C4.88431 29.9633 4.39274 29.9675 3.90115 29.9699C3.64185 29.9716 3.38256 29.9744 3.12328 29.9783C2.74967 29.9839 2.37616 29.9862 2.00251 29.9877C1.82898 29.9912 1.82898 29.9912 1.65195 29.9947C0.754069 29.9923 0.75407 29.9923 0.388149 29.6869C0.0398605 29.2771 0.0467288 28.9922 0.0436957 28.4675C0.0424785 28.3518 0.0424785 28.3518 0.0412367 28.2338C0.0387699 27.978 0.0371312 27.7223 0.0357009 27.4665C0.0351726 27.3791 0.0346447 27.2918 0.0341004 27.2018C0.0314474 26.7394 0.0295247 26.2769 0.0280937 25.8145C0.0264429 25.3372 0.0220011 24.8599 0.0169435 24.3826C0.013601 24.0153 0.0124573 23.6481 0.0118968 23.2808C0.0112308 23.1049 0.00972071 22.929 0.00734292 22.7531C0.00419962 22.5064 0.00419834 22.26 0.00493314 22.0134C0.0033052 21.941 0.00167727 21.8687 0 21.7942C0.0069883 21.2195 0.180152 20.9859 0.558995 20.5963C0.875371 20.4328 1.2168 20.4833 1.56372 20.4873C1.63855 20.4878 1.71338 20.4882 1.79048 20.4887C1.97538 20.4899 2.16028 20.4918 2.34517 20.4937C2.34429 20.4266 2.34341 20.3594 2.3425 20.2903C2.33368 19.5878 2.32772 18.8853 2.32337 18.1827C2.32138 17.921 2.31868 17.6592 2.31523 17.3975C2.31038 17.02 2.30815 16.6425 2.30641 16.265C2.30436 16.1491 2.30231 16.0332 2.3002 15.9138C2.29989 14.7544 2.61916 13.961 3.39486 13.1261C4.22655 12.3452 5.1179 12.1966 6.20902 12.1565C6.53143 12.1429 6.53143 12.1429 6.81062 12.0796C7.03744 11.7988 7.03744 11.7988 7.10831 11.4639C7.39314 11.108 7.67171 11.0408 8.10751 11.0397Z" fill="#B89C17"/>
<path d="M14.6637 0.0326503C14.7474 0.0326648 14.8312 0.0326794 14.9174 0.0326943C15.0523 0.0341837 15.0523 0.0341837 15.19 0.0357032C15.3286 0.0361115 15.3286 0.0361115 15.4701 0.036528C15.7653 0.0376051 16.0606 0.0400198 16.3559 0.0424664C16.556 0.0434312 16.7562 0.044309 16.9564 0.0450966C17.4471 0.0472179 17.9378 0.050539 18.4286 0.0544899C18.429 0.133559 18.4294 0.212627 18.4298 0.294092C18.4332 0.653153 18.4404 1.01206 18.4477 1.37107C18.4483 1.49549 18.4489 1.61992 18.4495 1.74812C18.4525 1.86808 18.4554 1.98804 18.4585 2.11164C18.4601 2.22196 18.4617 2.33227 18.4633 2.44593C18.5506 2.83734 18.714 2.98114 19.0408 3.2287C19.4341 3.33462 19.6528 3.36215 20.0357 3.22269C20.3985 2.92824 20.549 2.63902 20.6054 2.18686C20.6244 1.86469 20.6348 1.54337 20.6416 1.22077C20.6451 1.10868 20.6486 0.996594 20.6521 0.881108C20.6605 0.605578 20.6676 0.330076 20.6735 0.0544899C21.2435 0.0425687 21.8135 0.0338578 22.3837 0.028071C22.5775 0.0256579 22.7713 0.0223799 22.9651 0.018208C23.2442 0.0123495 23.5232 0.00964056 23.8025 0.007523C23.8886 0.00504072 23.9747 0.00255845 24.0634 9.51569e-07C24.5292 -0.000206238 24.8945 0.0331566 25.2454 0.359462C25.5213 0.75762 25.5826 1.22939 25.6735 1.68969C25.6987 1.80806 25.7239 1.92644 25.7499 2.04839C25.835 2.44994 25.9144 2.85239 25.9935 3.255C26.0228 3.40294 26.0521 3.55086 26.0815 3.69879C26.1423 4.00641 26.2029 4.31408 26.2633 4.62179C26.3406 5.01517 26.4187 5.40839 26.497 5.80158C26.5575 6.10601 26.6175 6.41053 26.6774 6.71507C26.706 6.86014 26.7347 7.00517 26.7637 7.15017C26.804 7.35255 26.8436 7.55505 26.8831 7.75758C26.9057 7.87244 26.9284 7.98729 26.9517 8.10562C27 8.42287 27 8.42287 27 9C24.9122 9 22.8245 9 20.6735 9C20.6398 8.23819 20.6061 7.47638 20.5714 6.69148C20.3502 6.06229 20.3502 6.06229 20.0867 5.87989C19.7534 5.80135 19.4854 5.7918 19.1429 5.82579C18.8619 5.99851 18.681 6.11941 18.5306 6.40292C18.4969 7.25995 18.4633 8.11699 18.4286 9C16.3071 9 14.1857 9 12 9C12.0647 8.45098 12.1343 7.91576 12.2383 7.37412C12.2516 7.30362 12.2649 7.23312 12.2786 7.16048C12.3221 6.93056 12.366 6.70074 12.4102 6.47092C12.4329 6.35222 12.4329 6.35222 12.4561 6.23112C12.5362 5.81314 12.6168 5.39524 12.6977 4.9774C12.7809 4.54713 12.8624 4.11659 12.9436 3.68598C13.0066 3.35334 13.0709 3.02093 13.1356 2.68857C13.1662 2.52993 13.1964 2.3712 13.226 2.2124C13.2676 1.99029 13.3109 1.76856 13.3548 1.54684C13.3724 1.44946 13.3724 1.44946 13.3903 1.35011C13.4804 0.907637 13.6449 0.600604 13.9388 0.246866C14.2518 0.0501479 14.3118 0.030609 14.6637 0.0326503Z" fill="#4D7F72"/>
</svg>
