<svg width="262" height="54" viewBox="0 0 262 54" fill="none" xmlns="http://www.w3.org/2000/svg">
<g clip-path="url(#clip0_173_88)">
<path d="M224.441 24.4983L235.289 17.3181C232.018 21.0269 230.883 26.1156 232.745 33.1084L240.172 18.4319C240.172 18.434 240.163 24.6844 240.127 32.1703C240.095 39.2623 239.927 40.0554 239.927 40.0554L242.064 41.715L243.864 40.2068C243.834 37.8589 243.589 18.4354 243.589 18.4319L251.016 33.1084C252.879 26.1156 251.746 21.0269 248.472 17.3181L259.32 24.4983C258.743 17.6055 253.067 11.9599 248.133 11.112L262 12.4023C257.174 6.6268 249.454 6.03029 246.162 7.33511L254.863 0.0971905C250.059 -0.459732 244.551 1.37006 241.88 5.76086C239.21 1.37006 233.703 -0.459732 228.897 0.0971905L237.6 7.33511C234.308 6.03029 226.587 6.6268 221.76 12.4023L235.628 11.112C230.693 11.9599 225.018 17.6055 224.441 24.4983Z" fill="#3E7862"/>
<path d="M2.9129 27.2301C3.77201 27.7308 4.85422 27.9814 6.15815 27.9814H12.4052C13.6943 27.9814 14.7799 27.7308 15.6613 27.2301C16.5435 26.7294 17.1992 26.069 17.6291 25.2496C18.0583 24.4302 18.2733 23.5344 18.2733 22.5636V10.6342L17.1178 10.4974C16.1543 10.3918 15.0646 10.3384 13.8495 10.3384C12.3232 10.3384 11.1454 10.4974 10.3154 10.8161C9.48478 11.1349 8.8813 11.723 8.50361 12.5807C8.12592 13.4383 7.93674 14.6945 7.93674 16.3486C7.93674 17.8964 8.09202 19.0498 8.40325 19.8088C8.71449 20.5678 9.18914 21.072 9.82653 21.3227C10.4632 21.5734 11.3671 21.6984 12.5381 21.6984H15.2952V22.2442C15.2952 23.0941 15.0687 23.8004 14.6164 24.3621C14.1648 24.9232 13.4271 25.2045 12.4052 25.2045H6.15815C5.1207 25.2045 4.38296 24.9232 3.94628 24.3621C3.50892 23.8004 3.29058 23.0789 3.29058 22.199C3.29058 21.6984 3.34618 21.0303 3.45739 20.1956C3.56859 19.3609 3.72794 18.2763 3.93543 16.9402L4.09071 15.8701L1.31196 15.3924C0.704411 18.8832 0.400635 21.2581 0.400635 22.5178C0.400635 23.5045 0.604735 24.4108 1.01226 25.2385C1.41978 26.0655 2.0531 26.7294 2.9129 27.2301ZM13.2718 18.9207C12.6344 18.9207 12.1605 18.8755 11.8492 18.7846C11.538 18.6929 11.3041 18.4624 11.1488 18.0895C10.9935 17.718 10.9155 17.1221 10.9155 16.3027C10.9155 15.4229 11.0118 14.7549 11.2044 14.2993C11.3969 13.8438 11.7048 13.5327 12.1272 13.366C12.549 13.1987 13.1532 13.1154 13.9384 13.1154C14.3981 13.1154 14.8504 13.1306 15.2952 13.1612V18.9207H13.2718Z" fill="#3E7862"/>
<path d="M13.672 5.35254H11.3828V8.19826H13.672V5.35254Z" fill="#3E7862"/>
<path d="M17.0508 5.35254H14.7616V8.19826H17.0508V5.35254Z" fill="#3E7862"/>
<path d="M61.3324 5.76221H58.3529V18.9207H55.6189H53.285V5.76221H50.3062V18.9207H47.5722H45.7048V15.984C45.7048 14.4056 45.3156 13.0286 44.5379 11.8523C43.7601 10.6759 42.4372 10.0877 40.5698 10.0877C39.6211 10.0877 38.7837 10.2551 38.0582 10.5884C37.3313 10.9224 36.698 11.355 36.1576 11.8863C35.6158 12.4175 35.0123 13.1085 34.3457 13.9577V5.76221H31.367V18.9207H29.4996H25.8312V10.3155H22.8524V22.0852C22.8524 22.874 22.7195 23.4851 22.4523 23.9178C22.1859 24.3504 21.7851 24.5663 21.2521 24.5663L20.4961 24.5212V27.253C21.3857 27.3135 21.9261 27.344 22.1187 27.344C23.3487 27.344 24.2716 26.851 24.8866 25.8642C25.5016 24.8774 25.8163 23.4893 25.8312 21.6984H29.4996H47.5716H55.6189H61.3324V5.76221ZM42.726 18.9207H34.3457V18.7159C34.3457 18.443 34.6122 17.809 35.1459 16.8153C35.6795 15.8208 36.361 14.9139 37.1909 14.0945C38.0209 13.2751 38.9248 12.8654 39.9025 12.8654C40.7922 12.8654 41.4845 13.2216 41.9815 13.9355C42.4779 14.6487 42.726 15.5285 42.726 16.5764V18.9207Z" fill="#3E7862"/>
<path d="M74.6694 5.35254H72.3802V8.19826H74.6694V5.35254Z" fill="#3E7862"/>
<path d="M71.38 21.2201C72.2249 21.5388 73.3803 21.6979 74.8477 21.6979H82.695H96.6776V16.0071C96.6776 14.6565 96.5331 13.5635 96.2443 12.7288C95.9554 11.8941 95.3994 11.249 94.5769 10.7934C93.7544 10.3379 92.5793 10.1101 91.053 10.1101C90.0901 10.1101 89.2154 10.1865 88.4302 10.3379C87.6443 10.49 87.0516 10.6643 86.6516 10.8615C86.4441 11.5601 86.259 12.3871 86.0962 13.3433C85.9328 14.2995 85.8515 15.1946 85.8515 16.0293C85.8515 16.8647 85.9552 17.8279 86.1627 18.9209H82.695H80.3828V10.3837C79.9088 10.308 79.0938 10.2393 77.9377 10.1789C76.7822 10.1184 75.7889 10.0879 74.9589 10.0879C73.4027 10.0879 72.1951 10.2511 71.3353 10.5775C70.4762 10.9038 69.8537 11.4726 69.4685 12.2843C69.0827 13.0968 68.8901 14.269 68.8901 15.8016C68.8901 17.4105 69.0936 18.6362 69.5018 19.4785C69.9093 20.3208 70.5351 20.9014 71.38 21.2201ZM89.0526 13.0246C89.6161 12.9031 90.1789 12.8426 90.7424 12.8426C91.8985 12.8426 92.6797 13.0926 93.0872 13.5933C93.4947 14.0947 93.6988 14.8766 93.6988 15.9384V18.9209H89.0526C88.9781 18.5869 88.9082 18.1508 88.8418 17.6119C88.7746 17.073 88.7414 16.546 88.7414 16.0293C88.7414 15.1648 88.8452 14.1627 89.0526 13.0246ZM72.1801 13.9919C72.3876 13.5746 72.7172 13.2829 73.1695 13.1156C73.6217 12.9489 74.2551 12.8649 75.0701 12.8649C75.8851 12.8649 76.6629 12.9031 77.404 12.9788V18.9209H75.0036C74.2327 18.9209 73.6251 18.8376 73.181 18.6702C72.7362 18.5035 72.4059 18.1959 72.191 17.748C71.9767 17.3008 71.8689 16.6522 71.8689 15.8016C71.8689 15.0127 71.9727 14.4093 72.1801 13.9919Z" fill="#3E7862"/>
<path d="M78.0489 5.35254H75.759V8.19826H78.0489V5.35254Z" fill="#3E7862"/>
<path d="M125.241 5.76221H122.263V18.9207H119.529H116.595C116.12 18.9207 115.609 18.8603 115.061 18.7388C116.112 17.7527 116.909 16.8944 117.45 16.166C117.991 15.4375 118.261 14.6563 118.261 13.8216L118.351 11.8182C117.624 11.3627 116.687 10.953 115.538 10.5884C114.39 10.2245 113.274 10.0426 112.193 10.0426C111.096 10.0426 109.984 10.2245 108.858 10.5884C107.732 10.953 106.82 11.3627 106.124 11.8182L106.191 13.8216C106.191 14.641 106.461 15.4229 107.002 16.166C107.543 16.9104 108.34 17.7673 109.391 18.7388C108.844 18.8603 108.34 18.9207 107.88 18.9207H104.724H102.545V5.76221H99.5662V21.6984H104.724H107.947C108.629 21.6984 109.344 21.6109 110.092 21.4366C110.84 21.2623 111.548 21.0234 112.215 20.7193C112.882 21.0234 113.597 21.2623 114.36 21.4366C115.123 21.6109 115.875 21.6984 116.616 21.6984H119.529H125.241V5.76221ZM112.237 17.5548C111.2 16.9326 110.415 16.2424 109.881 15.4834C109.347 14.7244 109.081 14.0265 109.081 13.389C110.147 13.0098 111.192 12.8196 112.215 12.8196C113.252 12.8196 114.319 13.0098 115.416 13.389C115.416 14.0112 115.16 14.6862 114.649 15.4146C114.138 16.1431 113.334 16.8569 112.237 17.5548Z" fill="#3E7862"/>
<path d="M131.777 5.76221H128.799V21.6984H131.777V5.76221Z" fill="#3E7862"/>
<path d="M145.337 5.35254H143.047V8.19826H145.337V5.35254Z" fill="#3E7862"/>
<path d="M142.047 21.2199C142.891 21.5387 144.047 21.6977 145.514 21.6977H153.362H162.987H172.612H191.197H196.91V5.76221H193.931V18.9207H191.197H189.218V16.7576C189.218 15.1341 188.921 13.7036 188.329 12.4668C187.736 11.2301 186.865 10.2662 185.717 9.57525C184.568 8.885 183.186 8.53918 181.571 8.53918C180.667 8.53918 179.711 8.63085 178.703 8.81278C177.696 8.99472 176.628 9.23013 175.502 9.51831L175.747 11.9543C177.021 11.7418 178.048 11.5786 178.825 11.4648C179.604 11.3509 180.296 11.2939 180.904 11.2939C182.282 11.2939 183.516 11.6891 184.605 12.4779C185.694 13.2675 186.24 14.6938 186.24 16.7576V18.9207H184.15V18.4652C184.15 17.6763 183.953 16.9173 183.56 16.1889C183.168 15.4604 182.623 14.8723 181.927 14.4244C181.23 13.9772 180.445 13.7529 179.57 13.7529C178.696 13.7529 177.903 13.9772 177.192 14.4244C176.481 14.8723 175.928 15.4604 175.535 16.1889C175.143 16.9173 174.947 17.684 174.947 18.4881V18.9207H172.612H169.278V10.3155H166.299V18.9207H162.987H159.652V10.3155H156.673V18.9207H153.362H151.05V10.3836C150.576 10.3079 149.761 10.2391 148.604 10.1787C147.448 10.1183 146.456 10.0877 145.626 10.0877C144.069 10.0877 142.861 10.2509 142.002 10.5773C141.142 10.9037 140.52 11.4724 140.135 12.2842C139.749 13.0966 139.557 14.2688 139.557 15.8014C139.557 17.4104 139.76 18.636 140.168 19.4783C140.575 20.3207 141.202 20.9012 142.047 21.2199ZM177.947 18.4423C177.947 17.9117 178.099 17.4597 178.403 17.0882C178.707 16.716 179.089 16.5305 179.548 16.5305C180.007 16.5305 180.393 16.7125 180.704 17.0764C181.016 17.4409 181.171 17.8888 181.171 18.4194V18.9207H177.947V18.4423ZM142.847 13.9918C143.054 13.5744 143.384 13.2828 143.836 13.1154C144.288 12.9487 144.922 12.8647 145.737 12.8647C146.551 12.8647 147.33 12.9029 148.071 12.9786V18.9207H145.67C144.899 18.9207 144.292 18.8374 143.847 18.67C143.403 18.5034 143.073 18.1958 142.858 17.7479C142.643 17.3007 142.536 16.6521 142.536 15.8014C142.536 15.0125 142.639 14.4091 142.847 13.9918Z" fill="#3E7862"/>
<path d="M148.716 5.35254H146.426V8.19826H148.716V5.35254Z" fill="#3E7862"/>
<path d="M155.718 7.69753L160.587 6.7184L160.275 5.32957L157.853 5.98996C157.497 5.73233 157.319 5.39068 157.319 4.96569C157.319 4.64695 157.426 4.37405 157.641 4.14628C157.856 3.91851 158.134 3.80463 158.474 3.80463C158.682 3.80463 158.867 3.83865 159.03 3.9074C159.193 3.97545 159.319 4.04767 159.408 4.12336L159.698 2.75744C159.119 2.39287 158.542 2.21094 157.963 2.21094C157.282 2.21094 156.722 2.43871 156.285 2.89355C155.848 3.34909 155.629 3.88796 155.629 4.51015C155.629 5.2386 155.919 5.85385 156.497 6.35453L155.474 6.62743L155.718 7.69753Z" fill="#3E7862"/>
<path d="M170.59 23.519H168.3V26.3648H170.59V23.519Z" fill="#3E7862"/>
<path d="M167.211 23.519H164.921V26.3648H167.211V23.519Z" fill="#3E7862"/>
<path d="M203.448 5.76221H200.469V21.6984H203.448V5.76221Z" fill="#3E7862"/>
<path d="M10.2416 37.5929C10.2416 36.0457 9.83138 34.8673 9.02312 34.0917C8.22096 33.3202 7.01195 32.9292 5.42865 32.9292H0V47.5488H2.51158V42.3802H5.50934L7.71512 47.5488H10.4647L7.97414 41.8212C9.47878 41.0775 10.2416 39.6574 10.2416 37.5929ZM7.12655 39.4671C6.75225 39.8741 6.20369 40.072 5.449 40.072H2.51158V35.2368H5.42865C6.18674 35.2368 6.75836 35.4374 7.12791 35.8333C7.50152 36.2332 7.69071 36.8388 7.69071 37.6339C7.69071 38.4443 7.50085 39.0602 7.12655 39.4671Z" fill="#3E7862"/>
<path d="M16.0398 36.5308C14.4294 36.5308 13.2346 37.0002 12.4894 37.9252C11.7577 38.8321 11.3868 40.2674 11.3868 42.1923C11.3868 44.0749 11.7503 45.4867 12.4677 46.3866C13.2007 47.306 14.4022 47.772 16.0398 47.772C17.678 47.772 18.8802 47.3026 19.6139 46.3755C20.3306 45.4679 20.6941 44.061 20.6941 42.1923C20.6941 40.2834 20.3266 38.8522 19.6024 37.9377C18.8633 37.0037 17.6644 36.5308 16.0398 36.5308ZM17.9757 44.2631C17.8489 44.7089 17.6468 45.0186 17.358 45.2082H17.3573C17.0576 45.4054 16.6141 45.5054 16.0398 45.5054C15.4648 45.5054 15.0179 45.4054 14.7108 45.2061C14.4158 45.0165 14.211 44.7054 14.0849 44.2548C13.9479 43.7631 13.8781 43.0694 13.8781 42.1923C13.8781 41.2764 13.9513 40.5556 14.0951 40.0494C14.2239 39.5931 14.4368 39.2702 14.727 39.0883C15.0356 38.896 15.4777 38.798 16.0398 38.798C16.6019 38.798 17.0393 38.8953 17.3403 39.0862C17.6258 39.2689 17.8367 39.5904 17.9662 40.0403C18.1093 40.5403 18.1818 41.2646 18.1818 42.1923C18.1818 43.0819 18.112 43.7791 17.9757 44.2631Z" fill="#3E7862"/>
<path d="M30.3214 45.4749C30.2251 45.3839 30.1695 45.2464 30.1526 45.0818V40.1778C30.1526 38.9453 29.8549 38.0189 29.2677 37.4238C28.6811 36.8307 27.7542 36.5308 26.5113 36.5308C25.2887 36.5308 23.9489 36.7051 22.5276 37.0481L22.2842 37.1064L22.369 39.0758L22.689 39.0404C24.1292 38.8793 25.4155 38.798 26.5113 38.798C26.9148 38.798 27.2165 38.9001 27.4077 39.1008C27.6016 39.305 27.7 39.6668 27.7 40.1778V40.6896L25.1511 40.9278C23.974 41.0445 23.1304 41.3535 22.5737 41.8715C22.0062 42.3972 21.7194 43.2173 21.7194 44.3089C21.7194 45.4026 21.9933 46.2603 22.5337 46.8595C23.0809 47.4651 23.877 47.772 24.9022 47.772C26.0089 47.772 27.1284 47.5227 28.2329 47.029C28.5326 47.2651 28.871 47.4442 29.2426 47.5644C29.6677 47.7019 30.1865 47.772 30.7845 47.772H31.0741L31.1568 45.7353L30.891 45.6922C30.5547 45.6381 30.3953 45.5436 30.3214 45.4749ZM27.7 45.1235L27.4891 45.1957C26.769 45.4422 26.0122 45.5665 25.2399 45.5665C24.7605 45.5665 24.2113 45.4165 24.2113 44.2471C24.2113 43.8159 24.3069 43.4944 24.4961 43.2902C24.6873 43.0833 25.0087 42.9541 25.4467 42.9076L27.7 42.6937V45.1235Z" fill="#3E7862"/>
<path d="M38.4109 36.7458C35.8661 36.2444 33.9776 36.6319 32.9714 37.9402C32.2594 38.8666 31.9136 40.2978 31.9136 42.3144C31.9136 44.1316 32.2031 45.4559 32.7991 46.3635C33.4121 47.2982 34.4258 47.7718 35.8118 47.7718C36.6275 47.7718 37.4995 47.5551 38.4109 47.126V47.5482H40.8635V32.4404H38.4109V36.7458ZM38.4109 44.9316L38.2454 44.9976C37.9566 45.1129 37.6101 45.2177 37.2168 45.3094H37.2161C35.9908 45.5927 35.2273 45.4316 34.8537 44.7476C34.5689 44.2268 34.4245 43.3733 34.4245 42.213C34.4245 40.9373 34.5954 40.029 34.931 39.5145C35.2443 39.0318 35.7928 38.7971 36.6065 38.7971C37.1096 38.7971 37.7152 38.8617 38.4109 38.9895V44.9316Z" fill="#3E7862"/>
<path d="M49.2159 41.5115C48.7542 41.3066 48.1141 41.1254 47.3146 40.9726C47.0298 40.9171 46.8393 40.8824 46.7552 40.8699C46.2643 40.7782 45.8839 40.6914 45.6228 40.6122C45.3997 40.5463 45.218 40.4449 45.0824 40.3102C44.9705 40.2011 44.9163 40.0379 44.9163 39.8116C44.9163 39.5755 44.9163 38.8595 46.6413 38.8595C47.417 38.8595 48.5521 38.9678 50.0161 39.1817L50.3524 39.231L50.4073 37.0367L49.5726 36.8603C48.3704 36.6547 47.3506 36.5513 46.5423 36.5513C43.1723 36.5513 42.4644 38.4352 42.4644 40.015C42.4644 40.7122 42.602 41.2768 42.8726 41.6927C43.1451 42.1094 43.535 42.4288 44.0307 42.6399C44.4938 42.8392 45.1224 43.0031 45.8968 43.1281L46.3768 43.21C46.8732 43.2885 47.2597 43.3705 47.5248 43.4538C47.7587 43.5281 47.9425 43.6364 48.0869 43.7843C48.2083 43.9086 48.2673 44.0996 48.2673 44.369C48.2673 44.7496 48.1439 45.0009 47.8788 45.162C47.5696 45.3495 47.0868 45.444 46.4426 45.444C45.7727 45.444 44.6301 45.3287 43.0468 45.1016L42.72 45.0544L42.6101 47.2953L43.4713 47.4425C44.7149 47.6606 45.7415 47.7724 46.5226 47.7724C47.9106 47.7724 48.9637 47.4856 49.6526 46.921C50.3598 46.3391 50.7192 45.4252 50.7192 44.2065C50.7192 43.5024 50.5945 42.9288 50.349 42.5031C50.0981 42.067 49.717 41.7337 49.2159 41.5115Z" fill="#3E7862"/>
<path d="M60.1505 35.5959C60.6245 35.2487 61.3548 35.073 62.3197 35.073C63.4412 35.073 64.8231 35.1953 66.4281 35.4369L66.757 35.4862L66.8675 33.3127L65.9121 33.1169C64.4943 32.8433 63.1646 32.7051 61.9617 32.7051C60.5974 32.7051 59.4901 32.978 58.669 33.5169C57.839 34.062 57.2321 34.9001 56.8666 36.0077C56.5134 37.082 56.3344 38.4986 56.3344 40.2187C56.3344 41.9401 56.51 43.3581 56.8558 44.4359C57.2138 45.5511 57.8241 46.3969 58.6696 46.9497C59.503 47.4955 60.6306 47.7719 62.0214 47.7719C63.307 47.7719 64.8489 47.6059 66.6065 47.2788L66.854 47.2323V39.6645H62.3956V42.0131H64.3627V45.2678C63.705 45.3713 62.9788 45.4233 62.2004 45.4233C61.3243 45.4233 60.6455 45.2629 60.1824 44.9463C59.7301 44.6379 59.4074 44.1324 59.2223 43.4429C59.0256 42.7096 58.9259 41.6721 58.9259 40.3603C58.9259 38.9923 59.0161 37.9181 59.1951 37.1674C59.3647 36.4563 59.6766 35.9425 60.1505 35.5959Z" fill="#3E7862"/>
<path d="M72.9708 36.5312C71.4228 36.5312 70.2565 37.034 69.5032 38.0242C68.7695 38.9909 68.3972 40.4679 68.3972 42.4164C68.3972 44.2316 68.7471 45.5892 69.4387 46.4489C70.1453 47.3274 71.3204 47.7725 72.9315 47.7725C73.8964 47.7725 75.1766 47.6343 76.7375 47.3607L76.9965 47.3156L76.9396 45.2469L76.0615 45.3441C75.6519 45.3844 75.1902 45.4149 74.6877 45.4344C73.3465 45.4865 72.3585 45.4823 71.8025 45.2274C71.4852 45.0823 71.2628 44.8504 71.121 44.5198C70.9902 44.2157 70.9088 43.7914 70.879 43.2553H77.1823L77.3261 41.5616C77.3261 38.2235 75.8608 36.5312 72.9708 36.5312ZM70.8586 41.1505C70.9013 40.3297 71.0756 39.7235 71.3767 39.3457C71.7035 38.936 72.2249 38.7367 72.9708 38.7367C73.6713 38.7367 74.148 38.9228 74.428 39.3055C74.6938 39.6686 74.8423 40.2887 74.8701 41.1505H70.8586Z" fill="#3E7862"/>
<path d="M86.2183 37.0946C85.6914 36.7203 84.9713 36.5308 84.079 36.5308C83.5379 36.5308 83.0151 36.6037 82.5255 36.7467C82.1682 36.8502 81.7776 37.0106 81.3606 37.2224V36.7551H78.9283V47.5491H81.3809V39.3765L81.5274 39.3057C82.257 39.0091 82.9615 38.8591 83.622 38.8591C84.0688 38.8591 84.4051 38.9439 84.6214 39.1112C84.833 39.2758 84.9822 39.557 85.0656 39.9487C85.1598 40.3931 85.2073 41.0389 85.2073 41.8667V47.5491H87.6599V41.8257C87.6599 40.5799 87.5555 39.5758 87.35 38.8411C87.133 38.0626 86.7526 37.4745 86.2183 37.0946Z" fill="#3E7862"/>
<path d="M93.8162 36.5312C92.2682 36.5312 91.1012 37.034 90.3486 38.0242C89.6142 38.9909 89.2419 40.4686 89.2419 42.4164C89.2419 44.2316 89.5925 45.5885 90.2841 46.4489C90.9907 47.3274 92.1658 47.7725 93.7762 47.7725C94.7418 47.7725 96.022 47.6343 97.5829 47.3607L97.8413 47.3156L97.785 45.2469L96.9069 45.3441C96.4973 45.3844 96.0356 45.4149 95.5331 45.4344C94.1919 45.4865 93.2033 45.4823 92.6479 45.2274C92.3313 45.0823 92.1082 44.8504 91.9658 44.5198C91.8356 44.2157 91.7542 43.7907 91.7244 43.2553H98.0277L98.1715 41.5616C98.1715 38.2235 96.7062 36.5312 93.8162 36.5312ZM91.704 41.1505C91.7468 40.3297 91.921 39.7235 92.2221 39.3457C92.5489 38.936 93.0703 38.7367 93.8162 38.7367C94.5167 38.7367 94.9934 38.9228 95.2734 39.3055C95.5392 39.6686 95.687 40.2887 95.7148 41.1505H91.704Z" fill="#3E7862"/>
<path d="M102.205 37.7944V36.7548H99.7731V47.5482H102.226V40.1728L102.527 40.0304C102.883 39.8617 103.341 39.6804 103.887 39.4936C104.427 39.3089 104.957 39.1617 105.461 39.0561L105.703 39.0047V36.4639L105.343 36.5361C104.309 36.7437 103.256 37.1659 102.205 37.7944Z" fill="#3E7862"/>
<path d="M114.775 45.4749C114.678 45.3839 114.622 45.2464 114.605 45.0818V40.1778C114.605 38.9459 114.308 38.0189 113.72 37.4231C113.134 36.8308 112.207 36.5308 110.964 36.5308C109.741 36.5308 108.401 36.7051 106.981 37.0481L106.738 37.1064L106.822 39.0758L107.142 39.0404C108.582 38.8793 109.868 38.798 110.964 38.798C111.368 38.798 111.669 38.9001 111.86 39.1008C112.054 39.305 112.153 39.6668 112.153 40.1778V40.6896L109.604 40.9278C108.427 41.0445 107.583 41.3535 107.026 41.8708C106.46 42.3965 106.172 43.2173 106.172 44.3089C106.172 45.4026 106.446 46.2603 106.986 46.8595C107.534 47.4644 108.33 47.772 109.355 47.772C110.461 47.772 111.581 47.5227 112.686 47.029C112.985 47.2651 113.324 47.4442 113.695 47.5644C114.12 47.7019 114.639 47.772 115.237 47.772H115.527L115.609 45.7353L115.344 45.6922C115.007 45.6381 114.849 45.5443 114.775 45.4749ZM112.153 45.1235L111.942 45.1957C111.222 45.4422 110.465 45.5665 109.693 45.5665C109.213 45.5665 108.664 45.4165 108.664 44.2471C108.664 43.8159 108.759 43.4944 108.948 43.2902C109.14 43.0833 109.461 42.9541 109.899 42.9076L112.153 42.6937V45.1235Z" fill="#3E7862"/>
<path d="M119.393 32.4404H116.941V47.5489H119.393V32.4404Z" fill="#3E7862"/>
<path d="M128.693 32.9287L125 47.5483H127.51L128.365 44.272H133.425L134.279 47.5483H136.789L133.096 32.9287H128.693ZM128.919 41.9235L130.612 35.1953H131.177L132.87 41.9235H128.919Z" fill="#3E7862"/>
<path d="M144.006 44.9191C143.636 45.0782 143.287 45.2032 142.967 45.2921C142.604 45.3927 142.212 45.4441 141.804 45.4441C141.341 45.4441 141.003 45.3677 140.798 45.2171C140.605 45.0747 140.468 44.8073 140.392 44.4199C140.303 43.9761 140.259 43.288 140.259 42.3748V36.7549H137.806V42.3748C137.806 43.6699 137.903 44.7074 138.094 45.4559C138.297 46.251 138.665 46.8441 139.187 47.2184C139.701 47.5857 140.427 47.7718 141.347 47.7718C141.902 47.7718 142.422 47.6996 142.894 47.5566C143.234 47.4517 143.606 47.2948 144.006 47.0864V47.5489H146.458V36.7549H144.006V44.9191Z" fill="#3E7862"/>
<path d="M152.455 45.4648C152.158 45.4648 151.941 45.4064 151.829 45.296C151.708 45.1766 151.628 44.9891 151.591 44.7412C151.547 44.4391 151.526 43.9718 151.526 43.3517V39.0011H154.446V36.7547H151.526V33.7222H149.073V36.7547H147.742V39.0011H149.073V43.6982C149.073 44.7037 149.162 45.4745 149.346 46.0522C149.541 46.6668 149.871 47.1154 150.327 47.3848L150.327 47.3855C150.77 47.6459 151.355 47.7723 152.118 47.7723C152.638 47.7723 153.377 47.689 154.315 47.5237L154.587 47.4758L154.422 45.3453L152.455 45.4648Z" fill="#3E7862"/>
<path d="M162.938 37.0833C162.412 36.7167 161.687 36.5305 160.781 36.5305C160.268 36.5305 159.762 36.5951 159.276 36.7229C158.917 36.8173 158.523 36.9562 158.103 37.1375V32.4404H155.65V47.5482H158.103V39.2763L158.237 39.2284C158.93 38.9832 159.606 38.8589 160.245 38.8589C160.723 38.8589 161.082 38.943 161.314 39.1082C161.534 39.2659 161.691 39.5395 161.779 39.9221C161.878 40.3589 161.929 41.0137 161.929 41.8665V47.5482H164.382V41.8255C164.382 40.5811 164.278 39.5735 164.072 38.8318C163.854 38.0437 163.473 37.4555 162.938 37.0833Z" fill="#3E7862"/>
<path d="M170.617 36.5308C169.007 36.5308 167.812 37.0002 167.067 37.9252C166.335 38.8321 165.964 40.2674 165.964 42.1923C165.964 44.0749 166.328 45.4867 167.045 46.3866C167.778 47.306 168.98 47.772 170.617 47.772C172.256 47.772 173.458 47.3026 174.191 46.3755C174.908 45.4686 175.271 44.061 175.271 42.1923C175.271 40.2834 174.904 38.8522 174.18 37.9377C173.441 37.0037 172.242 36.5308 170.617 36.5308ZM172.553 44.2631C172.427 44.7089 172.224 45.0179 171.935 45.2082C171.635 45.4054 171.192 45.5054 170.617 45.5054C170.042 45.5054 169.596 45.4054 169.288 45.2061C168.993 45.0165 168.789 44.7054 168.663 44.2548C168.525 43.7617 168.456 43.068 168.456 42.1923C168.456 41.2764 168.528 40.5556 168.673 40.0494C168.802 39.5931 169.014 39.2702 169.305 39.0883C169.613 38.896 170.055 38.798 170.617 38.798C171.18 38.798 171.617 38.8953 171.918 39.0862C172.203 39.2689 172.414 39.5904 172.544 40.0403C172.687 40.5403 172.759 41.2646 172.759 42.1923C172.759 43.0819 172.69 43.7791 172.553 44.2631Z" fill="#3E7862"/>
<path d="M179.364 37.7944V36.7548H176.932V47.5482H179.384V40.1728L179.686 40.0304C180.042 39.8617 180.5 39.6804 181.046 39.4936C181.586 39.3089 182.115 39.1617 182.62 39.0561L182.861 39.0047V36.4639L182.501 36.5361C181.469 36.7437 180.415 37.1659 179.364 37.7944Z" fill="#3E7862"/>
<path d="M186.399 32.7051H183.967V35.3793H186.399V32.7051Z" fill="#3E7862"/>
<path d="M186.419 36.7549H183.966V47.5489H186.419V36.7549Z" fill="#3E7862"/>
<path d="M192.137 45.4648C191.84 45.4648 191.623 45.4064 191.512 45.296C191.39 45.1766 191.31 44.9898 191.274 44.7412C191.23 44.4391 191.208 43.9718 191.208 43.3517V39.0011H194.128V36.7547H191.208V33.7222H188.755V36.7547H187.424V39.0011H188.755V43.6982C188.755 44.7044 188.845 45.4752 189.029 46.0522C189.224 46.6675 189.554 47.1161 190.01 47.3855C190.451 47.6459 191.037 47.7723 191.8 47.7723C192.32 47.7723 193.059 47.689 193.997 47.5237L194.269 47.4758L194.105 45.3453L192.137 45.4648Z" fill="#3E7862"/>
<path d="M199.183 45.3018H199.048L196.782 36.7549H194.307L197.175 47.5489H198.615L197.383 51.9855H199.842L203.943 36.7549H201.468L199.183 45.3018Z" fill="#3E7862"/>
<path d="M215.05 2.01514H213.198V51.8708H215.05V2.01514Z" fill="#3E7862"/>
<path d="M245.834 52.2721C245.57 52.4304 245.31 52.577 245.054 52.7082C244.799 52.8402 244.548 52.9561 244.305 53.0533C243.967 53.1888 243.638 53.2971 243.318 53.379C242.679 53.5429 242.079 53.5992 241.522 53.5492C241.242 53.5235 240.974 53.4714 240.717 53.3922C240.41 53.2985 240.024 53.1256 239.569 52.886C238.206 52.168 236.239 50.8493 234.03 49.2445C233.662 48.9771 233.287 48.7021 232.907 48.4202C232.148 47.8563 231.367 47.2668 230.581 46.6633C229.007 45.4557 227.406 44.1912 225.886 42.9628C225.506 42.6558 225.13 42.351 224.762 42.0503L224.754 42.5961C230.844 47.5591 238.125 53.0485 240.596 53.8068C241.013 53.9353 241.456 53.9998 241.922 53.9998C242.705 53.9998 243.554 53.8186 244.46 53.4568C244.934 53.2672 245.721 52.8179 246.252 52.4367L245.834 52.2721Z" fill="#B9B9B9"/>
<path d="M248.072 50.5431C248.138 50.4952 248.21 50.441 248.289 50.3827C248.607 50.1473 249.027 49.8334 249.446 49.5195C249.656 49.3626 249.865 49.205 250.061 49.0577C250.649 48.6168 251.12 48.2633 251.123 48.2633C250.19 48.2633 249.34 48.0487 248.606 47.755C248.362 47.6571 248.131 47.5502 247.914 47.4397C247.48 47.2189 247.104 46.9828 246.796 46.7717C246.488 46.5606 246.249 46.3745 246.088 46.2537C241.368 42.6899 229.747 33.6632 224.759 29.7842V34.5312C225.777 35.3562 227.194 36.4971 228.602 37.6019L227.386 39.2269C226.386 38.4422 225.489 37.7366 224.759 37.1631V42.0504C225.128 42.3511 225.503 42.6559 225.883 42.9628C227.403 44.1913 229.004 45.4558 230.577 46.6634C231.364 47.2668 232.144 47.8564 232.904 48.4203C233.284 48.7022 233.659 48.9772 234.027 49.2452C236.236 50.8493 238.203 52.168 239.566 52.8861C240.02 53.1256 240.407 53.2985 240.714 53.3923C240.971 53.4715 241.239 53.5235 241.518 53.5492C242.076 53.5992 242.676 53.543 243.315 53.3791C243.634 53.2972 243.964 53.1888 244.302 53.0534C244.545 52.9562 244.796 52.8402 245.052 52.7083C245.307 52.577 245.568 52.4305 245.831 52.2722H245.832C244.921 51.9243 244.173 51.6111 243.047 50.8493L244.213 49.2862C245.696 49.989 246.68 50.4125 247.748 50.7736C247.75 50.7736 247.765 50.7639 247.792 50.7459C247.845 50.7098 247.942 50.6382 248.072 50.5431ZM237.765 47.2946C236.197 46.0947 234.38 44.6871 232.564 43.2739L233.773 41.6441C235.584 43.0538 237.398 44.4572 238.962 45.6544L237.765 47.2946Z" fill="#3E7862"/>
<path d="M250.045 46.8696C252.123 47.3571 253.296 46.8092 254.113 46.1391L259.593 41.9802V36.7291L256.423 39.3338L255.172 37.738L259.356 34.2562L259.593 34.0597V28.8252L243.282 42.2143C243.287 42.224 246.594 44.794 246.587 44.7919L246.65 44.7399L250.106 41.9018L251.357 43.4982L248.262 46.0447C248.536 46.2509 248.881 46.4328 249.208 46.5759C249.535 46.719 249.844 46.8224 250.045 46.8696Z" fill="#3E7862"/>
<path d="M259.592 41.981L254.114 46.1391C253.296 46.8099 252.123 47.3578 250.045 46.8697C249.844 46.8224 249.536 46.7197 249.209 46.5766C248.882 46.4336 248.537 46.2509 248.263 46.0454L248.295 46.0183L247.925 46.3044C248.525 46.7842 249.534 47.1946 249.951 47.2919C250.541 47.4307 251.064 47.4891 251.528 47.4891C252.943 47.4891 253.807 46.946 254.366 46.4877L259.592 42.5198V41.981Z" fill="#B9B9B9"/>
<path d="M259.593 36.7222L259.385 36.8992L259.593 36.7291V36.7222Z" fill="#3E7862"/>
<path d="M243.285 42.2143L259.595 28.8252V28.3169L242.651 42.2254L243.051 42.5372C243.491 42.8795 245.711 44.5934 246.292 45.0419L246.653 44.7399L246.59 44.792C246.597 44.794 243.29 42.224 243.285 42.2143Z" fill="#B9B9B9"/>
<path d="M259.593 34.0605L259.357 34.2564L259.593 34.0682V34.0605Z" fill="#3E7862"/>
<path d="M251.231 47.8875C248.943 47.8723 247.015 46.414 246.341 45.9043C241.837 42.5037 231.048 34.1283 225.017 29.4383L224.753 29.2334L224.762 29.7834C229.749 33.6624 241.37 42.6898 246.09 46.2529C246.251 46.3744 246.49 46.5605 246.798 46.7716C247.106 46.9827 247.482 47.2188 247.916 47.4396C248.133 47.5501 248.364 47.657 248.609 47.7549C249.342 48.0479 250.193 48.2625 251.125 48.2625C251.122 48.2625 250.652 48.616 250.063 49.0576C249.867 49.2049 249.658 49.3618 249.448 49.5187C249.029 49.8326 248.609 50.1465 248.292 50.3819C248.213 50.4409 248.139 50.4951 248.074 50.5423C247.944 50.6381 247.847 50.709 247.794 50.7458C247.767 50.7638 247.752 50.7735 247.75 50.7735L248.247 50.959C248.675 50.6312 252.406 47.8959 252.406 47.8959L251.231 47.8875Z" fill="#B9B9B9"/>
</g>
<defs>
<clipPath id="clip0_173_88">
<rect width="262" height="54" fill="white"/>
</clipPath>
</defs>
</svg>
