<svg width="304" height="62" viewBox="0 0 304 62" fill="none" xmlns="http://www.w3.org/2000/svg">
<path d="M260.42 28.1277L273.007 19.8837C269.211 24.1421 267.894 29.9846 270.055 38.0134L278.672 21.1626C278.672 21.165 278.662 28.3414 278.621 36.9363C278.583 45.079 278.388 45.9895 278.388 45.9895L280.868 47.8951L282.956 46.1633C282.922 43.4677 282.638 21.1666 282.638 21.1626L291.255 38.0134C293.416 29.9846 292.102 24.1421 288.303 19.8837L300.89 28.1277C300.22 20.2138 293.635 13.7318 287.91 12.7583L304 14.2397C298.4 7.60858 289.442 6.9237 285.623 8.42182L295.719 0.11162C290.144 -0.52781 283.753 1.57306 280.655 6.61435C277.557 1.57306 271.166 -0.52781 265.591 0.11162L275.688 8.42182C271.868 6.9237 262.91 7.60858 257.31 14.2397L273.4 12.7583C267.675 13.7318 261.089 20.2138 260.42 28.1277Z" fill="white"/>
<path d="M3.37997 31.2643C4.37681 31.8392 5.6325 32.127 7.14546 32.127H14.394C15.8896 32.127 17.1493 31.8392 18.1721 31.2643C19.1957 30.6895 19.9565 29.9312 20.4553 28.9904C20.9533 28.0496 21.2027 27.0211 21.2027 25.9065V12.2098L19.8621 12.0527C18.7441 11.9315 17.4797 11.8701 16.0698 11.8701C14.2988 11.8701 12.9322 12.0527 11.9692 12.4187C11.0054 12.7846 10.3051 13.4599 9.86691 14.4446C9.42867 15.4292 9.20916 16.8715 9.20916 18.7707C9.20916 20.5479 9.38933 21.8722 9.75046 22.7436C10.1116 23.6151 10.6623 24.1939 11.4019 24.4817C12.1407 24.7695 13.1894 24.9131 14.5482 24.9131H17.7472V25.5397C17.7472 26.5156 17.4844 27.3265 16.9597 27.9715C16.4357 28.6157 15.5797 28.9386 14.394 28.9386H7.14546C5.9417 28.9386 5.08569 28.6157 4.57901 27.9715C4.07154 27.3265 3.8182 26.4981 3.8182 25.4879C3.8182 24.9131 3.88272 24.1461 4.01175 23.1877C4.14078 22.2294 4.32567 20.984 4.56642 19.45L4.74659 18.2214L1.5224 17.6728C0.817456 21.6808 0.464982 24.4076 0.464982 25.8539C0.464982 26.9868 0.701801 28.0273 1.17465 28.9777C1.6475 29.9272 2.38235 30.6895 3.37997 31.2643ZM15.3995 21.7239C14.6599 21.7239 14.11 21.6721 13.7488 21.5676C13.3877 21.4624 13.1163 21.1977 12.9361 20.7695C12.7559 20.343 12.6655 19.6589 12.6655 18.7181C12.6655 17.7079 12.7772 16.9409 13.0006 16.4179C13.2241 15.8949 13.5813 15.5377 14.0714 15.3463C14.5608 15.1542 15.2618 15.0585 16.1729 15.0585C16.7063 15.0585 17.2311 15.076 17.7472 15.1111V21.7239H15.3995Z" fill="white"/>
<path d="M15.8637 6.14554H13.2075V9.41286H15.8637V6.14554Z" fill="white"/>
<path d="M19.7842 6.14554H17.128V9.41286H19.7842V6.14554Z" fill="white"/>
<path d="M71.1643 6.61595H67.7072V21.7239H61.8269V6.61595H58.3706V21.7239H53.0316V18.3521C53.0316 16.5399 52.58 14.9588 51.6775 13.6082C50.7751 12.2576 49.2401 11.5823 47.0733 11.5823C45.9727 11.5823 45.001 11.7744 44.1591 12.1571C43.3157 12.5406 42.5809 13.0374 41.9538 13.6473C41.3252 14.2572 40.625 15.0505 39.8516 16.0256V6.61595H36.3953V21.7239H29.9721V11.8438H26.5158V25.3571C26.5158 26.2629 26.3616 26.9645 26.0516 27.4612C25.7424 27.9579 25.2774 28.2059 24.659 28.2059L23.7818 28.1541V31.2906C24.814 31.36 25.4411 31.3951 25.6645 31.3951C27.0917 31.3951 28.1625 30.829 28.8761 29.696C29.5897 28.5631 29.9548 26.9693 29.9721 24.9131H71.1643V6.61595ZM49.5753 21.7239H39.8516V21.4887C39.8516 21.1753 40.1608 20.4474 40.78 19.3065C41.3992 18.1648 42.1899 17.1235 43.1529 16.1827C44.1159 15.2419 45.1646 14.7715 46.2992 14.7715C47.3314 14.7715 48.1347 15.1805 48.7114 16.0001C49.2873 16.8189 49.5753 17.8291 49.5753 19.0322V21.7239Z" fill="white"/>
<path d="M86.6393 6.14554H83.9832V9.41286H86.6393V6.14554Z" fill="white"/>
<path d="M82.8227 24.3637C83.803 24.7297 85.1437 24.9123 86.8462 24.9123H112.176V18.3784C112.176 16.8277 112.008 15.5728 111.673 14.6144C111.338 13.6561 110.693 12.9154 109.738 12.3923C108.784 11.8693 107.42 11.6078 105.649 11.6078C104.532 11.6078 103.517 11.6955 102.606 11.8693C101.694 12.0439 101.007 12.244 100.542 12.4705C100.302 13.2726 100.087 14.2221 99.898 15.32C99.7084 16.4179 99.614 17.4456 99.614 18.4039C99.614 19.3631 99.7343 20.4689 99.9751 21.7239H93.2686V11.9219C92.7187 11.835 91.773 11.7561 90.4316 11.6867C89.0909 11.6174 87.9383 11.5823 86.9753 11.5823C85.1696 11.5823 83.7684 11.7697 82.7708 12.1444C81.7739 12.5191 81.0517 13.1721 80.6048 14.1041C80.1571 15.037 79.9337 16.3828 79.9337 18.1424C79.9337 19.9898 80.1697 21.397 80.6433 22.3641C81.1162 23.3312 81.8424 23.9978 82.8227 24.3637ZM103.328 14.9541C103.982 14.8145 104.635 14.7452 105.289 14.7452C106.63 14.7452 107.537 15.0322 108.01 15.607C108.482 16.1827 108.719 17.0804 108.719 18.2995V21.7239H103.328C103.242 21.3404 103.161 20.8397 103.084 20.221C103.006 19.6023 102.967 18.9971 102.967 18.4039C102.967 17.4113 103.088 16.2608 103.328 14.9541ZM83.7511 16.0647C83.9918 15.5855 84.3742 15.2506 84.899 15.0585C85.4237 14.8671 86.1586 14.7707 87.1043 14.7707C88.05 14.7707 88.9524 14.8145 89.8124 14.9014V21.7239H87.0272C86.1326 21.7239 85.4277 21.6282 84.9124 21.4361C84.3962 21.2447 84.0131 20.8915 83.7637 20.3772C83.515 19.8638 83.3899 19.1191 83.3899 18.1424C83.3899 17.2367 83.5103 16.5439 83.7511 16.0647Z" fill="white"/>
<path d="M90.5606 6.14554H87.9037V9.41286H90.5606V6.14554Z" fill="white"/>
<path d="M145.318 6.61595H141.862V21.7239H135.285C134.735 21.7239 134.141 21.6545 133.506 21.515C134.726 20.3828 135.65 19.3974 136.278 18.561C136.905 17.7246 137.219 16.8277 137.219 15.8693L137.323 13.5691C136.48 13.0461 135.392 12.5757 134.06 12.1571C132.727 11.7394 131.433 11.5305 130.178 11.5305C128.905 11.5305 127.615 11.7394 126.309 12.1571C125.002 12.5757 123.944 13.0461 123.136 13.5691L123.214 15.8693C123.214 16.8102 123.527 17.7079 124.155 18.561C124.783 19.4157 125.707 20.3996 126.928 21.515C126.292 21.6545 125.707 21.7239 125.174 21.7239H118.984V6.61595H115.527V24.9131H125.252C126.042 24.9131 126.872 24.8126 127.74 24.6125C128.609 24.4124 129.43 24.1381 130.204 23.7889C130.978 24.1381 131.807 24.4124 132.693 24.6125C133.578 24.8126 134.451 24.9131 135.311 24.9131H145.318V6.61595ZM130.23 20.1556C129.026 19.4412 128.115 18.6487 127.496 17.7773C126.876 16.9058 126.567 16.1045 126.567 15.3726C127.805 14.9373 129.017 14.7188 130.204 14.7188C131.407 14.7188 132.645 14.9373 133.918 15.3726C133.918 16.087 133.621 16.862 133.028 17.6983C132.435 18.5347 131.502 19.3543 130.23 20.1556Z" fill="white"/>
<path d="M152.902 6.61595H149.446V24.9131H152.902V6.61595Z" fill="white"/>
<path d="M168.635 6.14554H165.978V9.41286H168.635V6.14554Z" fill="white"/>
<path d="M164.818 24.3637C165.797 24.7297 167.139 24.9123 168.841 24.9123H228.475V6.61595H225.019V21.7239H219.551V19.2403C219.551 17.3762 219.206 15.7338 218.519 14.3138C217.831 12.8938 216.821 11.7872 215.488 10.9939C214.155 10.2014 212.552 9.80433 210.678 9.80433C209.629 9.80433 208.52 9.90957 207.351 10.1185C206.181 10.3274 204.942 10.5976 203.636 10.9285L203.92 13.7254C205.399 13.4814 206.59 13.2941 207.492 13.1633C208.395 13.0326 209.199 12.9672 209.904 12.9672C211.503 12.9672 212.935 13.4209 214.199 14.3266C215.462 15.2331 216.095 16.8707 216.095 19.2403V21.7239H213.67V21.2009C213.67 20.2951 213.442 19.4237 212.986 18.5873C212.531 17.751 211.898 17.0757 211.091 16.5614C210.282 16.0479 209.371 15.7904 208.356 15.7904C207.342 15.7904 206.422 16.0479 205.597 16.5614C204.772 17.0757 204.13 17.751 203.675 18.5873C203.219 19.4237 202.992 20.3039 202.992 21.2272V21.7239H196.414V11.8438H192.958V21.7239H185.245V11.8438H181.789V21.7239H175.264V11.9219C174.714 11.835 173.768 11.7561 172.427 11.6867C171.085 11.6174 169.933 11.5823 168.97 11.5823C167.165 11.5823 165.763 11.7697 164.766 12.1444C163.768 12.5191 163.046 13.1721 162.599 14.1041C162.152 15.037 161.929 16.3828 161.929 18.1424C161.929 19.9898 162.165 21.397 162.638 22.3641C163.11 23.3312 163.837 23.9978 164.818 24.3637ZM206.473 21.1745C206.473 20.5654 206.65 20.0464 207.002 19.6198C207.354 19.1925 207.797 18.9796 208.331 18.9796C208.864 18.9796 209.311 19.1885 209.672 19.6063C210.033 20.0248 210.214 20.5391 210.214 21.1482V21.7239H206.473V21.1745ZM165.746 16.0647C165.987 15.5855 166.369 15.2506 166.894 15.0585C167.418 14.8671 168.154 14.7707 169.099 14.7707C170.044 14.7707 170.947 14.8145 171.807 14.9014V21.7239H169.022C168.128 21.7239 167.423 21.6282 166.907 21.4361C166.391 21.2447 166.008 20.8915 165.759 20.3772C165.51 19.8638 165.385 19.1191 165.385 18.1424C165.385 17.2367 165.505 16.5439 165.746 16.0647Z" fill="white"/>
<path d="M172.556 6.14554H169.899V9.41286H172.556V6.14554Z" fill="white"/>
<path d="M180.681 8.83801L186.33 7.71382L185.968 6.11923L183.157 6.87746C182.744 6.58166 182.538 6.18939 182.538 5.70145C182.538 5.33549 182.662 5.02216 182.912 4.76064C183.161 4.49913 183.484 4.36837 183.879 4.36837C184.12 4.36837 184.334 4.40744 184.524 4.48637C184.713 4.56451 184.859 4.64743 184.962 4.73433L185.298 3.16605C184.627 2.74747 183.957 2.53858 183.286 2.53858C182.495 2.53858 181.846 2.8001 181.338 3.32232C180.831 3.84535 180.578 4.46405 180.578 5.17842C180.578 6.01479 180.913 6.72119 181.584 7.29604L180.397 7.60938L180.681 8.83801Z" fill="white"/>
<path d="M197.936 27.0036H195.279V30.2709H197.936V27.0036Z" fill="white"/>
<path d="M194.016 27.0036H191.359V30.2709H194.016V27.0036Z" fill="white"/>
<path d="M236.061 6.61595H232.605V24.9131H236.061V6.61595Z" fill="white"/>
<path d="M11.8834 43.1623C11.8834 41.386 11.4074 40.0329 10.4696 39.1424C9.53882 38.2566 8.13601 37.8077 6.2989 37.8077H0V54.5931H2.9142V48.6589H6.39252L8.95189 54.5931H12.1423L9.25244 48.0171C10.9983 47.1631 11.8834 45.5327 11.8834 43.1623ZM8.26897 45.3142C7.83467 45.7814 7.19818 46.0087 6.3225 46.0087H2.9142V40.4571H6.2989C7.17851 40.4571 7.84176 40.6875 8.27055 41.142C8.70406 41.6012 8.92357 42.2965 8.92357 43.2094C8.92357 44.1398 8.70327 44.847 8.26897 45.3142Z" fill="white"/>
<path d="M18.6111 41.9425C16.7425 41.9425 15.3562 42.4814 14.4916 43.5434C13.6426 44.5847 13.2123 46.2327 13.2123 48.4428C13.2123 50.6043 13.634 52.2252 14.4664 53.2585C15.3169 54.3141 16.711 54.8491 18.6111 54.8491C20.5119 54.8491 21.9069 54.3101 22.7582 53.2457C23.5898 52.2036 24.0115 50.5883 24.0115 48.4428C24.0115 46.251 23.5851 44.6078 22.7448 43.5578C21.8872 42.4854 20.4962 41.9425 18.6111 41.9425ZM20.8573 50.8203C20.7102 51.3322 20.4757 51.6878 20.1406 51.9054C19.7928 52.1319 19.2775 52.2467 18.6111 52.2467C17.9439 52.2467 17.4254 52.1319 17.069 51.9031C16.7268 51.6854 16.4892 51.3282 16.3428 50.8108C16.1839 50.2463 16.1029 49.4498 16.1029 48.4428C16.1029 47.3912 16.1878 46.5636 16.3546 45.9824C16.5041 45.4585 16.7512 45.0878 17.0879 44.8789C17.4459 44.658 17.9589 44.5456 18.6111 44.5456C19.2633 44.5456 19.7708 44.6573 20.1201 44.8765C20.4513 45.0862 20.696 45.4553 20.8463 45.972C21.0123 46.546 21.0965 47.3776 21.0965 48.4428C21.0965 49.4641 21.0155 50.2646 20.8573 50.8203Z" fill="white"/>
<path d="M35.1821 52.2116C35.0704 52.1072 35.0058 51.9493 34.9862 51.7603V46.1299C34.9862 44.7147 34.6408 43.6511 33.9594 42.9678C33.2789 42.2869 32.2034 41.9425 30.7612 41.9425C29.3427 41.9425 27.788 42.1426 26.1389 42.5364L25.8565 42.6034L25.9548 44.8645L26.3262 44.8239C27.9973 44.6389 29.4898 44.5456 30.7612 44.5456C31.2293 44.5456 31.5794 44.6628 31.8013 44.8932C32.0263 45.1277 32.1404 45.543 32.1404 46.1299V46.7175L29.1829 46.9909C27.8171 47.1249 26.8384 47.4797 26.1924 48.0745C25.5339 48.678 25.2011 49.6196 25.2011 50.873C25.2011 52.1287 25.5189 53.1134 26.146 53.8014C26.7809 54.4967 27.7046 54.8491 28.8942 54.8491C30.1782 54.8491 31.4772 54.5628 32.7588 53.996C33.1066 54.267 33.4992 54.4727 33.9303 54.6107C34.4236 54.7685 35.0255 54.8491 35.7194 54.8491H36.0554L36.1514 52.5106L35.843 52.4612C35.4527 52.399 35.2678 52.2905 35.1821 52.2116ZM32.1404 51.8082L31.8957 51.8911C31.0602 52.1741 30.1821 52.3169 29.286 52.3169C28.7298 52.3169 28.0925 52.1446 28.0925 50.802C28.0925 50.3069 28.2034 49.9377 28.4229 49.7033C28.6448 49.4657 29.0177 49.3174 29.526 49.264L32.1404 49.0184V51.8082Z" fill="white"/>
<path d="M44.5683 42.1896C41.6155 41.614 39.4244 42.0589 38.2568 43.561C37.4307 44.6246 37.0294 46.2678 37.0294 48.5831C37.0294 50.6697 37.3654 52.1901 38.0569 53.2322C38.7682 54.3053 39.9444 54.8491 41.5526 54.8491C42.4991 54.8491 43.5108 54.6003 44.5683 54.1076V54.5923H47.414V37.2464H44.5683V42.1896ZM44.5683 51.5881L44.3763 51.6639C44.0411 51.7962 43.6391 51.9166 43.1828 52.0219C41.7611 52.3472 40.8744 52.1622 40.4409 51.3769C40.1104 50.7789 39.9428 49.799 39.9428 48.4667C39.9428 47.0021 40.1411 45.9592 40.5306 45.3684C40.894 44.8143 41.5305 44.5448 42.4747 44.5448C43.0585 44.5448 43.761 44.619 44.5683 44.7657V51.5881Z" fill="white"/>
<path d="M57.1055 47.6615C56.5697 47.4263 55.827 47.2182 54.8994 47.0428C54.5689 46.979 54.3478 46.9391 54.2503 46.9248C53.6807 46.8195 53.2393 46.7199 52.9364 46.629C52.6775 46.5532 52.4667 46.4368 52.3093 46.2821C52.1795 46.157 52.1166 45.9696 52.1166 45.7097C52.1166 45.4386 52.1166 44.6166 54.1181 44.6166C55.0182 44.6166 56.3352 44.741 58.0339 44.9865L58.4241 45.0431L58.4878 42.5237L57.5193 42.3212C56.1244 42.0852 54.9411 41.9664 54.0032 41.9664C50.093 41.9664 49.2716 44.1294 49.2716 45.9433C49.2716 46.7438 49.4313 47.392 49.7452 47.8696C50.0615 48.3479 50.5139 48.7147 51.089 48.9571C51.6264 49.1859 52.3557 49.374 53.2542 49.5176L53.8113 49.6116C54.3872 49.7017 54.8356 49.7958 55.1433 49.8915C55.4147 49.9768 55.6279 50.1012 55.7955 50.271C55.9363 50.4137 56.0048 50.633 56.0048 50.9423C56.0048 51.3792 55.8616 51.6679 55.554 51.8528C55.1952 52.0681 54.635 52.1765 53.8876 52.1765C53.1102 52.1765 51.7845 52.0442 49.9474 51.7835L49.5682 51.7293L49.4407 54.3021L50.4399 54.4711C51.8829 54.7215 53.0741 54.8499 53.9804 54.8499C55.5909 54.8499 56.8128 54.5206 57.6122 53.8724C58.4328 53.2043 58.8498 52.155 58.8498 50.7558C58.8498 49.9473 58.705 49.2887 58.4202 48.8C58.1291 48.2993 57.6869 47.9166 57.1055 47.6615Z" fill="white"/>
<path d="M69.793 40.8693C70.3429 40.4707 71.1903 40.2689 72.3098 40.2689C73.6112 40.2689 75.2146 40.4093 77.0769 40.6867L77.4585 40.7433L77.5867 38.2478L76.4782 38.023C74.833 37.7088 73.2902 37.5502 71.8944 37.5502C70.3114 37.5502 69.0266 37.8635 68.0739 38.4822C67.1109 39.1081 66.4067 40.0704 65.9826 41.3421C65.5727 42.5755 65.365 44.202 65.365 46.1769C65.365 48.1534 65.5688 49.7815 65.97 51.0189C66.3855 52.2993 67.0935 53.2704 68.0747 53.9051C69.0416 54.5317 70.35 54.8491 71.9637 54.8491C73.4554 54.8491 75.2445 54.6585 77.2838 54.283L77.571 54.2296V45.5407H72.398V48.2371H74.6804V51.974C73.9172 52.0928 73.0746 52.1526 72.1714 52.1526C71.1549 52.1526 70.3673 51.9684 69.8299 51.6049C69.3052 51.2509 68.9307 50.6704 68.7159 49.8787C68.4877 49.0368 68.3721 47.8456 68.3721 46.3395C68.3721 44.7689 68.4767 43.5355 68.6844 42.6736C68.8811 41.8572 69.243 41.2672 69.793 40.8693Z" fill="white"/>
<path d="M84.6684 41.9433C82.8722 41.9433 81.519 42.5205 80.6449 43.6574C79.7936 44.7673 79.3617 46.4631 79.3617 48.7003C79.3617 50.7845 79.7677 52.3432 80.5702 53.3302C81.39 54.3388 82.7534 54.8499 84.6228 54.8499C85.7424 54.8499 87.2278 54.6912 89.039 54.3771L89.3395 54.3252L89.2734 51.9501L88.2546 52.0617C87.7793 52.108 87.2436 52.1431 86.6606 52.1654C85.1043 52.2252 83.958 52.2204 83.3128 51.9278C82.9446 51.7611 82.6866 51.4948 82.5221 51.1153C82.3703 50.7661 82.2759 50.279 82.2413 49.6635H89.5551L89.7219 47.7189C89.7219 43.8863 88.0217 41.9433 84.6684 41.9433ZM82.2177 47.2469C82.2672 46.3045 82.4694 45.6084 82.8188 45.1747C83.198 44.7043 83.803 44.4755 84.6684 44.4755C85.4812 44.4755 86.0343 44.6891 86.3592 45.1285C86.6676 45.5454 86.8399 46.2574 86.8722 47.2469H82.2177Z" fill="white"/>
<path d="M100.04 42.5899C99.4283 42.1601 98.5927 41.9425 97.5574 41.9425C96.9295 41.9425 96.3229 42.0262 95.7549 42.1904C95.3402 42.3092 94.887 42.4934 94.4032 42.7366V42.2H91.581V54.5931H94.4268V45.2098L94.5967 45.1285C95.4433 44.788 96.2607 44.6158 97.0271 44.6158C97.5455 44.6158 97.9358 44.7131 98.1868 44.9052C98.4322 45.0942 98.6053 45.4171 98.7021 45.8667C98.8115 46.377 98.8665 47.1185 98.8665 48.0689V54.5931H101.712V48.0218C101.712 46.5915 101.591 45.4386 101.353 44.5951C101.101 43.7013 100.66 43.026 100.04 42.5899Z" fill="white"/>
<path d="M108.855 41.9433C107.059 41.9433 105.705 42.5205 104.832 43.6574C103.98 44.7673 103.548 46.4639 103.548 48.7003C103.548 50.7845 103.955 52.3424 104.757 53.3302C105.577 54.3388 106.94 54.8499 108.809 54.8499C109.929 54.8499 111.415 54.6912 113.226 54.3771L113.526 54.3252L113.46 51.9501L112.441 52.0617C111.966 52.108 111.431 52.1431 110.848 52.1654C109.291 52.2252 108.144 52.2204 107.5 51.9278C107.132 51.7611 106.874 51.4948 106.708 51.1153C106.557 50.7661 106.463 50.2782 106.428 49.6635H113.742L113.909 47.7189C113.909 43.8863 112.209 41.9433 108.855 41.9433ZM106.405 47.2469C106.454 46.3045 106.656 45.6084 107.006 45.1747C107.385 44.7043 107.99 44.4755 108.855 44.4755C109.668 44.4755 110.221 44.6891 110.546 45.1285C110.855 45.5454 111.026 46.2574 111.058 47.2469H106.405Z" fill="white"/>
<path d="M118.589 43.3935V42.2H115.767V54.5923H118.613V46.1243L118.963 45.9608C119.376 45.7671 119.907 45.559 120.541 45.3445C121.168 45.1324 121.782 44.9634 122.367 44.8422L122.648 44.7832V41.8659L122.23 41.9488C121.031 42.1872 119.809 42.672 118.589 43.3935Z" fill="white"/>
<path d="M133.174 52.2116C133.061 52.1072 132.997 51.9493 132.977 51.7603V46.1299C132.977 44.7155 132.632 43.6511 131.95 42.967C131.27 42.2869 130.194 41.9425 128.752 41.9425C127.334 41.9425 125.778 42.1426 124.131 42.5364L123.848 42.6034L123.946 44.8645L124.318 44.8239C125.988 44.6389 127.481 44.5456 128.752 44.5456C129.221 44.5456 129.57 44.6628 129.792 44.8932C130.017 45.1277 130.131 45.543 130.131 46.1299V46.7175L127.175 46.9909C125.808 47.1249 124.829 47.4797 124.183 48.0737C123.526 48.6772 123.192 49.6196 123.192 50.873C123.192 52.1287 123.51 53.1134 124.137 53.8014C124.772 54.4959 125.696 54.8491 126.885 54.8491C128.169 54.8491 129.468 54.5628 130.75 53.996C131.097 54.267 131.491 54.4727 131.921 54.6107C132.414 54.7685 133.016 54.8491 133.71 54.8491H134.046L134.142 52.5106L133.834 52.4612C133.444 52.399 133.259 52.2913 133.174 52.2116ZM130.131 51.8082L129.887 51.8911C129.051 52.1741 128.173 52.3169 127.277 52.3169C126.721 52.3169 126.083 52.1446 126.083 50.802C126.083 50.3069 126.194 49.9377 126.413 49.7033C126.636 49.4657 127.009 49.3174 127.517 49.264L130.131 49.0184V51.8082Z" fill="white"/>
<path d="M138.532 37.2464H135.687V54.5931H138.532V37.2464Z" fill="white"/>
<path d="M149.324 37.8069L145.038 54.5923H147.951L148.942 50.8307H154.814L155.805 54.5923H158.717L154.432 37.8069H149.324ZM149.586 48.1343L151.55 40.4093H152.206L154.169 48.1343H149.586Z" fill="white"/>
<path d="M167.091 51.5738C166.662 51.7564 166.257 51.8999 165.885 52.0019C165.464 52.1175 165.01 52.1765 164.536 52.1765C163.999 52.1765 163.606 52.0888 163.368 51.9158C163.145 51.7524 162.986 51.4454 162.897 51.0005C162.795 50.4911 162.743 49.7009 162.743 48.6525V42.2H159.897V48.6525C159.897 50.1394 160.01 51.3306 160.231 52.1901C160.467 53.103 160.894 53.7839 161.5 54.2136C162.095 54.6354 162.938 54.8491 164.006 54.8491C164.649 54.8491 165.253 54.7661 165.8 54.6019C166.195 54.4815 166.627 54.3013 167.091 54.0621V54.5931H169.936V42.2H167.091V51.5738Z" fill="white"/>
<path d="M176.895 52.2005C176.549 52.2005 176.298 52.1335 176.168 52.0067C176.028 51.8696 175.935 51.6543 175.892 51.3697C175.841 51.0229 175.816 50.4863 175.816 49.7743V44.7792H179.205V42.2H175.816V38.7182H172.97V42.2H171.426V44.7792H172.97V50.1721C172.97 51.3266 173.073 52.2116 173.287 52.875C173.513 53.5806 173.896 54.0956 174.425 54.405L174.426 54.4058C174.939 54.7048 175.618 54.8499 176.503 54.8499C177.106 54.8499 177.964 54.7542 179.052 54.5644L179.368 54.5094L179.176 52.0633L176.895 52.2005Z" fill="white"/>
<path d="M189.058 42.5771C188.448 42.1561 187.606 41.9425 186.555 41.9425C185.96 41.9425 185.372 42.0166 184.809 42.1633C184.392 42.2718 183.935 42.4312 183.448 42.6393V37.2464H180.602V54.5923H183.448V45.095L183.603 45.04C184.408 44.7585 185.191 44.6158 185.933 44.6158C186.488 44.6158 186.904 44.7123 187.174 44.902C187.429 45.083 187.61 45.3971 187.713 45.8365C187.828 46.338 187.887 47.0898 187.887 48.0689V54.5923H190.733V48.0218C190.733 46.5931 190.612 45.4362 190.374 44.5847C190.121 43.6798 189.679 43.0045 189.058 42.5771Z" fill="white"/>
<path d="M197.968 41.9425C196.1 41.9425 194.713 42.4814 193.849 43.5434C193 44.5847 192.57 46.2327 192.57 48.4428C192.57 50.6043 192.991 52.2252 193.824 53.2585C194.674 54.3141 196.068 54.8491 197.968 54.8491C199.869 54.8491 201.264 54.3101 202.115 53.2457C202.946 52.2044 203.368 50.5883 203.368 48.4428C203.368 46.251 202.942 44.6078 202.102 43.5578C201.244 42.4854 199.853 41.9425 197.968 41.9425ZM200.215 50.8203C200.068 51.3322 199.833 51.687 199.497 51.9054C199.149 52.1319 198.635 52.2467 197.968 52.2467C197.301 52.2467 196.783 52.1319 196.426 51.9031C196.084 51.6854 195.846 51.3282 195.7 50.8108C195.54 50.2447 195.46 49.4482 195.46 48.4428C195.46 47.3912 195.544 46.5636 195.712 45.9824C195.861 45.4585 196.108 45.0878 196.445 44.8789C196.803 44.658 197.316 44.5456 197.968 44.5456C198.621 44.5456 199.128 44.6573 199.477 44.8765C199.808 45.0862 200.052 45.4553 200.204 45.972C200.37 46.546 200.454 47.3776 200.454 48.4428C200.454 49.4641 200.373 50.2646 200.215 50.8203Z" fill="white"/>
<path d="M208.117 43.3935V42.2H205.295V54.5923H208.141V46.1243L208.491 45.9608C208.904 45.7671 209.435 45.559 210.068 45.3445C210.695 45.1324 211.31 44.9634 211.895 44.8422L212.175 44.7832V41.8659L211.757 41.9488C210.559 42.1872 209.336 42.672 208.117 43.3935Z" fill="white"/>
<path d="M216.28 37.5502H213.458V40.6206H216.28V37.5502Z" fill="white"/>
<path d="M216.302 42.2H213.457V54.5931H216.302V42.2Z" fill="white"/>
<path d="M222.938 52.2005C222.593 52.2005 222.342 52.1335 222.212 52.0067C222.071 51.8696 221.978 51.6551 221.936 51.3697C221.885 51.0229 221.859 50.4863 221.859 49.7743V44.7792H225.248V42.2H221.859V38.7182H219.014V42.2H217.469V44.7792H219.014V50.1721C219.014 51.3274 219.118 52.2124 219.331 52.875C219.557 53.5814 219.941 54.0964 220.469 54.4058C220.981 54.7048 221.661 54.8499 222.546 54.8499C223.15 54.8499 224.007 54.7542 225.095 54.5644L225.412 54.5094L225.221 52.0633L222.938 52.2005Z" fill="white"/>
<path d="M231.113 52.0131H230.956L228.327 42.2H225.456L228.783 54.5931H230.454L229.025 59.687H231.877L236.636 42.2H233.764L231.113 52.0131Z" fill="white"/>
<path d="M249.523 2.31375H247.375V59.5555H249.523V2.31375Z" fill="white"/>
<path d="M285.243 60.0163C284.937 60.1981 284.634 60.3663 284.338 60.517C284.041 60.6685 283.751 60.8017 283.468 60.9133C283.076 61.0688 282.694 61.1931 282.324 61.2872C281.582 61.4754 280.885 61.54 280.239 61.4826C279.915 61.4531 279.604 61.3933 279.306 61.3024C278.949 61.1947 278.501 60.9962 277.973 60.7211C276.391 59.8967 274.11 58.3827 271.546 56.5401C271.119 56.2332 270.684 55.9174 270.244 55.5937C269.362 54.9463 268.457 54.2694 267.544 53.5766C265.718 52.1901 263.861 50.7382 262.097 49.3278C261.656 48.9754 261.22 48.6254 260.793 48.2802L260.783 48.9068C267.849 54.6051 276.298 60.9077 279.165 61.7784C279.649 61.9259 280.162 62 280.704 62C281.612 62 282.597 61.7919 283.648 61.3765C284.198 61.1589 285.111 60.643 285.728 60.2053L285.243 60.0163Z" fill="#B9B9B9"/>
<path d="M287.84 58.0311C287.915 57.9761 287.999 57.9139 288.091 57.8469C288.46 57.5766 288.947 57.2162 289.434 56.8559C289.677 56.6757 289.919 56.4947 290.147 56.3257C290.829 55.8194 291.375 55.4135 291.379 55.4135C290.297 55.4135 289.31 55.1672 288.459 54.8299C288.176 54.7175 287.907 54.5947 287.656 54.468C287.152 54.2144 286.716 53.9433 286.359 53.701C286.002 53.4586 285.724 53.2449 285.538 53.1062C280.06 49.0145 266.576 38.6504 260.789 34.1968V39.6471C261.97 40.5942 263.614 41.9042 265.248 43.1727L263.838 45.0384C262.676 44.1374 261.635 43.3274 260.789 42.6688V48.2802C261.217 48.6254 261.652 48.9754 262.093 49.3278C263.857 50.7382 265.714 52.1901 267.54 53.5766C268.453 54.2694 269.358 54.9463 270.24 55.5937C270.681 55.9174 271.116 56.2332 271.543 56.5409C274.106 58.3827 276.388 59.8967 277.97 60.7211C278.497 60.9962 278.946 61.1947 279.302 61.3024C279.6 61.3933 279.911 61.4531 280.235 61.4826C280.881 61.54 281.579 61.4754 282.32 61.2872C282.69 61.1931 283.073 61.0688 283.465 60.9133C283.747 60.8017 284.038 60.6685 284.335 60.517C284.63 60.3663 284.933 60.1981 285.239 60.0163C284.182 59.6169 283.315 59.2573 282.008 58.3827L283.362 56.588C285.082 57.3948 286.224 57.8812 287.463 58.2958C287.465 58.2958 287.483 58.2846 287.514 58.2639C287.575 58.2224 287.689 58.1403 287.84 58.0311ZM275.88 54.3013C274.06 52.9236 271.952 51.3075 269.845 49.685L271.248 47.8137C273.35 49.4322 275.454 51.0436 277.269 52.4181L275.88 54.3013Z" fill="white"/>
<path d="M290.128 53.8134C292.54 54.3731 293.901 53.744 294.849 52.9746L301.207 48.1996V42.1705L297.529 45.1611L296.077 43.329L300.932 39.3313L301.207 39.1057V33.0957L282.281 48.4683C282.287 48.4795 286.125 51.4303 286.117 51.4279L286.19 51.3681L290.199 48.1095L291.651 49.9425L288.06 52.8662C288.378 53.103 288.778 53.3119 289.158 53.4761C289.537 53.6404 289.896 53.7592 290.128 53.8134Z" fill="white"/>
<path d="M301.206 48.2004L294.849 52.9746C293.9 53.7448 292.54 54.3739 290.128 53.8134C289.896 53.7592 289.538 53.6412 289.158 53.4769C288.779 53.3127 288.379 53.103 288.061 52.867L288.099 52.8359L287.668 53.1644C288.365 53.7153 289.535 54.1865 290.019 54.2981C290.704 54.4576 291.311 54.5246 291.849 54.5246C293.491 54.5246 294.493 53.9011 295.142 53.3749L301.206 48.8191V48.2004Z" fill="#B9B9B9"/>
<path d="M301.207 42.1625L300.966 42.3658L301.207 42.1705L301.207 42.1625Z" fill="white"/>
<path d="M282.284 48.4683L301.209 33.0957V32.5121L281.549 48.4811L282.013 48.8391C282.523 49.2321 285.099 51.1998 285.774 51.7149L286.193 51.3681L286.12 51.4279C286.128 51.4303 282.291 48.4795 282.284 48.4683Z" fill="#B9B9B9"/>
<path d="M301.207 39.1057L300.932 39.3313L301.207 39.1153L301.207 39.1057Z" fill="white"/>
<path d="M291.505 54.9822C288.85 54.9647 286.613 53.2904 285.831 52.7051C280.605 48.8008 268.086 39.1846 261.089 33.7997L260.783 33.5645L260.792 34.196C266.579 38.6496 280.062 49.0145 285.54 53.1054C285.726 53.2449 286.004 53.4586 286.361 53.701C286.719 53.9433 287.154 54.2144 287.658 54.468C287.91 54.5947 288.178 54.7175 288.462 54.8299C289.313 55.1664 290.3 55.4128 291.382 55.4128C291.378 55.4128 290.833 55.8186 290.15 56.3257C289.922 56.4947 289.679 56.6749 289.436 56.8551C288.95 57.2154 288.463 57.5758 288.095 57.8461C288.003 57.9139 287.918 57.9761 287.842 58.0303C287.691 58.1403 287.578 58.2216 287.516 58.2639C287.486 58.2846 287.468 58.2958 287.465 58.2958L288.043 58.5087C288.539 58.1323 292.868 54.9918 292.868 54.9918L291.505 54.9822Z" fill="#B9B9B9"/>
</svg>
