<svg width="76" height="80" viewBox="0 0 76 80" fill="none" xmlns="http://www.w3.org/2000/svg">
<g clip-path="url(#clip0_303_99)">
<path d="M7.11913 72.0935C7.11913 72.5508 6.95653 72.9079 6.63122 73.1651C6.30591 73.4223 5.78928 73.5508 5.08109 73.5508H2.63733C2.18004 73.5508 1.78562 73.4999 1.45407 73.3984C1.12252 73.2968 0.848782 73.1523 0.633087 72.965C0.417275 72.7776 0.257976 72.5506 0.154838 72.2839C0.0516997 72.0172 0.000366211 71.7187 0.000366211 71.3886C0.000366211 71.0331 0.0626493 70.6853 0.187098 70.3456C0.311546 70.006 0.453773 69.7155 0.613307 69.4741C0.645214 69.4169 0.693133 69.4075 0.757065 69.4455L1.73664 69.9313C1.78809 69.9631 1.79763 70.0044 1.7656 70.0551C1.65623 70.233 1.56298 70.4266 1.48586 70.6362C1.40874 70.8457 1.37012 71.0553 1.37012 71.2648C1.37012 71.4872 1.41357 71.6711 1.50069 71.8173C1.5877 71.9633 1.69885 72.0776 1.83424 72.1602C1.96964 72.2427 2.12258 72.2999 2.2933 72.3317C2.46402 72.3635 2.63333 72.3794 2.80099 72.3794H4.81171C5.00491 72.3794 5.1661 72.3682 5.29502 72.346C5.42394 72.3237 5.52378 72.2936 5.59466 72.2556C5.66554 72.2174 5.71558 72.1683 5.74442 72.1079C5.77339 72.0475 5.78799 71.9793 5.78799 71.9031V71.5982H4.85233C4.22196 71.5982 3.73818 71.4443 3.40062 71.1363C3.06295 70.8284 2.89424 70.3124 2.89424 69.5884C2.89424 69.1821 2.95216 68.8407 3.06813 68.5645C3.18422 68.2883 3.34046 68.0661 3.53708 67.8978C3.73359 67.7295 3.95776 67.6088 4.20913 67.5358C4.4605 67.4629 4.72164 67.4263 4.99232 67.4263C5.2823 67.4263 5.55616 67.4613 5.81401 67.5311C6.07173 67.6011 6.29732 67.7185 6.49076 67.8835C6.68409 68.0487 6.83726 68.2677 6.95005 68.5407C7.06285 68.8138 7.11936 69.1536 7.11936 69.5599V72.0936L7.11913 72.0935ZM3.76231 66.6261C3.69791 66.6261 3.66589 66.5944 3.66589 66.5309V65.5974C3.66589 65.534 3.69803 65.5022 3.76231 65.5022H4.72694C4.7911 65.5022 4.82336 65.534 4.82336 65.5974V66.5309C4.82336 66.5945 4.7911 66.6261 4.72694 66.6261H3.76231ZM5.76868 69.5312C5.76868 68.8963 5.51142 68.5787 4.99703 68.5787C4.73977 68.5787 4.54515 68.6644 4.4134 68.8359C4.28154 69.0074 4.2156 69.2455 4.2156 69.5503C4.2156 69.8995 4.28942 70.1361 4.43742 70.2599C4.5853 70.3838 4.78133 70.4457 5.02587 70.4457H5.76868V69.5313V69.5312ZM5.24781 66.6261C5.1834 66.6261 5.15138 66.5944 5.15138 66.5309V65.5974C5.15138 65.534 5.18352 65.5022 5.24781 65.5022H6.22208C6.28625 65.5022 6.31851 65.534 6.31851 65.5974V66.5309C6.31851 66.5945 6.28625 66.6261 6.22208 66.6261H5.24781ZM8.72036 67.6834C8.72036 67.62 8.7525 67.5882 8.81678 67.5882H9.99357C10.0577 67.5882 10.09 67.62 10.09 67.6834V69.9313C10.1028 70.0901 10.1719 70.2155 10.2973 70.3075C10.4227 70.3996 10.5979 70.4456 10.823 70.4456H11.0352C11.1638 70.4456 11.2602 70.4901 11.3246 70.579C11.3888 70.6679 11.421 70.8139 11.421 71.0172C11.421 71.4045 11.2923 71.5982 11.0352 71.5982C10.823 71.5982 10.6397 71.5777 10.4854 71.5363C10.331 71.495 10.1991 71.4077 10.0899 71.2743V71.4267C10.0899 72.1506 9.94836 72.6855 9.66543 73.0317C9.38239 73.3777 8.90002 73.5508 8.21856 73.5508H7.77481C7.7104 73.5508 7.67838 73.519 7.67838 73.4556V72.4936C7.67838 72.43 7.71052 72.3983 7.77481 72.3983H7.98697C8.16063 72.3983 8.29568 72.3713 8.3921 72.3173C8.48853 72.2633 8.56094 72.184 8.60909 72.0792C8.65737 71.9745 8.68774 71.8459 8.70069 71.6935C8.71353 71.541 8.72 71.3665 8.72 71.1696V67.6834H8.72036ZM11.4503 70.4456C11.5661 70.4456 11.656 70.4203 11.7204 70.3695C11.7846 70.3187 11.8345 70.2489 11.87 70.16C11.9053 70.0711 11.9261 69.968 11.9327 69.8504C11.9391 69.7329 11.9424 69.6075 11.9424 69.4741V65.2163C11.9551 65.1529 11.987 65.1211 12.0381 65.1211H13.1971C13.2608 65.1211 13.2928 65.1529 13.2928 65.2163L13.3025 67.8929C13.5919 67.7659 13.9102 67.6564 14.2574 67.5642C14.6046 67.4722 14.968 67.4261 15.3474 67.4261C16.1255 67.4261 16.7204 67.6119 17.132 67.9833C17.5435 68.3548 17.7493 68.9343 17.7493 69.7217C17.7493 69.7598 17.7476 69.7964 17.7445 69.8312C17.7412 69.8662 17.7396 69.8995 17.7396 69.9312C17.7525 70.09 17.8216 70.2154 17.947 70.3074C18.0724 70.3995 18.2476 70.4455 18.4727 70.4455H18.6945C18.8231 70.4455 18.9195 70.49 18.9839 70.5789C19.048 70.6678 19.0803 70.8138 19.0803 71.017C19.0803 71.4044 18.9516 71.5981 18.6945 71.5981C18.4179 71.5981 18.1784 71.5586 17.9758 71.4791C17.7732 71.3998 17.6107 71.2395 17.4887 70.998C17.3407 71.2456 17.1319 71.4076 16.8618 71.4837C16.5917 71.5599 16.2284 71.598 15.7718 71.598H13.4664C13.2091 71.598 13.0258 71.5314 12.9165 71.398C12.8456 71.4807 12.6995 71.5346 12.4776 71.56C12.2558 71.5854 12.0257 71.5981 11.7879 71.5981H11.0354C10.9069 71.5981 10.8104 71.5586 10.746 71.4791C10.6819 71.3998 10.6496 71.249 10.6496 71.0266C10.6496 70.7853 10.6786 70.6281 10.7364 70.5551C10.7943 70.4822 10.894 70.4456 11.0354 70.4456H11.4503ZM15.0927 68.5787C14.7636 68.5787 14.4427 68.6232 14.1298 68.712C13.8169 68.801 13.5378 68.8995 13.2927 69.0074V70.0742C13.2927 70.2075 13.283 70.3313 13.2637 70.4456H15.1797C15.4182 70.4456 15.6134 70.4393 15.7651 70.4266C15.9167 70.4139 16.0344 70.3821 16.1182 70.3313C16.202 70.2805 16.2585 70.2012 16.2876 70.0932C16.3165 69.9853 16.3311 69.8361 16.3311 69.6455C16.3311 69.474 16.3117 69.3216 16.2731 69.1883C16.2344 69.0549 16.1682 68.9422 16.0747 68.8502C15.9811 68.7582 15.8552 68.6898 15.6972 68.6453C15.5391 68.601 15.3374 68.5787 15.0924 68.5787H15.0927ZM19.4952 65.2163C19.4952 65.1529 19.5274 65.1211 19.5916 65.1211H20.7684C20.8326 65.1211 20.8649 65.1529 20.8649 65.2163V69.9313C20.8777 70.0965 20.9452 70.2234 21.0675 70.3123C21.1896 70.4013 21.3665 70.4456 21.598 70.4456H21.8198C21.9484 70.4456 22.0448 70.4901 22.1092 70.579C22.1734 70.6679 22.2056 70.8139 22.2056 71.0172C22.2056 71.4045 22.077 71.5982 21.8198 71.5982C21.5754 71.5982 21.3631 71.5696 21.1832 71.5126C21.0031 71.4555 20.8519 71.3254 20.7298 71.122C20.6334 71.3063 20.4935 71.4316 20.3102 71.4982C20.1269 71.565 19.8776 71.5982 19.5626 71.5982H18.6944C18.5658 71.5982 18.4694 71.576 18.405 71.5316C18.3408 71.4872 18.3085 71.3983 18.3085 71.2649C18.3085 71.1888 18.3167 71.103 18.3327 71.0077C18.3488 70.9125 18.3713 70.8236 18.4003 70.741C18.4292 70.6586 18.4678 70.5886 18.516 70.5315C18.5643 70.4743 18.6237 70.4459 18.6945 70.4459H19.0322C19.1414 70.4459 19.2282 70.4268 19.2926 70.3886C19.3568 70.3505 19.4035 70.2951 19.4325 70.2219C19.4614 70.149 19.4791 70.0585 19.4856 69.9505C19.4919 69.8426 19.4952 69.7188 19.4952 69.579V65.2163ZM21.8103 71.5982C21.6817 71.5982 21.5853 71.576 21.5209 71.5316C21.4567 71.4872 21.4245 71.3983 21.4245 71.2649C21.4245 71.1888 21.4326 71.103 21.4486 71.0077C21.4647 70.9125 21.4872 70.8236 21.5162 70.741C21.5451 70.6586 21.5838 70.5886 21.6319 70.5315C21.6802 70.4743 21.7396 70.4459 21.8104 70.4459H22.1481C22.3088 70.4459 22.4262 70.4093 22.5001 70.3363C22.5739 70.2634 22.611 70.1315 22.611 69.941V65.2165C22.611 65.1532 22.6432 65.1213 22.7074 65.1213H23.8842C23.9484 65.1213 23.9807 65.1532 23.9807 65.2165V70.3983C23.9807 70.8111 23.8939 71.1144 23.7202 71.3079C23.5466 71.5017 23.2572 71.5985 22.852 71.5985H21.8103V71.5982ZM30.1059 67.4262V67.0166C30.1059 66.9532 30.1381 66.9214 30.2024 66.9214H31.3792C31.4433 66.9214 31.4756 66.9532 31.4756 67.0166V69.9408C31.4756 70.1312 31.5126 70.2632 31.5865 70.3361C31.6603 70.4092 31.7778 70.4456 31.9385 70.4456H32.2376C32.4947 70.4456 32.6234 70.6394 32.6234 71.0267C32.6234 71.2491 32.5928 71.3998 32.5318 71.4792C32.4706 71.5587 32.3726 71.5982 32.2376 71.5982H31.2343C30.9192 71.5982 30.6732 71.5491 30.4964 71.4506C30.3194 71.3522 30.2021 71.1664 30.1443 70.8933C30.0028 71.0076 29.8388 71.0933 29.6524 71.1505C29.4658 71.2077 29.2698 71.2362 29.064 71.2362C28.8132 71.2362 28.5735 71.2013 28.3453 71.1314C28.117 71.0617 27.916 70.9538 27.7424 70.8075C27.5687 70.6615 27.432 70.4711 27.3324 70.236C27.2327 70.0012 27.1829 69.7154 27.1829 69.3787C27.1829 68.9977 27.239 68.6818 27.3517 68.4309C27.4642 68.1802 27.6122 67.9802 27.7955 67.8309C27.9788 67.6817 28.1877 67.577 28.4224 67.5165C28.6571 67.4562 28.8966 67.4261 29.1411 67.4261H30.1057L30.1059 67.4262ZM28.1479 66.245C28.0835 66.245 28.0514 66.2132 28.0514 66.1498V65.2163C28.0514 65.1529 28.0836 65.1211 28.1479 65.1211H29.1125C29.1766 65.1211 29.2089 65.1529 29.2089 65.2163V66.1498C29.2089 66.2134 29.1766 66.245 29.1125 66.245H28.1479ZM29.3102 70.0837C29.5532 70.0837 29.7465 70.0156 29.8903 69.879C30.034 69.7425 30.1059 69.5282 30.1059 69.236V68.5788H29.3389C29.0959 68.5788 28.901 68.636 28.7541 68.7503C28.607 68.8646 28.5336 69.0742 28.5336 69.3789C28.5336 69.6393 28.6069 69.8219 28.7541 69.9266C28.901 70.0314 29.0865 70.0838 29.31 70.0838L29.3102 70.0837ZM29.6334 66.245C29.5689 66.245 29.5369 66.2132 29.5369 66.1498V65.2163C29.5369 65.1529 29.5691 65.1211 29.6334 65.1211H30.6076C30.6718 65.1211 30.7041 65.1529 30.7041 65.2163V66.1498C30.7041 66.2134 30.6718 66.245 30.6076 66.245H29.6334ZM35.3197 71.6649C34.978 71.6649 34.6638 71.6221 34.377 71.5363C34.0902 71.4506 33.8501 71.2998 33.6568 71.0838C33.5665 71.2108 33.4618 71.3076 33.3425 71.3743C33.2233 71.4411 33.1026 71.4919 32.9805 71.5267C32.8583 71.5617 32.7394 71.5824 32.6236 71.5887C32.5079 71.5951 32.405 71.5982 32.3149 71.5982C32.1864 71.5982 32.0899 71.5571 32.0255 71.4744C31.9614 71.392 31.9291 71.2458 31.9291 71.0362C31.9291 70.8141 31.9597 70.66 32.0207 70.5742C32.0819 70.4885 32.1799 70.4456 32.3149 70.4456H32.5947C32.7361 70.4456 32.868 70.3853 32.9902 70.2646C33.1123 70.144 33.1797 69.9186 33.1928 69.5883V69.3979C33.1928 69.0233 33.2524 68.7089 33.3715 68.4549C33.4908 68.201 33.6487 67.9976 33.8453 67.8453C34.0418 67.6929 34.2675 67.585 34.5222 67.5214C34.7767 67.4581 35.0426 67.4262 35.3198 67.4262C35.6033 67.4262 35.874 67.4612 36.1319 67.531C36.3896 67.6009 36.6169 67.7184 36.8134 67.8833C37.01 68.0485 37.1663 68.2691 37.2824 68.5453C37.3985 68.8216 37.4565 69.1692 37.4565 69.5883C37.4565 69.9757 37.4017 70.3027 37.2921 70.5694C37.1824 70.8361 37.0327 71.0505 36.8427 71.2124C36.6524 71.3743 36.4269 71.4902 36.1659 71.56C35.9049 71.6299 35.6229 71.6647 35.32 71.6647L35.3197 71.6649ZM36.1058 69.5408C36.1058 68.8995 35.8421 68.5787 35.3149 68.5787C34.7811 68.5787 34.5143 68.8995 34.5143 69.5408C34.5143 69.9027 34.5817 70.1552 34.7169 70.298C34.8519 70.4409 35.0512 70.5122 35.315 70.5122C35.5851 70.5122 35.7843 70.4409 35.9131 70.298C36.0417 70.1551 36.1061 69.9027 36.1061 69.5408H36.1058ZM38.4787 65.2163C38.4787 65.1529 38.5105 65.1211 38.5745 65.1211H39.7335C39.7972 65.1211 39.8292 65.1529 39.8292 65.2163V69.9408C39.8292 70.1312 39.8661 70.2632 39.9401 70.3361C40.0139 70.4092 40.1314 70.4456 40.2921 70.4456H40.5526C40.6811 70.4456 40.7776 70.4918 40.842 70.5837C40.9061 70.6758 40.9384 70.8299 40.9384 71.0458C40.9384 71.2743 40.9078 71.4236 40.8468 71.4935C40.7856 71.5635 40.6876 71.5982 40.5526 71.5982H39.5992C39.1968 71.5982 38.9095 71.5015 38.7372 71.3077C38.5648 71.114 38.4787 70.8109 38.4787 70.3981V65.2163ZM43.3308 67.4262C43.723 67.4262 44.0623 67.4628 44.3485 67.5357C44.6346 67.6088 44.8709 67.712 45.0575 67.8453C45.244 67.9787 45.3807 68.1359 45.4675 68.3168C45.5543 68.4978 45.5977 68.693 45.5977 68.9026C45.5977 69.0741 45.5703 69.236 45.5158 69.3883C45.461 69.5408 45.3887 69.6821 45.2988 69.8122C45.2086 69.9424 45.1073 70.0599 44.9949 70.1646C44.8824 70.2694 44.7714 70.3599 44.6621 70.4361C44.7327 70.4425 44.8051 70.4456 44.8791 70.4456H46.1186C46.2472 70.4456 46.3404 70.4885 46.3983 70.5742C46.4563 70.6599 46.4851 70.8045 46.4851 71.0076C46.4851 71.2426 46.4513 71.3998 46.3839 71.4791C46.3164 71.5586 46.2279 71.5981 46.1186 71.5981H44.5848C44.3534 71.5981 44.133 71.5775 43.9241 71.5362C43.715 71.4949 43.5173 71.4171 43.3308 71.3028C43.1186 71.4171 42.8934 71.4949 42.6556 71.5362C42.4176 71.5775 42.2054 71.5981 42.019 71.5981H40.5624C40.4339 71.5981 40.3406 71.5632 40.2827 71.4934C40.2248 71.4236 40.1959 71.2743 40.1959 71.0456C40.1959 70.8679 40.2201 70.7234 40.2682 70.6122C40.3165 70.5012 40.4146 70.4455 40.5624 70.4455H41.5753C41.6846 70.4455 41.802 70.4424 41.9274 70.436C42.0528 70.4297 42.1733 70.4106 42.2891 70.3789C42.1989 70.1122 42.0543 69.8726 41.855 69.6597C41.6555 69.4471 41.4369 69.2581 41.1991 69.0929C41.1475 69.0548 41.1123 69.0089 41.093 68.9548C41.0737 68.901 41.064 68.8262 41.064 68.731V68.1119C41.064 68.0295 41.1315 67.9484 41.2665 67.869C41.4016 67.7897 41.5768 67.7166 41.7922 67.65C42.0076 67.5833 42.2504 67.5294 42.5205 67.488C42.7906 67.4469 43.0607 67.4261 43.3308 67.4261V67.4262ZM43.4369 70.2171C43.6491 70.0901 43.8275 69.9345 43.9722 69.7503C44.1169 69.5661 44.1892 69.3725 44.1892 69.1692C44.1892 68.9658 44.1135 68.8168 43.9626 68.7215C43.8114 68.6262 43.6009 68.5786 43.3308 68.5786C43.1122 68.5786 42.9192 68.5993 42.752 68.6405C42.5847 68.6819 42.4723 68.7183 42.4143 68.7501C42.678 68.9279 42.8966 69.1486 43.0703 69.4121C43.2439 69.6756 43.366 69.944 43.4368 70.2169L43.4369 70.2171ZM46.1186 71.5982C45.99 71.5982 45.8936 71.576 45.8292 71.5316C45.765 71.4872 45.7328 71.3983 45.7328 71.2649C45.7328 71.1888 45.7409 71.103 45.7569 71.0077C45.773 70.9125 45.7955 70.8236 45.8244 70.741C45.8533 70.6586 45.8919 70.5886 45.9401 70.5315C45.9884 70.4743 46.0478 70.4459 46.1186 70.4459H46.4563C46.617 70.4459 46.7344 70.4093 46.8083 70.3363C46.8821 70.2634 46.9192 70.1315 46.9192 69.941V65.2165C46.9192 65.1532 46.9514 65.1213 47.0156 65.1213H48.1924C48.2566 65.1213 48.2888 65.1532 48.2888 65.2165V70.3983C48.2888 70.8111 48.2021 71.1144 48.0284 71.3079C47.8548 71.5017 47.5654 71.5985 47.1602 71.5985H46.1185L46.1186 71.5982ZM50.797 71.503C50.797 71.5666 50.7651 71.5982 50.7013 71.5982H49.5423C49.4784 71.5982 49.4466 71.5665 49.4466 71.503V65.2163C49.4466 65.1529 49.4784 65.1211 49.5423 65.1211H50.7013C50.765 65.1211 50.797 65.1529 50.797 65.2163V71.503ZM56.932 67.4262V67.0166C56.932 66.9532 56.9641 66.9214 57.0284 66.9214H58.2052C58.2693 66.9214 58.3016 66.9532 58.3016 67.0166V69.9408C58.3016 70.1312 58.3386 70.2632 58.4125 70.3361C58.4863 70.4092 58.6038 70.4456 58.7645 70.4456H59.0636C59.3207 70.4456 59.4494 70.6394 59.4494 71.0267C59.4494 71.2491 59.4188 71.3998 59.3578 71.4792C59.2966 71.5587 59.1986 71.5982 59.0636 71.5982H58.0603C57.7452 71.5982 57.4992 71.5491 57.3224 71.4506C57.1454 71.3522 57.0281 71.1664 56.9703 70.8933C56.8288 71.0076 56.6648 71.0933 56.4784 71.1505C56.2918 71.2077 56.0958 71.2362 55.89 71.2362C55.6392 71.2362 55.3995 71.2013 55.1713 71.1314C54.943 71.0617 54.742 70.9538 54.5684 70.8075C54.3947 70.6615 54.258 70.4711 54.1584 70.236C54.0587 70.0012 54.0089 69.7154 54.0089 69.3787C54.0089 68.9977 54.0652 68.6818 54.1777 68.4309C54.2902 68.1802 54.4382 67.9802 54.6215 67.8309C54.8048 67.6817 55.0137 67.577 55.2484 67.5165C55.4831 67.4562 55.7226 67.4261 55.9671 67.4261H56.9317L56.932 67.4262ZM54.9737 66.245C54.9093 66.245 54.8773 66.2132 54.8773 66.1498V65.2163C54.8773 65.1529 54.9095 65.1211 54.9737 65.1211H55.9384C56.0025 65.1211 56.0348 65.1529 56.0348 65.2163V66.1498C56.0348 66.2134 56.0025 66.245 55.9384 66.245H54.9737ZM56.1361 70.0837C56.3791 70.0837 56.5724 70.0156 56.7161 69.879C56.8599 69.7425 56.9318 69.5282 56.9318 69.236V68.5788H56.1648C55.9218 68.5788 55.7269 68.636 55.58 68.7503C55.4329 68.8646 55.3595 69.0742 55.3595 69.3789C55.3595 69.6393 55.4328 69.8219 55.58 69.9266C55.7269 70.0314 55.9123 70.0838 56.1359 70.0838L56.1361 70.0837ZM56.4592 66.245C56.3948 66.245 56.3628 66.2132 56.3628 66.1498V65.2163C56.3628 65.1529 56.395 65.1211 56.4592 65.1211H57.4335C57.4977 65.1211 57.5299 65.1529 57.5299 65.2163V66.1498C57.5299 66.2134 57.4977 66.245 57.4335 66.245H56.4592ZM61.2051 71.1219C61.0957 71.3189 60.9447 71.4474 60.7517 71.5077C60.5587 71.5681 60.2887 71.5981 59.9414 71.5981H59.1698C59.0412 71.5981 58.9448 71.5775 58.8804 71.5362C58.8162 71.4949 58.784 71.4044 58.784 71.2647C58.784 71.1823 58.7904 71.0932 58.8033 70.998C58.8162 70.9028 58.8387 70.8139 58.8709 70.7313C58.9031 70.6488 58.9449 70.5805 58.9962 70.5264C59.0478 70.4726 59.112 70.4455 59.1892 70.4455H59.5076C59.7068 70.4455 59.834 70.3901 59.8886 70.2788C59.9431 70.1678 59.9705 69.9692 59.9705 69.6834V67.6831C59.9705 67.6323 60.0171 67.6038 60.1104 67.5974C60.2035 67.5912 60.2856 67.5879 60.3564 67.5879H61.2439C61.308 67.5879 61.3403 67.6198 61.3403 67.6831V69.931C61.3531 70.0899 61.4222 70.2153 61.5476 70.3073C61.673 70.3994 61.8482 70.4454 62.0733 70.4454H62.2951C62.4237 70.4454 62.5201 70.4899 62.5845 70.5787C62.6487 70.6677 62.681 70.8137 62.681 71.0169C62.681 71.4043 62.5523 71.598 62.2951 71.598C62.0507 71.598 61.8384 71.5694 61.6585 71.5123C61.4784 71.4552 61.3272 71.3253 61.2051 71.1219ZM59.8836 66.0736C59.845 66.0102 59.8128 65.9403 59.7872 65.8641C59.7614 65.788 59.7486 65.699 59.7486 65.5974C59.7486 65.4831 59.7694 65.3705 59.8113 65.2593C59.8531 65.1483 59.9174 65.0483 60.0043 64.9593C60.0911 64.8704 60.2035 64.7989 60.342 64.745C60.4802 64.6911 60.6459 64.6641 60.8387 64.6641C61.0444 64.6641 61.2294 64.7022 61.3934 64.7783C61.5574 64.8545 61.678 64.9467 61.7551 65.0546C61.7807 65.0864 61.7776 65.1182 61.7454 65.1498L61.4367 65.4737C61.4109 65.4992 61.382 65.4928 61.3499 65.4546C61.2791 65.3913 61.2068 65.3403 61.1329 65.3022C61.0589 65.2641 60.9705 65.245 60.8677 65.245C60.739 65.245 60.6376 65.28 60.5638 65.3498C60.4898 65.4198 60.4529 65.515 60.4529 65.6355C60.4529 65.7498 60.4819 65.842 60.5397 65.9118C60.5976 65.9818 60.6618 66.0356 60.7326 66.0737H61.7455C61.7842 66.0737 61.8035 66.0961 61.8035 66.1403V66.5881C61.8035 66.6326 61.7842 66.6547 61.7455 66.6547H59.5462C59.5076 66.6547 59.4883 66.6325 59.4883 66.5881V66.1403C59.4883 66.0961 59.5076 66.0737 59.5462 66.0737H59.8838L59.8836 66.0736ZM63.3465 67.6834C63.3465 67.62 63.3783 67.5882 63.4423 67.5882H64.6013C64.665 67.5882 64.697 67.62 64.697 67.6834V69.9313C64.7098 70.0901 64.7789 70.2155 64.9043 70.3075C65.0297 70.3996 65.2049 70.4456 65.43 70.4456H65.6518C65.7804 70.4456 65.8768 70.4901 65.9412 70.579C66.0054 70.6679 66.0377 70.8139 66.0377 71.0172C66.0377 71.4045 65.909 71.5982 65.6518 71.5982C65.4074 71.5982 65.1951 71.5696 65.0152 71.5126C64.8351 71.4555 64.6843 71.3254 64.5628 71.122C64.4606 71.3254 64.3088 71.4555 64.1077 71.5126C63.9066 71.5698 63.6304 71.5982 63.2788 71.5982H62.2852C62.1567 71.5982 62.0602 71.5587 61.9958 71.4792C61.9317 71.3999 61.8994 71.2522 61.8994 71.0362C61.8994 70.8202 61.93 70.668 61.991 70.579C62.0522 70.4901 62.1502 70.4456 62.2852 70.4456H62.8834C63.089 70.4456 63.2176 70.387 63.2692 70.2694C63.3206 70.1519 63.3463 69.9502 63.3463 69.6645V67.6833L63.3465 67.6834ZM62.7389 73.5508C62.6745 73.5508 62.6425 73.519 62.6425 73.4556V72.5222C62.6425 72.4586 62.6746 72.4269 62.7389 72.4269H63.7035C63.7677 72.4269 63.7999 72.4586 63.7999 72.5222V73.4556C63.7999 73.519 63.7677 73.5508 63.7035 73.5508H62.7389ZM64.2244 73.5508C64.16 73.5508 64.128 73.519 64.128 73.4556V72.5222C64.128 72.4586 64.1601 72.4269 64.2244 72.4269H65.1987C65.2628 72.4269 65.2951 72.4586 65.2951 72.5222V73.4556C65.2951 73.519 65.2628 73.5508 65.1987 73.5508H64.2244ZM65.6616 71.5982C65.4045 71.5982 65.2758 71.4111 65.2758 71.0362C65.2758 70.6426 65.4045 70.4456 65.6616 70.4456H66.4815V69.5312C66.4815 69.1249 66.5425 68.7852 66.6648 68.512C66.7869 68.239 66.9461 68.0231 67.1424 67.8643C67.3384 67.7056 67.5603 67.5928 67.808 67.5261C68.0554 67.4595 68.3047 67.4261 68.5556 67.4261C68.845 67.4261 69.1183 67.4579 69.3755 67.5213C69.6327 67.5849 69.8578 67.6896 70.0507 67.8357C70.2437 67.9818 70.3979 68.1755 70.5138 68.4167C70.6295 68.6582 70.6875 68.9534 70.6875 69.3027C70.6875 69.5251 70.6585 69.7441 70.6007 69.9599C70.5428 70.1758 70.4785 70.3377 70.4077 70.4456H71.3048C71.4398 70.4456 71.5378 70.4885 71.599 70.5742C71.66 70.6599 71.6906 70.8109 71.6906 71.0267C71.6906 71.2425 71.6583 71.392 71.5942 71.4744C71.5298 71.5571 71.4333 71.5982 71.3048 71.5982H70.3981C70.4622 71.6871 70.5122 71.7902 70.5476 71.9078C70.5829 72.0253 70.6007 72.1475 70.6007 72.2745C70.6007 72.5222 70.5491 72.7348 70.4463 72.9127C70.3434 73.0903 70.2004 73.235 70.0171 73.3461C69.8337 73.4571 69.6199 73.5381 69.3756 73.589C69.1312 73.6398 68.8644 73.6651 68.575 73.6651C68.2791 73.6651 68.0042 73.6413 67.7503 73.5937C67.4962 73.5461 67.2743 73.4635 67.0847 73.3461C66.8949 73.2286 66.747 73.073 66.6409 72.8793C66.5349 72.6855 66.4818 72.4459 66.4818 72.1601V71.5981H65.6618L65.6616 71.5982ZM68.5701 68.5787C68.3464 68.5787 68.1673 68.6502 68.0332 68.793C67.8991 68.9359 67.832 69.1565 67.832 69.455V70.4646H68.6372C68.8863 70.4646 69.0683 70.3694 69.1836 70.1788C69.2986 69.9884 69.3562 69.7534 69.3562 69.4739C69.3562 69.1691 69.2874 68.9438 69.15 68.7976C69.0125 68.6516 68.8193 68.5786 68.5702 68.5786L68.5701 68.5787ZM68.5844 72.5603C68.8352 72.5603 69.0137 72.5175 69.1198 72.4317C69.2259 72.346 69.279 72.2236 69.279 72.065C69.279 71.8998 69.229 71.7681 69.1294 71.6697C69.0297 71.5714 68.8191 71.5221 68.4977 71.5221H67.8321V71.9889C67.8321 72.192 67.8931 72.338 68.0154 72.4271C68.1375 72.5159 68.3273 72.5604 68.5845 72.5604L68.5844 72.5603ZM71.295 71.5982C71.1664 71.5982 71.07 71.576 71.0056 71.5316C70.9414 71.4872 70.9092 71.3983 70.9092 71.2649C70.9092 71.1888 70.9173 71.103 70.9333 71.0077C70.9494 70.9125 70.9719 70.8236 71.0008 70.741C71.0297 70.6586 71.0683 70.5886 71.1165 70.5315C71.1648 70.4743 71.2242 70.4459 71.295 70.4459H71.6327C71.7934 70.4459 71.9108 70.4093 71.9847 70.3363C72.0585 70.2634 72.0956 70.1315 72.0956 69.941V65.2165C72.0956 65.1532 72.1277 65.1213 72.192 65.1213H73.3688C73.433 65.1213 73.4652 65.1532 73.4652 65.2165V70.3983C73.4652 70.8111 73.3785 71.1144 73.2048 71.3079C73.0311 71.5017 72.7417 71.5985 72.3366 71.5985H71.2949L71.295 71.5982ZM75.9734 71.503C75.9734 71.5666 75.9415 71.5982 75.8777 71.5982H74.7187C74.6547 71.5982 74.623 71.5665 74.623 71.503V65.2163C74.623 65.1529 74.6547 65.1211 74.7187 65.1211H75.8777C75.9414 65.1211 75.9734 65.1529 75.9734 65.2163V71.503Z" fill="#76777A"/>
<path d="M2.21723 79.936C2.17379 79.936 2.14447 79.9165 2.12869 79.8778L1.43887 78.4278H0.902222C0.878439 78.4278 0.866783 78.4396 0.866783 78.4628V79.8778C0.866783 79.9167 0.846886 79.936 0.807561 79.936H0.0588687C0.0195444 79.936 0 79.9165 0 79.8778V76.0347C0 75.9959 0.0196622 75.9766 0.0588687 75.9766H1.6568C1.86119 75.9766 2.0471 76.0066 2.21417 76.0667C2.38124 76.127 2.52476 76.2114 2.6445 76.3201C2.76459 76.4288 2.8569 76.5588 2.92166 76.7102C2.98665 76.8614 3.01902 77.0268 3.01902 77.2051C3.01902 77.4613 2.95627 77.6847 2.83041 77.8748C2.70455 78.0651 2.52971 78.2088 2.30565 78.3057L3.09555 79.8661C3.10356 79.8855 3.10356 79.9021 3.09555 79.9155C3.08778 79.9291 3.07401 79.936 3.05435 79.936H2.21711H2.21723ZM1.60982 77.6999C1.77501 77.6999 1.90664 77.6554 2.00483 77.5661C2.10303 77.4768 2.15224 77.3566 2.15224 77.205C2.15224 77.0574 2.10303 76.9392 2.00483 76.8499C1.90664 76.7606 1.77501 76.7159 1.60982 76.7159H0.90234C0.878557 76.7159 0.866901 76.7276 0.866901 76.7509V77.665C0.866901 77.6885 0.878557 77.7 0.90234 77.7L1.60982 77.6999Z" fill="#76777A"/>
<path d="M5.14769 79.9998C4.79777 79.9998 4.49213 79.9201 4.23075 79.7608C3.96937 79.6019 3.78735 79.3612 3.68527 79.0389C3.66172 78.9691 3.643 78.9013 3.62935 78.8351C3.61557 78.769 3.60474 78.6953 3.59673 78.6139C3.58896 78.5323 3.58296 78.439 3.57907 78.3342C3.57519 78.2293 3.5733 78.1034 3.5733 77.9556C3.5733 77.8078 3.57519 77.6819 3.57907 77.5773C3.58296 77.4724 3.58908 77.3793 3.59673 77.2976C3.60474 77.2162 3.61557 77.1425 3.62935 77.0763C3.64289 77.0105 3.66172 76.9425 3.68527 76.8725C3.78735 76.5543 3.96937 76.3145 4.23075 76.1533C4.49213 75.9924 4.79777 75.9116 5.14769 75.9116C5.4976 75.9116 5.80325 75.9924 6.06463 76.1533C6.326 76.3145 6.50803 76.5543 6.61011 76.8725C6.63389 76.9424 6.65237 77.0104 6.66627 77.0763C6.68004 77.1425 6.69087 77.2162 6.69864 77.2976C6.70665 77.3792 6.71242 77.4724 6.7163 77.5773C6.72019 77.6819 6.72207 77.8081 6.72207 77.9556C6.72207 78.1031 6.72019 78.2293 6.7163 78.3342C6.71242 78.439 6.70665 78.5322 6.69864 78.6139C6.69087 78.6953 6.68016 78.769 6.66627 78.8351C6.65237 78.9013 6.63389 78.969 6.61011 79.0389C6.50803 79.3612 6.326 79.6019 6.06463 79.7608C5.80325 79.9201 5.4976 79.9998 5.14769 79.9998ZM5.14769 79.2427C5.31287 79.2427 5.44863 79.2039 5.55459 79.1264C5.66079 79.0485 5.73543 78.942 5.77864 78.8059C5.79053 78.771 5.80019 78.7314 5.8082 78.6866C5.81597 78.642 5.82291 78.5877 5.82892 78.5234C5.83469 78.4595 5.83857 78.3809 5.84057 78.2878C5.84257 78.1947 5.84363 78.0837 5.84363 77.9556C5.84363 77.8275 5.84257 77.7169 5.84057 77.6238C5.83857 77.5307 5.8348 77.452 5.82892 77.3881C5.82279 77.324 5.81597 77.2696 5.8082 77.225C5.80019 77.1805 5.79053 77.1406 5.77864 77.1056C5.73555 76.9698 5.66079 76.8631 5.55459 76.7852C5.44863 76.7077 5.31287 76.6688 5.14769 76.6688C4.9825 76.6688 4.84699 76.7077 4.74079 76.7852C4.63459 76.8631 4.55994 76.9698 4.51673 77.1056C4.50484 77.1406 4.49519 77.1805 4.48718 77.225C4.47941 77.2696 4.47246 77.3238 4.46669 77.3881C4.46093 77.4521 4.45669 77.5307 4.4548 77.6238C4.45292 77.7169 4.4521 77.8276 4.4521 77.9556C4.4521 78.0836 4.45292 78.1947 4.4548 78.2878C4.45669 78.3809 4.46093 78.4596 4.46669 78.5234C4.47246 78.5876 4.47941 78.642 4.48718 78.6866C4.49519 78.7313 4.50484 78.771 4.51673 78.8059C4.55983 78.942 4.63459 79.0485 4.74079 79.1264C4.84699 79.2039 4.9825 79.2427 5.14769 79.2427Z" fill="#76777A"/>
<path d="M8.46155 76.0342C8.47344 75.9954 8.49888 75.9761 8.5382 75.9761H9.28136C9.32033 75.9761 9.34612 75.9955 9.35801 76.0342L10.7141 79.8773C10.726 79.9162 10.7122 79.9355 10.6729 79.9355H9.90619C9.86687 79.9355 9.84144 79.9161 9.82955 79.8773L9.59972 79.1844H8.19629L7.97224 79.8773C7.96035 79.9162 7.93468 79.9355 7.89559 79.9355H7.12311C7.08355 79.9355 7.07001 79.9161 7.08167 79.8773L8.46155 76.0342ZM9.36389 78.4566L8.90978 77.0708H8.89212L8.43824 78.4566H9.36389Z" fill="#76777A"/>
<path d="M11.1802 76.0401C11.1802 76.0012 11.1999 75.9819 11.2391 75.9819H12.7311C13.0849 75.9819 13.3797 76.0556 13.6156 76.2029C13.8513 76.3505 14.0184 76.5734 14.1168 76.8716C14.1324 76.926 14.1472 76.9829 14.1611 77.043C14.1747 77.1032 14.1865 77.1738 14.1966 77.2552C14.2062 77.3366 14.2132 77.4336 14.217 77.5461C14.2209 77.6587 14.2228 77.7961 14.2228 77.9588C14.2228 78.1216 14.2209 78.2593 14.217 78.3718C14.2132 78.4843 14.2062 78.5811 14.1966 78.6625C14.1865 78.7438 14.1747 78.8146 14.1611 78.8746C14.1473 78.9347 14.1324 78.9918 14.1168 79.0461C14.0184 79.3447 13.8513 79.5675 13.6156 79.7147C13.3797 79.8623 13.0849 79.9357 12.7311 79.9357H11.2391C11.1998 79.9357 11.1802 79.9163 11.1802 79.8776V76.0401ZM12.0471 79.1435C12.0471 79.167 12.0588 79.1785 12.0826 79.1785H12.5365C12.737 79.1785 12.8983 79.1466 13.0199 79.0824C13.1419 79.0182 13.2284 78.9043 13.2794 78.7409C13.2913 78.7136 13.3009 78.6814 13.3089 78.6445C13.3167 78.6077 13.3236 78.5601 13.3297 78.5017C13.3354 78.4432 13.3393 78.3703 13.3413 78.2826C13.3432 78.1952 13.3444 78.0871 13.3444 77.9587C13.3444 77.8304 13.3433 77.7233 13.3413 77.6378C13.3394 77.552 13.3355 77.4802 13.3297 77.4218C13.3235 77.3637 13.3167 77.3158 13.3089 77.2789C13.3009 77.2421 13.2913 77.2079 13.2794 77.1765C13.2285 77.0132 13.1419 76.8996 13.0199 76.8351C12.8981 76.7709 12.737 76.7389 12.5365 76.7389H12.0826C12.0588 76.7389 12.0471 76.7506 12.0471 76.7739V79.1435Z" fill="#76777A"/>
<path d="M16.2455 79.9999C16.0881 79.9999 15.9338 79.9852 15.7825 79.9562C15.6312 79.9271 15.4887 79.8882 15.3551 79.8396C15.2212 79.7913 15.0984 79.7339 14.9863 79.6678C14.8744 79.602 14.7789 79.532 14.7004 79.4583C14.6688 79.4271 14.6669 79.3941 14.6946 79.3591L15.1427 78.8527C15.1662 78.8215 15.1958 78.8197 15.2312 78.8466C15.3649 78.9515 15.5203 79.0458 15.697 79.129C15.8741 79.2126 16.0685 79.2544 16.2809 79.2544C16.4933 79.2544 16.6554 79.2107 16.7674 79.1232C16.8793 79.0358 16.9352 78.9222 16.9352 78.7826C16.9352 78.666 16.8922 78.5709 16.8055 78.4972C16.7188 78.4234 16.5558 78.371 16.3162 78.3401L16.1038 78.3109C15.695 78.2565 15.3816 78.1334 15.1634 77.9411C14.9451 77.749 14.8362 77.4763 14.8362 77.1231C14.8362 76.9406 14.8694 76.7745 14.9363 76.6251C15.0029 76.4757 15.0984 76.3484 15.2223 76.2438C15.3461 76.1389 15.4956 76.0572 15.6704 75.9991C15.8452 75.9409 16.041 75.9116 16.2571 75.9116C16.5246 75.9116 16.7763 75.9487 17.0119 76.0222C17.2478 76.0962 17.4504 76.197 17.6193 76.325C17.6547 76.3483 17.6586 76.3775 17.6312 76.4125L17.2714 76.9424C17.2478 76.9736 17.2205 76.9792 17.189 76.9598C17.0358 76.8588 16.8833 76.7831 16.732 76.7325C16.5805 76.6823 16.4223 76.6569 16.2571 76.6569C16.0804 76.6569 15.9467 76.6975 15.8563 76.7792C15.7659 76.8605 15.7206 76.9636 15.7206 77.0878C15.7206 77.2004 15.7667 77.2935 15.8591 77.3672C15.9516 77.4409 16.1139 77.4934 16.3456 77.5245L16.558 77.5535C16.9746 77.6081 17.289 77.7312 17.5014 77.9233C17.7136 78.1156 17.8198 78.3919 17.8198 78.753C17.8198 78.9316 17.7864 79.0978 17.7197 79.251C17.6527 79.4045 17.5535 79.5364 17.4219 79.647C17.2902 79.7575 17.1259 79.8439 16.9295 79.9059C16.7329 79.9682 16.5049 79.9993 16.2454 79.9993L16.2455 79.9999Z" fill="#76777A"/>
<path d="M19.8012 79.0388C19.7776 78.9689 19.7589 78.9012 19.7453 78.835C19.7315 78.7689 19.7206 78.6952 19.7126 78.6138C19.7049 78.5322 19.6989 78.4389 19.695 78.334C19.6911 78.2292 19.6892 78.1033 19.6892 77.9555C19.6892 77.8077 19.6911 77.6818 19.695 77.5772C19.6989 77.4723 19.705 77.3792 19.7126 77.2975C19.7206 77.2161 19.7315 77.1424 19.7453 77.0762C19.7588 77.0104 19.7776 76.9424 19.8012 76.8724C19.9033 76.5504 20.0853 76.3095 20.3467 76.1503C20.608 75.9914 20.9176 75.9116 21.2755 75.9116C21.4641 75.9116 21.6351 75.9332 21.7886 75.9758C21.9418 76.0183 22.0785 76.0776 22.1982 76.1533C22.3183 76.229 22.4202 76.3183 22.5049 76.4213C22.5893 76.5243 22.6554 76.6357 22.7023 76.7561C22.722 76.795 22.7142 76.8242 22.6788 76.8432L22.0478 77.1054C22.0044 77.1169 21.9771 77.1072 21.9652 77.0762C21.8867 76.9404 21.7932 76.8386 21.6853 76.7706C21.5769 76.7025 21.4406 76.6687 21.2754 76.6687C21.1022 76.6687 20.9628 76.7086 20.8566 76.7881C20.7504 76.8676 20.6757 76.9755 20.6325 77.1112C20.6206 77.1462 20.611 77.1861 20.603 77.2306C20.5952 77.2754 20.5883 77.3298 20.5825 77.3937C20.5767 77.4579 20.5725 77.5354 20.5706 77.6267C20.5687 77.718 20.5679 77.8275 20.5679 77.9555C20.5679 78.0835 20.5687 78.1945 20.5706 78.2877C20.5725 78.3808 20.5767 78.4595 20.5825 78.5233C20.5883 78.5875 20.5952 78.6419 20.603 78.6864C20.611 78.7312 20.6206 78.7708 20.6325 78.8058C20.6756 78.9419 20.7514 79.0483 20.8596 79.1262C20.9678 79.2038 21.1102 79.2426 21.2873 79.2426C21.4363 79.2426 21.5702 79.2076 21.688 79.1378C21.8061 79.0679 21.8867 78.9671 21.9298 78.8351C21.9455 78.7846 21.9574 78.7283 21.9652 78.6661C21.9732 78.6041 21.9771 78.5303 21.9771 78.4448C21.9771 78.4216 21.9652 78.4098 21.9416 78.4098H21.3992C21.3597 78.4098 21.34 78.3904 21.34 78.3517V77.7928C21.34 77.754 21.3597 77.7344 21.3992 77.7344H22.7789C22.8182 77.7344 22.8377 77.754 22.8377 77.7928V78.1187C22.8377 78.2936 22.83 78.4584 22.8142 78.6139C22.7984 78.769 22.773 78.9012 22.7376 79.0096C22.6352 79.3281 22.4555 79.5726 22.198 79.7432C21.9405 79.9143 21.6328 79.9997 21.2753 79.9997C20.9177 79.9997 20.6078 79.92 20.3464 79.7607C20.085 79.6018 19.903 79.3611 19.8009 79.0388H19.8012Z" fill="#76777A"/>
<path d="M23.4984 76.0342C23.4984 75.9954 23.5181 75.9761 23.5573 75.9761H26.1282C26.1675 75.9761 26.1871 75.9955 26.1871 76.0342V76.6573C26.1871 76.6963 26.1674 76.7154 26.1282 76.7154H24.4006C24.3769 76.7154 24.3652 76.7271 24.3652 76.7504V77.5364C24.3652 77.5599 24.3769 77.5714 24.4006 77.5714H25.8392C25.8785 77.5714 25.8984 77.5911 25.8984 77.6299V78.2469C25.8984 78.286 25.8785 78.3054 25.8392 78.3054H24.4006C24.3769 78.3054 24.3652 78.3169 24.3652 78.3404V79.1614C24.3652 79.1847 24.3769 79.1961 24.4006 79.1961H26.1282C26.1675 79.1961 26.1871 79.2157 26.1871 79.2545V79.8776C26.1871 79.9164 26.1674 79.9357 26.1282 79.9357H23.5573C23.518 79.9357 23.4984 79.9163 23.4984 79.8776V76.0344V76.0342Z" fill="#76777A"/>
<path d="M26.83 76.0342C26.83 75.9954 26.8497 75.9761 26.8889 75.9761H27.5964C27.6395 75.9761 27.673 75.9955 27.6968 76.0342L29.1119 78.5265H29.1414V76.0342C29.1414 75.9954 29.1611 75.9761 29.2003 75.9761H29.8666C29.9059 75.9761 29.9255 75.9955 29.9255 76.0342V79.8773C29.9255 79.9162 29.9058 79.9355 29.8666 79.9355H29.1649C29.1218 79.9355 29.0882 79.9161 29.0648 79.8773L27.6437 77.3907H27.6141V79.8773C27.6141 79.9162 27.5945 79.9355 27.5553 79.9355H26.889C26.8497 79.9355 26.8301 79.9161 26.8301 79.8773L26.83 76.0342Z" fill="#76777A"/>
<path d="M30.6924 76.0342C30.6924 75.9954 30.712 75.9761 30.7513 75.9761H33.3222C33.3615 75.9761 33.381 75.9955 33.381 76.0342V76.6573C33.381 76.6963 33.3614 76.7154 33.3222 76.7154H31.5946C31.5708 76.7154 31.5592 76.7271 31.5592 76.7504V77.5364C31.5592 77.5599 31.5708 77.5714 31.5946 77.5714H33.0331C33.0724 77.5714 33.0923 77.5911 33.0923 77.6299V78.2469C33.0923 78.286 33.0724 78.3054 33.0331 78.3054H31.5946C31.5708 78.3054 31.5592 78.3169 31.5592 78.3404V79.1614C31.5592 79.1847 31.5708 79.1961 31.5946 79.1961H33.3222C33.3615 79.1961 33.381 79.2157 33.381 79.2545V79.8776C33.381 79.9164 33.3614 79.9357 33.3222 79.9357H30.7513C30.7119 79.9357 30.6924 79.9163 30.6924 79.8776V76.0344V76.0342Z" fill="#76777A"/>
<path d="M36.2411 79.936C36.1977 79.936 36.1683 79.9165 36.1526 79.8778L35.4627 78.4278H34.9261C34.9023 78.4278 34.8906 78.4396 34.8906 78.4628V79.8778C34.8906 79.9167 34.8708 79.936 34.8314 79.936H34.0827C34.0434 79.936 34.0239 79.9165 34.0239 79.8778V76.0347C34.0239 75.9959 34.0435 75.9766 34.0827 75.9766H35.6807C35.8851 75.9766 36.071 76.0066 36.238 76.0667C36.4051 76.127 36.5486 76.2114 36.6684 76.3201C36.7885 76.4288 36.8808 76.5588 36.9455 76.7102C37.0105 76.8614 37.0429 77.0268 37.0429 77.2051C37.0429 77.4613 36.9801 77.6847 36.8543 77.8748C36.7284 78.0651 36.5536 78.2088 36.3295 78.3057L37.1194 79.8661C37.1274 79.8855 37.1274 79.9021 37.1194 79.9155C37.1116 79.9291 37.0979 79.936 37.0782 79.936H36.2411ZM35.6337 77.6999C35.7989 77.6999 35.9305 77.6554 36.0287 77.5661C36.1269 77.4768 36.1761 77.3566 36.1761 77.205C36.1761 77.0574 36.1269 76.9392 36.0287 76.8499C35.9305 76.7606 35.7989 76.7159 35.6337 76.7159H34.9262C34.9024 76.7159 34.8908 76.7276 34.8908 76.7509V77.665C34.8908 77.6885 34.9024 77.7 34.9262 77.7L35.6337 77.6999Z" fill="#76777A"/>
<path d="M38.7825 76.0342C38.7944 75.9954 38.8198 75.9761 38.8591 75.9761H39.6023C39.6413 75.9761 39.667 75.9955 39.6789 76.0342L41.035 79.8773C41.0469 79.9162 41.0331 79.9355 40.9938 79.9355H40.2271C40.1878 79.9355 40.1624 79.9161 40.1505 79.8773L39.9206 79.1844H38.5172L38.2932 79.8773C38.2813 79.9162 38.2556 79.9355 38.2165 79.9355H37.444C37.4045 79.9355 37.3909 79.9161 37.4026 79.8773L38.7825 76.0342ZM39.6847 78.4566L39.2306 77.0708H39.2129L38.759 78.4566H39.6848H39.6847Z" fill="#76777A"/>
<path d="M41.5012 76.0342C41.5012 75.9954 41.5208 75.9761 41.56 75.9761H42.3087C42.348 75.9761 42.3679 75.9955 42.3679 76.0342V79.1435C42.3679 79.167 42.3796 79.1785 42.4034 79.1785H44.1721C44.2115 79.1785 44.2314 79.1979 44.2314 79.2364V79.8777C44.2314 79.9165 44.2115 79.9356 44.1721 79.9356H41.56C41.5207 79.9356 41.5012 79.9162 41.5012 79.8775V76.0343V76.0342Z" fill="#76777A"/>
<path d="M47.2147 76.0342C47.2266 75.9954 47.2521 75.9761 47.2914 75.9761H48.0345C48.0735 75.9761 48.0993 75.9955 48.1112 76.0342L49.4673 79.8773C49.4792 79.9162 49.4654 79.9355 49.4261 79.9355H48.6594C48.62 79.9355 48.5946 79.9161 48.5827 79.8773L48.3529 79.1844H46.9495L46.7254 79.8773C46.7135 79.9162 46.6879 79.9355 46.6488 79.9355H45.8763C45.8367 79.9355 45.8232 79.9161 45.8348 79.8773L47.2147 76.0342ZM48.1169 78.4566L47.6628 77.0708H47.6452L47.1913 78.4566H48.1171H48.1169Z" fill="#76777A"/>
<path d="M51.3131 80.0001C51.089 80.0001 50.8827 79.9671 50.694 79.901C50.505 79.8352 50.343 79.7378 50.2075 79.6098C50.0717 79.4817 49.9658 79.3226 49.8891 79.1325C49.8123 78.9424 49.7741 78.725 49.7741 78.4802V76.0347C49.7741 75.9959 49.7938 75.9766 49.833 75.9766H50.582C50.621 75.9766 50.6409 75.996 50.6409 76.0347V78.5035C50.6409 78.7406 50.7018 78.9227 50.8237 79.0509C50.9455 79.179 51.1087 79.2432 51.3131 79.2432C51.5136 79.2432 51.6749 79.179 51.7965 79.0509C51.9185 78.9227 51.9793 78.7406 51.9793 78.5035V76.0347C51.9793 75.9959 51.999 75.9766 52.0382 75.9766H52.7872C52.8266 75.9766 52.8461 75.996 52.8461 76.0347V78.4802C52.8461 78.725 52.808 78.9424 52.7311 79.1325C52.6544 79.3226 52.5485 79.4818 52.4127 79.6098C52.2772 79.738 52.1159 79.8352 51.9293 79.901C51.7426 79.9671 51.5371 80.0001 51.3131 80.0001Z" fill="#76777A"/>
<path d="M54.4799 79.9357C54.4403 79.9357 54.4206 79.9163 54.4206 79.8776V76.774C54.4206 76.7505 54.409 76.739 54.3855 76.739H53.3712C53.3317 76.739 53.312 76.7196 53.312 76.6811V76.0398C53.312 76.0014 53.3317 75.9819 53.3712 75.9819H56.3372C56.3765 75.9819 56.396 76.0014 56.396 76.0398V76.6811C56.396 76.7196 56.3764 76.739 56.3372 76.739H55.3229C55.2993 76.739 55.2874 76.7505 55.2874 76.774V79.8776C55.2874 79.9164 55.2678 79.9357 55.2285 79.9357H54.4799Z" fill="#76777A"/>
<path d="M56.8796 76.0342C56.8796 75.9954 56.8992 75.9761 56.9384 75.9761H57.6871C57.7265 75.9761 57.7464 75.9955 57.7464 76.0346V77.5248C57.7464 77.5483 57.758 77.56 57.7818 77.56H59.0907C59.1145 77.56 59.1261 77.5483 59.1261 77.5248V76.0346C59.1261 75.9955 59.1458 75.9761 59.1853 75.9761H59.934C59.9734 75.9761 59.9929 75.9955 59.9929 76.0342V79.8773C59.9929 79.9162 59.9732 79.9355 59.934 79.9355H59.1853C59.1458 79.9355 59.1261 79.9161 59.1261 79.8773V78.3516C59.1261 78.3284 59.1145 78.3166 59.0907 78.3166H57.7818C57.758 78.3166 57.7464 78.3284 57.7464 78.3516V79.8773C57.7464 79.9162 57.7265 79.9355 57.6871 79.9355H56.9384C56.8991 79.9355 56.8796 79.9161 56.8796 79.8773V76.0342Z" fill="#76777A"/>
<path d="M62.2278 79.9998C61.8779 79.9998 61.5722 79.9201 61.3108 79.7608C61.0494 79.6019 60.8674 79.3612 60.7653 79.0389C60.7418 78.9691 60.7231 78.9013 60.7094 78.8351C60.6956 78.769 60.6848 78.6953 60.6768 78.6139C60.669 78.5323 60.663 78.439 60.6591 78.3342C60.6553 78.2293 60.6534 78.1034 60.6534 77.9556C60.6534 77.8078 60.6553 77.6819 60.6591 77.5773C60.663 77.4724 60.6692 77.3793 60.6768 77.2976C60.6848 77.2162 60.6956 77.1425 60.7094 77.0763C60.723 77.0105 60.7418 76.9425 60.7653 76.8725C60.8674 76.5543 61.0494 76.3145 61.3108 76.1533C61.5722 75.9924 61.8779 75.9116 62.2278 75.9116C62.5777 75.9116 62.8833 75.9924 63.1447 76.1533C63.4061 76.3145 63.5881 76.5543 63.6902 76.8725C63.714 76.9424 63.7324 77.0104 63.7463 77.0763C63.7601 77.1425 63.7709 77.2162 63.7787 77.2976C63.7867 77.3792 63.7925 77.4724 63.7964 77.5773C63.8003 77.6819 63.8021 77.8081 63.8021 77.9556C63.8021 78.1031 63.8003 78.2293 63.7964 78.3342C63.7925 78.439 63.7867 78.5322 63.7787 78.6139C63.7709 78.6953 63.7602 78.769 63.7463 78.8351C63.7324 78.9013 63.714 78.969 63.6902 79.0389C63.5881 79.3612 63.4061 79.6019 63.1447 79.7608C62.8833 79.9201 62.5777 79.9998 62.2278 79.9998ZM62.2278 79.2427C62.393 79.2427 62.5287 79.2039 62.6347 79.1264C62.7409 79.0485 62.8155 78.942 62.8587 78.8059C62.8706 78.771 62.8803 78.7314 62.8883 78.6866C62.896 78.642 62.903 78.5877 62.909 78.5234C62.9148 78.4595 62.9186 78.3809 62.9206 78.2878C62.9226 78.1947 62.9237 78.0837 62.9237 77.9556C62.9237 77.8275 62.9226 77.7169 62.9206 77.6238C62.9186 77.5307 62.9149 77.452 62.909 77.3881C62.9029 77.324 62.896 77.2696 62.8883 77.225C62.8803 77.1805 62.8706 77.1406 62.8587 77.1056C62.8156 76.9698 62.7409 76.8631 62.6347 76.7852C62.5287 76.7077 62.393 76.6688 62.2278 76.6688C62.0626 76.6688 61.9271 76.7077 61.8209 76.7852C61.7147 76.8631 61.64 76.9698 61.5968 77.1056C61.5849 77.1406 61.5753 77.1805 61.5673 77.225C61.5595 77.2696 61.5525 77.3238 61.5468 77.3881C61.541 77.4521 61.5368 77.5307 61.5349 77.6238C61.533 77.7169 61.5322 77.8276 61.5322 77.9556C61.5322 78.0836 61.533 78.1947 61.5349 78.2878C61.5368 78.3809 61.541 78.4596 61.5468 78.5234C61.5525 78.5876 61.5595 78.642 61.5673 78.6866C61.5753 78.7313 61.5849 78.771 61.5968 78.8059C61.6399 78.942 61.7147 79.0485 61.8209 79.1264C61.9271 79.2039 62.0626 79.2427 62.2278 79.2427Z" fill="#76777A"/>
<path d="M66.6801 79.936C66.6367 79.936 66.6074 79.9165 66.5916 79.8778L65.9018 78.4278H65.3651C65.3413 78.4278 65.3297 78.4396 65.3297 78.4628V79.8778C65.3297 79.9167 65.3098 79.936 65.2705 79.936H64.5218C64.4824 79.936 64.4629 79.9165 64.4629 79.8778V76.0347C64.4629 75.9959 64.4826 75.9766 64.5218 75.9766H66.1197C66.3241 75.9766 66.51 76.0066 66.6771 76.0667C66.8441 76.127 66.9877 76.2114 67.1074 76.3201C67.2275 76.4288 67.3198 76.5588 67.3845 76.7102C67.4495 76.8614 67.4819 77.0268 67.4819 77.2051C67.4819 77.4613 67.4192 77.6847 67.2933 77.8748C67.1674 78.0651 66.9926 78.2088 66.7685 78.3057L67.5584 79.8661C67.5665 79.8855 67.5665 79.9021 67.5584 79.9155C67.5507 79.9291 67.5369 79.936 67.5172 79.936H66.68H66.6801ZM66.0727 77.6999C66.2379 77.6999 66.3695 77.6554 66.4677 77.5661C66.5659 77.4768 66.6151 77.3566 66.6151 77.205C66.6151 77.0574 66.5659 76.9392 66.4677 76.8499C66.3695 76.7606 66.2379 76.7159 66.0727 76.7159H65.3652C65.3414 76.7159 65.3298 76.7276 65.3298 76.7509V77.665C65.3298 77.6885 65.3414 77.7 65.3652 77.7L66.0727 77.6999Z" fill="#76777A"/>
<path d="M68.1425 76.0342C68.1425 75.9954 68.1621 75.9761 68.2013 75.9761H68.95C68.9893 75.9761 69.0092 75.9955 69.0092 76.0342V79.8773C69.0092 79.9162 68.9893 79.9355 68.95 79.9355H68.2013C68.162 79.9355 68.1425 79.9161 68.1425 79.8773V76.0342Z" fill="#76777A"/>
<path d="M70.6603 79.9357C70.6207 79.9357 70.601 79.9163 70.601 79.8776V76.774C70.601 76.7505 70.5894 76.739 70.566 76.739H69.5517C69.5121 76.739 69.4924 76.7196 69.4924 76.6811V76.0398C69.4924 76.0014 69.5121 75.9819 69.5517 75.9819H72.5176C72.5569 75.9819 72.5765 76.0014 72.5765 76.0398V76.6811C72.5765 76.7196 72.5568 76.739 72.5176 76.739H71.5033C71.4797 76.739 71.4678 76.7505 71.4678 76.774V79.8776C71.4678 79.9164 71.4482 79.9357 71.409 79.9357H70.6603Z" fill="#76777A"/>
<path d="M73.9742 79.9356C73.9349 79.9356 73.9153 79.9162 73.9153 79.8775V78.3575L72.7301 76.0342C72.7143 75.9954 72.7282 75.9761 72.7713 75.9761H73.538C73.5811 75.9761 73.6105 75.9955 73.6262 76.0342L74.3517 77.4782H74.3693L75.0946 76.0342C75.1104 75.9954 75.1397 75.9761 75.1831 75.9761H75.926C75.9457 75.9761 75.9592 75.9818 75.9672 75.9935C75.975 76.0053 75.975 76.0186 75.9672 76.0342L74.782 78.3575V79.8775C74.782 79.9163 74.7623 79.9356 74.7231 79.9356H73.9742Z" fill="#76777A"/>
<path d="M31.4472 27.6024C31.4472 28.5879 31.2947 29.5098 30.9898 30.3673C30.6847 31.2254 30.278 32.033 29.7699 32.7901C29.2614 33.5476 28.6839 34.2504 28.0372 34.898C27.3899 35.546 26.7293 36.1482 26.0549 36.7047C25.3801 37.2617 24.7195 37.7681 24.0727 38.2241C23.4256 38.6804 22.8434 39.0912 22.3262 39.456L20.746 37.5397C21.2818 37.1932 21.8592 36.8053 22.4788 36.3763C23.0978 35.9477 23.6891 35.5233 24.2531 35.1033C24.8167 34.6837 25.3205 34.282 25.764 33.8987C26.2075 33.5155 26.5306 33.1965 26.7343 32.9406C26.5494 33.1416 26.3367 33.3059 26.0966 33.4333C25.8562 33.5612 25.5881 33.6251 25.2926 33.6251C24.461 33.6251 23.6707 33.4702 22.9223 33.1597C22.1738 32.8495 21.5176 32.4252 20.9541 31.8867C20.3901 31.3487 19.9421 30.7142 19.6095 29.9841C19.2768 29.2543 19.1105 28.4693 19.1105 27.6298C19.1105 26.7903 19.2768 26.001 19.6095 25.2618C19.9421 24.5226 20.3857 23.8793 20.9403 23.3317C21.4947 22.7843 22.1463 22.351 22.8949 22.0314C23.6433 21.7123 24.4334 21.5522 25.2651 21.5522C25.9486 21.5522 26.6603 21.6712 27.3998 21.9081C28.1389 22.1455 28.8042 22.5151 29.396 23.0169C29.9872 23.519 30.4773 24.1487 30.8653 24.9058C31.2534 25.6634 31.4475 26.5622 31.4475 27.6024M28.8134 27.6024C28.8134 27.1097 28.7206 26.6443 28.5361 26.2062C28.3513 25.7682 28.1017 25.385 27.7875 25.0564C27.4731 24.7279 27.1036 24.4677 26.6786 24.2761C26.2532 24.0845 25.7915 23.9887 25.2923 23.9887C24.7931 23.9887 24.3221 24.0845 23.8785 24.2761C23.4349 24.4678 23.0469 24.7279 22.7141 25.0564C22.3814 25.3849 22.118 25.7681 21.924 26.2062C21.7298 26.6443 21.6329 27.1097 21.6329 27.6024C21.6329 28.0951 21.7298 28.5605 21.924 28.9984C22.1181 29.4365 22.3814 29.8197 22.7141 30.1484C23.0467 30.4768 23.4348 30.7327 23.8785 30.9148C24.3221 31.0974 24.7934 31.1886 25.2923 31.1886C25.7728 31.1886 26.2254 31.0974 26.6508 30.9148C27.0757 30.7326 27.45 30.4768 27.7737 30.1484C28.0967 29.8198 28.351 29.4366 28.536 28.9984C28.7206 28.5605 28.8134 28.0951 28.8134 27.6024Z" fill="#76777A"/>
<path d="M34.0809 30.2854C34.6907 29.1904 35.3743 28.0911 36.1323 26.9867C36.89 25.8827 37.5645 24.774 38.1561 23.6606H32.5283V21.1968H42.2038C41.5566 22.2918 40.8822 23.3868 40.18 24.4817C39.4774 25.5768 38.803 26.6718 38.1562 27.7669C39.3388 28.2417 40.2953 28.9715 41.0257 29.957C41.7556 30.9424 42.1208 32.0922 42.1208 33.4063C42.1208 34.2276 41.9544 35.0079 41.6218 35.7469C41.2891 36.4861 40.8407 37.1293 40.2773 37.6768C39.7133 38.2243 39.0574 38.6581 38.3089 38.9772C37.5603 39.2962 36.7703 39.4563 35.9386 39.4563C35.0328 39.4563 34.1921 39.2737 33.4158 38.9088C32.6395 38.544 31.9645 38.0696 31.392 37.4852L33.2494 35.7606C33.582 36.1622 33.9745 36.4724 34.4276 36.6914C34.8803 36.9103 35.3746 37.0198 35.9108 37.0198C36.4098 37.0198 36.8811 36.924 37.3248 36.7324C37.7683 36.5407 38.1563 36.2806 38.4892 35.9522C38.8218 35.6236 39.0852 35.2404 39.2793 34.8024C39.4733 34.3643 39.5704 33.8989 39.5704 33.4062C39.5704 32.9135 39.4733 32.4527 39.2793 32.0237C39.0852 31.5952 38.8218 31.2162 38.4892 30.8876C38.1565 30.5592 37.7684 30.3038 37.3248 30.1212C36.8811 29.9389 36.4098 29.8474 35.9108 29.8474C35.2268 29.8474 34.6169 29.9938 34.0811 30.2854" fill="#76777A"/>
<path d="M43.9469 33.5156C43.9469 32.8406 44.0301 32.229 44.1964 31.6815C44.3628 31.134 44.5889 30.6459 44.8756 30.2169C45.1619 29.7883 45.4947 29.4187 45.8737 29.1082C46.2522 28.7981 46.6451 28.5516 47.0519 28.3691C46.5156 28.0041 46.1413 27.5708 45.929 27.0687C45.7164 26.567 45.6103 26.0789 45.6103 25.604C45.6103 24.929 45.7256 24.3084 45.9569 23.7425C46.1877 23.177 46.5066 22.6886 46.9133 22.2779C47.3197 21.8673 47.7957 21.5482 48.3411 21.3197C48.886 21.0918 49.4729 20.9775 50.1015 20.9775C50.7301 20.9775 51.3166 21.0918 51.8619 21.3197C52.4068 21.5482 52.8829 21.8673 53.2897 22.2779C53.696 22.6886 54.0197 23.177 54.26 23.7425C54.5001 24.3084 54.6205 24.9196 54.6205 25.5766C54.6205 26.0515 54.5096 26.5396 54.2878 27.0413C54.0661 27.5434 53.687 27.9857 53.1511 28.369C53.5576 28.57 53.9503 28.8253 54.3293 29.1354C54.708 29.446 55.0454 29.8155 55.3413 30.2442C55.6367 30.6732 55.8681 31.1612 56.0343 31.7087C56.2007 32.2562 56.2839 32.8584 56.2839 33.5155C56.2839 34.3005 56.1357 35.0532 55.8404 35.774C55.5445 36.4952 55.1238 37.1291 54.5789 37.6766C54.0336 38.2241 53.382 38.6579 52.6244 38.9771C51.8663 39.2961 51.0164 39.4562 50.0738 39.4562C49.1312 39.4562 48.2856 39.2963 47.5372 38.9771C46.7886 38.6579 46.1462 38.2241 45.6104 37.6766C45.0741 37.1291 44.663 36.4952 44.3768 35.774C44.0901 35.0532 43.9471 34.3005 43.9471 33.5155M46.5528 33.4061C46.5528 33.8988 46.6451 34.3642 46.8301 34.8023C47.0147 35.2402 47.2642 35.6234 47.5786 35.9521C47.8928 36.2806 48.2669 36.5407 48.7015 36.7323C49.1355 36.9239 49.5929 37.0197 50.0737 37.0197C50.5727 37.0197 51.0441 36.9239 51.4876 36.7323C51.9311 36.5406 52.3236 36.2806 52.6658 35.9521C53.0076 35.6236 53.2757 35.2404 53.4699 34.8023C53.6639 34.3642 53.7609 33.8988 53.7609 33.4061C53.7609 32.9134 53.6681 32.4528 53.4838 32.0236C53.2988 31.5951 53.0445 31.2209 52.7213 30.9013C52.3976 30.5822 52.0235 30.3263 51.5985 30.1349C51.173 29.9431 50.7114 29.8384 50.2123 29.82C49.7133 29.82 49.242 29.9115 48.7984 30.0938C48.3549 30.2765 47.9667 30.5275 47.634 30.8467C47.3012 31.1662 47.0379 31.5448 46.8438 31.9828C46.6497 32.4208 46.5527 32.8956 46.5527 33.4063M48.0776 25.4671C48.0776 25.7409 48.1374 25.992 48.2579 26.22C48.3778 26.4484 48.5351 26.649 48.7293 26.8222C48.9233 26.9959 49.1451 27.1329 49.3945 27.233C49.6441 27.3334 49.9074 27.3834 50.1846 27.3834C50.4433 27.3834 50.6975 27.3333 50.9471 27.233C51.1966 27.1329 51.4136 26.996 51.5987 26.8222C51.7833 26.649 51.9313 26.4484 52.0422 26.22C52.1531 25.9921 52.2085 25.7409 52.2085 25.4671C52.2085 25.1933 52.1531 24.9333 52.0422 24.687C51.9313 24.4405 51.7832 24.2216 51.5987 24.03C51.4137 23.8383 51.2009 23.6877 50.961 23.5783C50.7206 23.4688 50.462 23.414 50.1847 23.414C49.6303 23.414 49.1404 23.6193 48.7154 24.03C48.29 24.4406 48.0776 24.9196 48.0776 25.4671Z" fill="#76777A"/>
<path d="M9.16112 21.1501C10.1831 18.9697 10.9914 16.7767 12.1741 14.8024C17.3492 6.16457 25.0327 1.18208 35.1552 0.155489C49.1486 -1.26348 62.0513 7.15245 66.4161 20.3724C66.5785 20.8641 66.7021 21.2331 67.3816 21.2639C70.874 21.4221 73.1746 23.3724 74.4481 26.3978C76.9509 32.3442 76.4774 38.0918 72.6548 43.404C71.3914 45.1599 69.6562 46.4678 67.3777 46.5268C66.1287 46.5591 64.8613 46.1588 63.6149 45.8953C63.1523 45.7974 62.8622 45.8043 62.5597 46.2296C58.337 52.1638 52.6701 56.0738 45.583 57.9781C45.4489 58.0141 45.3196 58.0678 45.084 58.1491C45.084 58.4378 45.0981 58.7607 45.0815 59.0823C45.0039 60.5922 43.8131 61.8386 42.2949 61.8612C39.4477 61.9036 36.5988 61.9048 33.7514 61.8592C32.2713 61.8355 31.0723 60.5998 30.9946 59.1423C30.9609 58.5098 30.9655 57.8737 30.9887 57.2404C31.0471 55.6464 32.2691 54.4472 33.8984 54.4167C35.4337 54.388 36.9698 54.4016 38.5054 54.409C44.5451 54.4376 49.797 52.3443 54.3966 48.5786C57.5238 46.0184 59.9295 42.8741 61.3705 39.1244C61.9834 37.5297 62.2983 35.6827 62.6092 33.9829C62.8817 32.4925 63.0444 31.0681 63.1508 29.5681C63.3897 26.2004 62.7689 23.0991 61.5229 20.0765C57.3029 9.83971 47.1582 3.67856 35.9876 4.48041C24.1983 5.32644 14.3094 14.6887 12.8651 26.2752C12.5735 28.6144 12.5981 31.4239 12.8883 33.6776C13.2859 36.7642 14.4227 39.2284 14.8783 42.308C15.1796 44.3434 14.5587 45.3131 12.5773 45.9011C11.7519 46.1459 10.906 46.3604 10.0538 46.4717C7.27356 46.8349 5.09271 45.6465 3.53163 43.53C-0.435186 38.1526 -0.951464 32.2978 1.71882 26.2603C2.88525 23.6231 5.08776 21.9073 8.01672 21.2705C8.44716 21.1769 8.8981 21.1761 9.16112 21.1502" fill="#4D7F71"/>
<path d="M35.1665 59.7584C35.1322 59.7584 35.1089 59.743 35.0966 59.7122L34.5512 58.566H34.127C34.1084 58.566 34.0991 58.5752 34.0991 58.5936V59.7121C34.0991 59.7428 34.0834 59.7583 34.0525 59.7583H33.4604C33.4292 59.7583 33.4136 59.7429 33.4136 59.7121V56.674C33.4136 56.6433 33.4292 56.6279 33.4604 56.6279H34.7237C34.8852 56.6279 35.0322 56.6516 35.1643 56.6992C35.2964 56.7469 35.4098 56.8135 35.5045 56.8994C35.5993 56.9854 35.6723 57.0882 35.7236 57.2078C35.7749 57.3276 35.8005 57.4582 35.8005 57.5992C35.8005 57.8017 35.7508 57.9783 35.6514 58.1286C35.5519 58.279 35.4136 58.3925 35.2364 58.4693L35.8613 59.7029C35.8674 59.7183 35.8674 59.7314 35.8613 59.742C35.8549 59.7528 35.8441 59.7581 35.8285 59.7581H35.1666L35.1665 59.7584ZM34.6864 57.9906C34.8169 57.9906 34.9209 57.9554 34.9987 57.8847C35.0763 57.8141 35.1153 57.719 35.1153 57.5993C35.1153 57.4827 35.0763 57.3891 34.9987 57.3185C34.921 57.2481 34.8169 57.2126 34.6864 57.2126H34.1269C34.1083 57.2126 34.099 57.2218 34.099 57.2402V57.9628C34.099 57.9812 34.1083 57.9905 34.1269 57.9905H34.6864V57.9906Z" fill="white"/>
<path d="M36.3272 59.0492C36.3086 58.9939 36.2937 58.9404 36.2829 58.8881C36.272 58.836 36.2634 58.7775 36.2572 58.7132C36.2509 58.6487 36.2463 58.5751 36.2431 58.4922C36.24 58.4093 36.2384 58.3097 36.2384 58.1929C36.2384 58.0762 36.2399 57.9765 36.2431 57.8937C36.2462 57.8108 36.2509 57.7372 36.2572 57.6728C36.2634 57.6083 36.2718 57.55 36.2829 57.4978C36.2937 57.4457 36.3086 57.392 36.3272 57.3367C36.4081 57.0821 36.5517 56.8917 36.7584 56.7658C36.9651 56.6402 37.2099 56.5771 37.4927 56.5771C37.6418 56.5771 37.777 56.5941 37.8981 56.6278C38.0194 56.6616 38.1273 56.7084 38.2222 56.7683C38.3169 56.828 38.3977 56.8987 38.4646 56.9799C38.5315 57.0614 38.5835 57.1495 38.6207 57.2446C38.6362 57.2754 38.63 57.2984 38.6021 57.3137L38.1034 57.5208C38.0691 57.53 38.0473 57.5224 38.038 57.4977C37.9759 57.3903 37.902 57.3097 37.8167 57.2561C37.7312 57.2024 37.6232 57.1755 37.4927 57.1755C37.3558 57.1755 37.2455 57.2069 37.1616 57.2698C37.0778 57.3327 37.0187 57.4178 36.9845 57.5254C36.9752 57.5529 36.9674 57.5844 36.9612 57.6197C36.955 57.6549 36.9495 57.6979 36.9449 57.7486C36.9402 57.7992 36.9372 57.8607 36.9356 57.9328C36.934 58.0048 36.9333 58.0916 36.9333 58.1927C36.9333 58.2939 36.934 58.3814 36.9356 58.4551C36.9372 58.5287 36.9404 58.5908 36.9449 58.6415C36.9497 58.6921 36.9551 58.7351 36.9612 58.7704C36.9674 58.8056 36.9752 58.8372 36.9845 58.8647C37.0187 58.9722 37.0785 59.0565 37.1639 59.1179C37.2494 59.1794 37.3621 59.21 37.502 59.21C37.6199 59.21 37.7257 59.1824 37.8189 59.1272C37.9122 59.0719 37.9759 58.9921 38.01 58.8878C38.0225 58.848 38.0318 58.8036 38.0379 58.7544C38.0441 58.7053 38.0472 58.6469 38.0472 58.5795C38.0472 58.5611 38.0379 58.552 38.0193 58.552H37.5905C37.5593 58.552 37.5438 58.5365 37.5438 58.5058V58.0639C37.5438 58.0333 37.5593 58.0179 37.5905 58.0179H38.6813C38.7123 58.0179 38.728 58.0333 38.728 58.0639V58.3218C38.728 58.4599 38.7216 58.5903 38.7094 58.7131C38.6969 58.8359 38.6767 58.9403 38.6487 59.0261C38.5678 59.2778 38.4257 59.4711 38.2222 59.6061C38.0186 59.7411 37.7753 59.8086 37.4927 59.8086C37.21 59.8086 36.9651 59.7457 36.7584 59.6199C36.5517 59.4941 36.4081 59.3038 36.3272 59.0491" fill="white"/>
<path d="M39.9681 56.674C39.9774 56.6433 39.9976 56.6279 40.0287 56.6279H40.6161C40.6471 56.6279 40.6673 56.6433 40.6766 56.674L41.7489 59.7121C41.7582 59.7429 41.7473 59.7583 41.7163 59.7583H41.1103C41.0791 59.7583 41.059 59.7429 41.0497 59.7121L40.868 59.1644H39.7584L39.5813 59.7121C39.572 59.7429 39.5516 59.7583 39.5207 59.7583H38.91C38.8789 59.7583 38.8681 59.7429 38.8774 59.7121L39.9682 56.674H39.9681ZM40.6813 58.589L40.3225 57.4934H40.3085L39.9495 58.589H40.6815H40.6813Z" fill="white"/>
<path d="M23.9881 61.9937C21.8344 61.9795 20.1063 60.2708 20.1099 58.1587C20.1133 56.0185 21.8892 54.3084 24.0835 54.3323C26.2176 54.3556 27.9467 56.1042 27.9189 58.2108C27.891 60.3202 26.1371 62.0079 23.9882 61.9938" fill="#B99C16"/>
<path d="M25.8091 55.7227C26.0239 55.9337 26.2388 56.1443 26.453 56.3559C26.497 56.3995 26.4969 56.4418 26.4535 56.4849C26.1571 56.7782 25.8604 57.0711 25.5633 57.3636C25.5206 57.4055 25.4758 57.4052 25.4325 57.3626C25.2285 57.1622 25.025 56.9613 24.8221 56.7599C24.7801 56.7182 24.7814 56.6737 24.8247 56.6309C25.1199 56.3387 25.4155 56.0469 25.7113 55.7552C25.7235 55.7432 25.738 55.7335 25.7514 55.7227C25.7707 55.7227 25.79 55.7227 25.8093 55.7227H25.8091Z" fill="white"/>
<path d="M21.5428 59.8778C21.5604 59.8575 21.5769 59.8363 21.5959 59.8173C21.7695 59.6451 21.9436 59.4733 22.1177 59.3016C22.1804 59.2396 22.2145 59.2395 22.2759 59.3002C22.4716 59.4933 22.6673 59.6865 22.8629 59.8797C22.9217 59.938 22.9215 59.9736 22.8617 60.0327C22.6844 60.2081 22.5069 60.3833 22.3294 60.5584C22.2682 60.6187 22.2332 60.6184 22.171 60.557C21.9776 60.3661 21.7844 60.175 21.5907 59.9844C21.5723 59.9664 21.5563 59.9469 21.5427 59.9254C21.5427 59.9095 21.5427 59.8937 21.5427 59.8778H21.5428Z" fill="white"/>
<path d="M23.4745 57.9049C23.5026 57.9032 23.5238 57.9167 23.5426 57.9352C23.7767 58.1664 24.0109 58.3977 24.2452 58.6288C24.2701 58.6533 24.2786 58.6819 24.2734 58.7155C24.242 58.9144 24.2105 59.1134 24.1802 59.3124C24.1768 59.3347 24.1664 59.3508 24.1516 59.3655C23.9099 59.605 23.6684 59.8448 23.426 60.0836C23.3841 60.1248 23.3388 60.1199 23.2917 60.0736C23.1471 59.9313 23.0028 59.7885 22.8585 59.646C22.6016 59.3923 22.3446 59.1386 22.0877 58.8849C22.0228 58.8208 22.0232 58.7872 22.0894 58.7217C22.3168 58.4972 22.5447 58.2733 22.7709 58.0476C22.8022 58.0163 22.8365 57.9991 22.879 57.9927C23.0695 57.9643 23.2599 57.9354 23.4504 57.9069C23.4583 57.9058 23.4664 57.9056 23.4744 57.9051L23.4745 57.9049ZM22.8159 58.7377C22.7997 58.7755 22.8135 58.8056 22.8405 58.8322C22.9997 58.9895 23.1586 59.147 23.3183 59.3037C23.3588 59.3434 23.4074 59.3444 23.4418 59.3093C23.4751 59.2751 23.4726 59.2269 23.4322 59.1868C23.2746 59.0303 23.1162 58.8746 22.9581 58.7184C22.9394 58.6999 22.9183 58.6863 22.8812 58.6869C22.8558 58.6897 22.8298 58.705 22.8158 58.7376L22.8159 58.7377Z" fill="white"/>
<path d="M25.482 57.5563C25.5687 57.5567 25.6284 57.5302 25.6784 57.4807C25.7567 57.4031 25.8351 57.3256 25.9139 57.2483C25.9728 57.1905 26.0095 57.191 26.0689 57.249C26.0769 57.2568 26.085 57.2646 26.0928 57.2726C26.1442 57.3245 26.1448 57.3641 26.0928 57.4156C25.9328 57.5742 25.7733 57.7333 25.6118 57.8904C25.4741 58.0242 25.5248 58.0149 25.3244 57.983C25.2498 57.9712 25.1747 57.9628 25.1007 57.9487C25.0741 57.9436 25.059 57.9514 25.0422 57.9684C24.9542 58.0566 24.8659 58.1445 24.7769 58.2318C24.71 58.2973 24.6772 58.2982 24.6105 58.2324C24.3829 58.008 24.1562 57.7828 23.9295 57.5575C23.883 57.5113 23.8839 57.4693 23.932 57.4214C24.0214 57.3323 24.1107 57.2432 24.202 57.1558C24.2241 57.1346 24.2313 57.1143 24.2264 57.0849C24.2101 56.9863 24.1976 56.8871 24.1802 56.7887C24.17 56.7307 24.1824 56.687 24.2271 56.6441C24.4078 56.47 24.5851 56.2925 24.7637 56.1162C24.8247 56.0561 24.8607 56.0564 24.9222 56.1166C24.9314 56.1255 24.9405 56.1344 24.9494 56.1436C24.9933 56.1892 24.9945 56.2311 24.9496 56.2763C24.872 56.3547 24.7928 56.4314 24.7146 56.5091C24.5968 56.626 24.5963 56.7668 24.7133 56.8825C24.9122 57.0791 25.1115 57.2754 25.31 57.4723C25.3622 57.524 25.4221 57.5564 25.4821 57.5561L25.482 57.5563ZM24.4329 57.4462C24.4189 57.4752 24.4186 57.507 24.4416 57.5308C24.5055 57.5973 24.5704 57.6631 24.6378 57.726C24.6742 57.7598 24.7234 57.7553 24.7541 57.7225C24.7853 57.6891 24.7848 57.6437 24.7496 57.6078C24.6894 57.5464 24.6275 57.4866 24.5661 57.4264C24.5497 57.4102 24.5296 57.4012 24.5046 57.4005C24.4731 57.4024 24.447 57.4166 24.4329 57.4462Z" fill="white"/>
<path d="M3.90383 61.9906C1.76124 61.9772 0.0297971 60.2563 0.0376855 58.1479C0.0456917 56.0058 1.82011 54.302 4.01427 54.3294C6.14414 54.3561 7.88489 56.1239 7.84097 58.2158C7.79623 60.3429 6.06361 62.0041 3.90371 61.9906" fill="#76777A"/>
<path d="M6.56768 58.0576C6.56768 58.0475 6.56744 58.0374 6.56732 58.0272C6.57062 58.0233 6.57368 58.0234 6.57627 58.0279V58.0583C6.57297 58.0632 6.57003 58.0627 6.56756 58.0576H6.56768Z" fill="white"/>
<path d="M6.56765 58.0576C6.57059 58.0578 6.57341 58.0581 6.57636 58.0583V58.0888C6.56352 58.0811 6.56611 58.0692 6.56765 58.0576Z" fill="white"/>
<path d="M6.56733 58.2619C6.56627 58.2505 6.56356 58.2385 6.57639 58.231V58.2614C6.57357 58.2658 6.57063 58.266 6.56733 58.2619Z" fill="white"/>
<path d="M6.57628 58.0277C6.57322 58.0277 6.57027 58.0274 6.56733 58.027C6.56651 58.0187 6.56415 58.0098 6.57628 58.0073V58.0277Z" fill="white"/>
<path d="M6.56732 58.2617C6.57038 58.2615 6.57333 58.2613 6.57639 58.2612V58.2816C6.57392 58.2859 6.57097 58.286 6.56779 58.2823C6.56768 58.2754 6.56756 58.2686 6.56732 58.2617Z" fill="white"/>
<path d="M6.56768 58.2824C6.57051 58.2823 6.57345 58.2821 6.57628 58.2817V58.3021C6.57369 58.3065 6.57074 58.3065 6.56757 58.3027C6.56757 58.2959 6.56757 58.2893 6.56757 58.2826L6.56768 58.2824Z" fill="white"/>
<path d="M6.56768 58.3028C6.57062 58.3026 6.57344 58.3025 6.57639 58.3022V58.3226C6.56332 58.3204 6.5665 58.3112 6.56768 58.3028Z" fill="white"/>
<path d="M6.57626 58.3225V58.363C6.56072 58.4374 6.56472 58.5138 6.54965 58.5886C6.47277 58.9707 6.30747 59.3117 6.05009 59.6053C5.65638 60.0544 5.16 60.317 4.55895 60.3809C4.5042 60.3867 4.44969 60.389 4.39482 60.389C3.43821 60.389 2.48147 60.3886 1.52485 60.3896C1.45951 60.3896 1.40335 60.3764 1.35896 60.326C1.27607 60.2318 1.31328 60.0844 1.43161 60.0411C1.46575 60.0287 1.50131 60.0243 1.53769 60.0243C2.05479 60.0243 2.57189 60.0243 3.08688 60.0245C3.00222 59.9673 2.91639 59.9084 2.84057 59.8377C2.80231 59.802 2.76286 59.7886 2.71165 59.789C2.49737 59.7906 2.28308 59.7897 2.06868 59.7897C2.05149 59.7897 2.03442 59.7899 2.01723 59.7894C1.91033 59.7861 1.83274 59.7155 1.82979 59.6189C1.82662 59.5122 1.89561 59.4363 2.00664 59.4266C2.05102 59.4226 2.09576 59.4253 2.14027 59.4252C2.23116 59.425 2.32205 59.4252 2.41283 59.425C2.42613 59.425 2.44321 59.4303 2.45157 59.4183C2.4611 59.4047 2.44615 59.3934 2.43897 59.3829C2.3064 59.1848 2.20879 58.9711 2.14769 58.7417C2.10848 58.5943 2.08434 58.4446 2.07422 58.2915C2.05255 57.9629 2.10554 57.6477 2.22633 57.3423C2.25942 57.2587 2.29674 57.1768 2.34113 57.0983C2.36656 57.0535 2.36326 57.0473 2.31099 57.0472C2.04007 57.0467 1.76916 57.0469 1.49836 57.0469C1.46222 57.0469 1.42654 57.0464 1.39346 57.0281C1.31952 56.9873 1.29715 56.9228 1.30421 56.8437C1.31022 56.7754 1.3579 56.7161 1.4249 56.6944C1.46139 56.6827 1.49907 56.6822 1.53686 56.6822C1.8763 56.6822 2.21574 56.6814 2.55529 56.6832C2.61098 56.6835 2.65431 56.6698 2.69128 56.6276C2.7485 56.5623 2.81196 56.5025 2.87978 56.4482C2.94618 56.395 3.01341 56.3425 3.09218 56.2952C2.82656 56.2952 2.56707 56.2952 2.30757 56.2952C2.27673 56.2952 2.24588 56.2955 2.2155 56.2881C2.12567 56.2659 2.05891 56.1771 2.06892 56.0927C2.0801 55.9983 2.15075 55.9348 2.24988 55.9312C2.30298 55.9293 2.3562 55.9306 2.4093 55.9306C3.06074 55.9306 3.7123 55.9313 4.36374 55.9303C4.65973 55.9298 4.9423 55.9904 5.21333 56.1052C5.45163 56.2063 5.66592 56.3431 5.85689 56.5177C6.22517 56.8545 6.45664 57.2651 6.55307 57.7509C6.5679 57.8257 6.5626 57.9022 6.57603 57.9769V58.0074C6.56849 58.0142 6.57132 58.0233 6.57073 58.0316C6.57073 58.0403 6.57073 58.0489 6.57073 58.0576C6.57214 58.0681 6.56696 58.0796 6.57603 58.0886V58.2308C6.5672 58.2397 6.57202 58.2509 6.57073 58.2611C6.57073 58.2675 6.57073 58.2737 6.57073 58.2801C6.57073 58.2864 6.57073 58.2927 6.57073 58.299C6.57132 58.307 6.56884 58.3157 6.57603 58.3222L6.57626 58.3225ZM2.93547 58.1703C2.93994 58.9198 3.56583 59.5335 4.32842 59.536C5.09136 59.5384 5.7249 58.9145 5.7229 58.1624C5.7209 57.4003 5.0943 56.7809 4.3283 56.784C3.5563 56.787 2.93099 57.4096 2.93547 58.1703ZM4.49878 57.5658C4.49843 57.5938 4.51515 57.5995 4.53458 57.6064C4.64219 57.6445 4.73096 57.7086 4.79984 57.7983C4.81585 57.8192 4.82986 57.8235 4.85518 57.815C4.97809 57.7737 5.10113 57.7328 5.22546 57.6958C5.2642 57.6843 5.25854 57.6727 5.2423 57.6455C5.07487 57.3654 4.8281 57.1983 4.49949 57.1339C4.49949 57.2816 4.50031 57.4236 4.49878 57.5657V57.5658ZM5.37346 58.0291C5.37016 57.9999 5.35674 58.0074 5.33943 58.013C5.21274 58.0539 5.08618 58.0949 4.95914 58.1347C4.93853 58.1411 4.92864 58.1489 4.92758 58.1721C4.92217 58.2909 4.88908 58.4015 4.81774 58.4989C4.8069 58.5138 4.80808 58.5246 4.81868 58.539C4.90474 58.6547 4.99022 58.7709 5.07829 58.8903C5.30917 58.6444 5.4109 58.3604 5.37346 58.0291ZM3.55488 58.8611C3.57243 58.88 3.58232 58.8912 3.60292 58.8625C3.6798 58.7549 3.75916 58.649 3.83757 58.5425C3.84675 58.5301 3.85617 58.5196 3.84358 58.5024C3.77011 58.4024 3.73596 58.2892 3.73078 58.1668C3.73019 58.1519 3.72537 58.1432 3.70888 58.1379C3.57725 58.0963 3.44609 58.0535 3.31482 58.0109C3.29621 58.0048 3.28609 58.0075 3.28491 58.0297C3.28232 58.0803 3.27808 58.1307 3.27455 58.1813C3.2868 58.441 3.3771 58.6684 3.55477 58.8612L3.55488 58.8611ZM3.41407 57.65C3.40041 57.673 3.39394 57.6839 3.42832 57.6943C3.55571 57.7327 3.68228 57.774 3.80861 57.816C3.83015 57.8232 3.84228 57.8205 3.8557 57.8028C3.92611 57.7093 4.0183 57.6442 4.12885 57.6048C4.14899 57.5976 4.1597 57.5899 4.15947 57.5662C4.15841 57.4241 4.15888 57.2819 4.15888 57.1341C3.82898 57.1988 3.58161 57.3679 3.41407 57.65ZM4.77347 59.1015C4.79831 59.0906 4.79831 59.0823 4.78336 59.0623C4.70412 58.9563 4.62571 58.8496 4.54788 58.7425C4.53387 58.7232 4.52163 58.7183 4.49702 58.7256C4.38611 58.7587 4.27402 58.7588 4.163 58.726C4.1398 58.7191 4.12662 58.7209 4.11178 58.7413C4.02937 58.8555 3.94542 58.9685 3.857 59.0888C4.16417 59.2289 4.46747 59.2359 4.77335 59.1014L4.77347 59.1015ZM4.33113 58.4138C4.46982 58.413 4.58485 58.3002 4.58732 58.1624C4.5898 58.0249 4.47159 57.9067 4.33089 57.9061C4.18914 57.9054 4.07328 58.0197 4.0734 58.1601C4.0734 58.3006 4.18937 58.4146 4.33113 58.4138Z" fill="white"/>
<path d="M17.8877 58.1411C17.8965 60.2833 16.213 61.9753 14.0542 61.994C11.8469 62.0132 10.1248 60.3246 10.1316 58.1477C10.1381 56.0149 11.8456 54.3332 14.0063 54.3315C16.1681 54.3298 17.8789 56.009 17.8877 58.141" fill="#4D7F71"/>
<path d="M15.4574 57.287C15.1548 56.9163 14.7696 56.69 14.2952 56.6119C14.2461 56.6038 14.178 56.6206 14.1525 56.5849C14.1286 56.5513 14.1441 56.4896 14.1439 56.4403C14.1435 56.2596 14.1447 56.0791 14.143 55.8984C14.1427 55.8625 14.1501 55.8506 14.1895 55.8541C14.9307 55.919 15.5384 56.2347 16.0181 56.7953C16.0533 56.8365 16.0531 56.8596 16.0181 56.9016C15.4612 57.5693 14.9064 58.2387 14.351 58.9077C14.3167 58.9491 14.2818 58.9902 14.2454 59.03C14.1098 59.1787 13.8762 59.1807 13.7368 59.035C13.5976 58.8896 13.6138 58.6586 13.775 58.5352C14.3164 58.1212 14.8698 57.7229 15.4177 57.3171C15.4305 57.3077 15.4429 57.2978 15.4574 57.2868V57.287Z" fill="white"/>
<path d="M16.2245 57.0846C16.3493 57.2836 16.4437 57.491 16.5024 57.7118C16.7173 58.5205 16.578 59.2659 16.0812 59.9444C16.0029 60.0513 15.9265 60.058 15.8238 59.9719C15.7227 59.8873 15.6207 59.8036 15.5197 59.7187C15.4293 59.6427 15.4216 59.5814 15.49 59.4882C15.7639 59.1149 15.8804 58.6979 15.841 58.2394C15.8269 58.075 15.7878 57.915 15.724 57.762C15.7094 57.7272 15.7117 57.703 15.7376 57.6722C15.9004 57.4788 16.0606 57.2832 16.2246 57.0845L16.2245 57.0846Z" fill="white"/>
<path d="M11.7911 58.2702C11.6805 58.2702 11.57 58.2699 11.4595 58.2705C11.4331 58.2706 11.4169 58.2713 11.4196 58.2336C11.4612 57.6693 11.6702 57.174 12.0414 56.7438C12.0721 56.7081 12.0882 56.706 12.1221 56.7405C12.2737 56.8939 12.4278 57.0448 12.5823 57.1954C12.6051 57.2176 12.6084 57.23 12.5864 57.2565C12.3495 57.5409 12.2069 57.8649 12.1745 58.2334C12.1716 58.2663 12.1571 58.2709 12.1287 58.2707C12.0162 58.2695 11.9036 58.2702 11.7911 58.2702Z" fill="white"/>
<path d="M13.8658 56.2257C13.8658 56.3329 13.8645 56.4401 13.8667 56.5473C13.8674 56.5813 13.8601 56.5964 13.8224 56.5999C13.4517 56.6338 13.1246 56.772 12.8389 57.0063C12.812 57.0285 12.7997 57.0237 12.7776 57.0017C12.6223 56.8462 12.4658 56.6918 12.3085 56.5385C12.2846 56.5152 12.2818 56.5039 12.3097 56.4802C12.7299 56.1231 13.2142 55.9138 13.7668 55.8616C13.8657 55.8523 13.8658 55.8536 13.8658 55.9518C13.8658 56.0431 13.8658 56.1345 13.8658 56.2257Z" fill="white"/>
<path d="M11.7954 58.5443C11.904 58.5443 12.0125 58.5457 12.1211 58.5435C12.1558 58.5428 12.1705 58.5505 12.174 58.5876C12.2044 58.9212 12.3247 59.2214 12.5243 59.4915C12.588 59.5776 12.5787 59.6468 12.4974 59.7151C12.3901 59.8049 12.2832 59.8953 12.175 59.984C12.0852 60.0578 12.0095 60.048 11.9392 59.9558C11.6294 59.5489 11.4585 59.091 11.4201 58.5837C11.4176 58.5509 11.4261 58.5431 11.4576 58.5436C11.5702 58.5451 11.6828 58.5442 11.7954 58.5442V58.5443Z" fill="white"/>
<path d="M14.0092 60.1984C14.4153 60.1984 14.8214 60.1982 15.2275 60.1985C15.3121 60.1985 15.359 60.2323 15.3744 60.3014C15.3945 60.3914 15.34 60.4645 15.2472 60.4718C15.2352 60.4728 15.2231 60.4724 15.2111 60.4724C14.4069 60.4724 13.6029 60.4724 12.7988 60.4724C12.69 60.4724 12.6332 60.4252 12.6328 60.3357C12.6323 60.2557 12.6846 60.2001 12.7669 60.1992C12.9096 60.1975 13.0523 60.1986 13.1951 60.1985C13.4665 60.1985 13.7378 60.1984 14.0092 60.1984Z" fill="white"/>
<path d="M14.007 59.6491C14.1696 59.6491 14.3322 59.6487 14.4948 59.6494C14.5926 59.6497 14.6485 59.6999 14.6485 59.785C14.6485 59.87 14.5921 59.9226 14.4953 59.9228C14.1681 59.9236 13.8409 59.9237 13.5137 59.9228C13.4193 59.9226 13.3608 59.8661 13.3625 59.7825C13.3643 59.6996 13.4194 59.6498 13.5132 59.6494C13.6778 59.6485 13.8424 59.6491 14.007 59.6491Z" fill="white"/>
</g>
<defs>
<clipPath id="clip0_303_99">
<rect width="76" height="80" fill="white"/>
</clipPath>
</defs>
</svg>
