<svg width="525" height="771" viewBox="0 0 525 771" fill="none" xmlns="http://www.w3.org/2000/svg">
<path opacity="0.25" fill-rule="evenodd" clip-rule="evenodd" d="M347.694 111.108C344.133 103.833 339.866 97.534 335.37 91.9177L241.404 -34.9063C237.632 -39.9975 231.671 -43 225.335 -43H109.198C109.196 -43 109.195 -42.9989 109.195 -42.9976V-42.9976C109.195 -42.9971 109.195 -42.9966 109.196 -42.9962L159.299 19.4512C166.209 28.0637 164.833 40.6465 156.224 47.5607L148.951 53.4019C140.372 60.292 127.839 58.9582 120.902 50.4171L49.7538 -37.1876V-37.1876C46.7673 -40.8648 42.2824 -43 37.5452 -43H-80.7787C-80.78 -43 -80.7811 -42.9989 -80.7811 -42.9976V-42.9976C-80.7811 -42.9971 -80.7809 -42.9966 -80.7806 -42.9962L-80.7796 -42.995C-80.7761 -42.9906 -80.7793 -42.9842 -80.7848 -42.9842H-86.8856C-89.3485 -42.9842 -90.7169 -40.1344 -89.1769 -38.2123L233.551 364.598C237.487 369.51 244.992 369.415 248.802 364.404V364.404C255.768 355.24 286.344 314.669 302.109 293.736C306.16 288.356 306.008 280.912 301.75 275.695V275.695L301.749 275.692L246.033 206.202C239.127 197.589 240.506 185.009 249.115 178.097L256.309 172.32C264.921 165.404 277.508 166.779 284.425 175.39L332.455 235.191V235.191C335.929 239.796 342.784 239.806 345.758 234.863C354.382 220.53 361.178 202.731 363.069 194.428C366.404 179.884 367.803 167.013 367.803 155.599C367.803 120.753 354.756 99.4763 343.734 85.7102L249.939 -40.8806C248.957 -42.2057 247.406 -42.9872 245.756 -42.9872V-42.9872C241.48 -42.9872 239.028 -38.1179 241.573 -34.6823L335.37 91.9145C339.866 97.5314 344.133 103.832 347.694 111.108ZM332.455 235.191L333.105 235.999C333.105 236 333.105 236 333.105 236V236C333.105 236 333.105 236 333.105 236L332.455 235.191ZM446.766 248.724C446.766 248.723 446.767 248.724 446.767 248.724V248.724V248.724C446.767 248.725 446.769 248.726 446.769 248.725L450.844 237.537C451.086 236.87 451.008 236.169 450.586 235.598C443.758 226.356 413.77 184.554 394.421 157.552C389.121 150.156 377.465 153.886 377.403 162.985V162.985C377.034 219.344 341.992 266.802 329.735 283.398C247.999 394.33 46.6957 660.007 -66.0268 808.499V808.499C-68.0307 811.14 -66.1149 814.929 -62.8005 814.88L-57.7342 814.806C-57.7329 814.806 -57.7317 814.805 -57.7309 814.804V814.804C-57.7301 814.803 -57.7289 814.802 -57.7276 814.802H46.696C52.81 814.802 58.5871 812.009 62.376 807.21C78.2878 787.058 98.0143 761.92 117.977 736.044C124.724 727.298 137.277 725.631 146.047 732.349L153.359 737.95C162.126 744.665 163.791 757.216 157.075 765.982C152.689 771.705 148.435 777.256 144.328 782.61C134.235 795.773 143.616 814.802 160.203 814.802H237.092L240.391 814.852C246.591 814.945 252.473 812.174 256.326 807.316C373.961 658.976 501.76 484.705 519.676 424.908C522.763 414.625 524.308 403.724 524.308 392.246C524.308 372.967 519.953 352.063 511.251 329.769C507.168 319.299 498.088 302.667 489.646 289.896C488.429 288.054 485.668 288.389 484.878 290.451L482.785 295.911C482.785 295.912 482.784 295.912 482.784 295.912V295.912C482.784 295.911 482.783 295.911 482.783 295.911C482.783 295.911 482.783 295.911 482.783 295.911C482.778 295.906 482.769 295.905 482.767 295.912C476.341 313.158 470.408 328.036 459.685 346.598C453.995 356.448 440.913 358.607 431.877 351.696L419.561 342.276C414.565 338.455 412.896 331.679 415.51 325.958C429.763 294.759 438.877 272.578 446.766 248.724ZM237.092 814.802C244.33 805.73 251.653 796.492 259.033 787.133C288.552 749.69 318.943 710.275 347.968 671.529C362.48 652.155 376.652 632.943 390.202 614.237C396.974 604.878 403.593 595.647 410.021 586.581C448.586 532.189 480.286 483.755 497.544 450.191C503.297 439.003 507.448 429.468 509.709 421.916C510.091 420.644 510.446 419.361 510.776 418.067C510.446 419.36 510.091 420.642 509.709 421.913C507.444 429.465 503.297 439.003 497.544 450.188C480.286 483.752 448.586 532.189 410.021 586.578C403.593 595.647 396.974 604.875 390.202 614.234C376.651 632.94 362.48 652.152 347.967 671.526C318.943 710.275 288.548 749.69 259.03 787.133C251.653 796.489 244.33 805.73 237.092 814.802ZM407.621 194.613C408.598 195.947 409.59 197.3 410.59 198.666C409.942 197.78 409.297 196.9 408.658 196.027C407.6 194.581 406.555 193.154 405.53 191.754C404.223 189.971 402.949 188.233 401.719 186.554C399.039 182.897 396.569 179.526 394.43 176.604C396.014 178.768 397.781 181.18 399.679 183.771L399.688 183.784L399.701 183.8L399.71 183.814C401.542 186.314 403.495 188.981 405.526 191.754L407.621 194.613ZM391.178 172.162C388.212 168.106 386.421 165.643 386.421 165.605V165.605C386.421 165.607 386.421 165.609 386.422 165.611C386.524 165.785 388.298 168.223 391.178 172.162ZM250.583 610.511C259.38 617.195 271.931 615.481 278.607 606.679C303.86 573.39 328.718 540.496 351.169 510.539C357.792 501.703 355.974 489.178 347.13 482.567L339.742 477.045C330.891 470.43 318.357 472.243 311.732 481.085C289.358 510.946 264.592 543.737 239.421 576.911C232.745 585.71 234.456 598.257 243.251 604.939L250.583 610.511Z" fill="url(#paint0_linear_22_9)"/>
<defs>
<linearGradient id="paint0_linear_22_9" x1="217.24" y1="-43" x2="217.24" y2="814.881" gradientUnits="userSpaceOnUse">
<stop stop-color="white"/>
<stop offset="1" stop-color="white" stop-opacity="0"/>
</linearGradient>
</defs>
</svg>
