<svg width="20" height="24" viewBox="0 0 20 24" fill="none" xmlns="http://www.w3.org/2000/svg">
<path d="M19.58 11.1013C19.4473 11.2356 19.2896 11.3421 19.116 11.4147C18.9424 11.4874 18.7563 11.5248 18.5683 11.5248C18.3804 11.5248 18.1943 11.4874 18.0207 11.4147C17.8471 11.3421 17.6894 11.2356 17.5567 11.1013L11.4288 4.92376V22.5603C11.4288 22.9421 11.2784 23.3083 11.0105 23.5783C10.7427 23.8483 10.3794 24 10.0007 24C9.62191 24 9.25865 23.8483 8.99082 23.5783C8.72299 23.3083 8.57253 22.9421 8.57253 22.5603V4.92376L2.44222 11.1013C2.17393 11.3718 1.81005 11.5238 1.43062 11.5238C1.0512 11.5238 0.687313 11.3718 0.419019 11.1013C0.150726 10.8309 3.99788e-09 10.464 0 10.0815C-3.99788e-09 9.69905 0.150726 9.33222 0.419019 9.06175L8.98788 0.423452C9.12056 0.289232 9.27822 0.182736 9.45181 0.110071C9.62541 0.0374053 9.81152 0 9.99948 0C10.1874 0 10.3736 0.0374053 10.5472 0.110071C10.7208 0.182736 10.8784 0.289232 11.0111 0.423452L19.58 9.06175C19.7131 9.1955 19.8187 9.35444 19.8908 9.52944C19.9629 9.70444 20 9.89206 20 10.0815C20 10.271 19.9629 10.4587 19.8908 10.6337C19.8187 10.8087 19.7131 10.9676 19.58 11.1013Z" fill="white"/>
</svg>
